<?xml version="1.0" encoding="utf-8"?>
<!-- Generator: Adobe Illustrator 23.0.2, SVG Export Plug-In . SVG Version: 6.00 Build 0)  -->
<svg version="1.1" id="Слой_1" xmlns="http://www.w3.org/2000/svg" xmlns:xlink="http://www.w3.org/1999/xlink" x="0px" y="0px"
	 viewBox="0 0 1014 405.5" style="enable-background:new 0 0 1014 405.5;" xml:space="preserve">
<style type="text/css">
	.st0{fill:#B5B5B5;}
	.st1{fill:#FFFFFF;}
	.st2{fill:#1C9CD6;}
</style>
<rect y="103.5" class="st0" width="1014" height="302"/>
<rect x="20" y="118.5" class="st1" width="15" height="272"/>
<rect x="50.9" y="117.3" class="st1" width="15" height="272"/>
<rect x="81.9" y="118.5" class="st1" width="15" height="272"/>
<rect x="112.8" y="118.5" class="st1" width="15" height="272"/>
<rect x="143.7" y="118.5" class="st1" width="15" height="272"/>
<rect x="174.7" y="118.5" class="st1" width="15" height="272"/>
<rect x="205.6" y="118.5" class="st1" width="15" height="272"/>
<rect x="236.5" y="118.5" class="st1" width="15" height="272"/>
<rect x="267.5" y="118.5" class="st1" width="15" height="272"/>
<rect x="298.4" y="118.5" class="st1" width="15" height="272"/>
<rect x="329.4" y="117.3" class="st1" width="15" height="272"/>
<rect x="360.3" y="117.3" class="st1" width="15" height="272"/>
<rect x="391.2" y="117.3" class="st1" width="15" height="272"/>
<rect x="422.2" y="117.3" class="st1" width="15" height="272"/>
<rect x="453.1" y="117.3" class="st1" width="15" height="272"/>
<rect x="484" y="117.3" class="st1" width="15" height="272"/>
<rect x="515" y="117.3" class="st1" width="15" height="272"/>
<rect x="545.9" y="117.3" class="st1" width="15" height="272"/>
<rect x="576.8" y="117.3" class="st1" width="15" height="272"/>
<rect x="607.8" y="117.3" class="st1" width="15" height="272"/>
<rect x="638.7" y="117.3" class="st1" width="15" height="272"/>
<path class="st0" d="M522.5,38.1c-9.9,0-18-8-18-18v-15c0-2.8,2.3-5.1,5.1-5.1h25.8c2.8,0,5.1,2.3,5.1,5.1v15
	C540.4,30,532.4,38.1,522.5,38.1z"/>
<rect x="234.6" y="70.2" transform="matrix(0.9571 -0.2897 0.2897 0.9571 -4.4854 113.5788)" class="st0" width="293.6" height="3.4"/>
<rect x="515.8" y="70.2" transform="matrix(-0.9571 -0.2897 0.2897 -0.9571 1275.9586 332.7785)" class="st0" width="293.6" height="3.4"/>
<rect x="669.6" y="117.3" class="st1" width="15" height="272"/>
<rect x="700.6" y="117.3" class="st1" width="15" height="272"/>
<rect x="731.5" y="117.3" class="st1" width="15" height="272"/>
<rect x="762.5" y="118.5" class="st1" width="15" height="272"/>
<rect x="793.4" y="117.3" class="st1" width="15" height="272"/>
<rect x="824.3" y="117.3" class="st1" width="15" height="272"/>
<rect x="855.3" y="117.3" class="st1" width="15" height="272"/>
<rect x="886.2" y="117.3" class="st1" width="15" height="272"/>
<rect x="917.1" y="117.3" class="st1" width="15" height="272"/>
<rect x="948.1" y="117.3" class="st1" width="15" height="272"/>
<rect x="979" y="117.3" class="st1" width="15" height="272"/>
<g>
	<g>
		<path class="st2" d="M550.6,344v-16.8c0-5.3-4.4-9.3-9.7-9.3l-8.4-39.4c-2.2-11.1-12-19.9-23-20.8l-97.8-11.1l0,0
			c-36.3-35-61.1-53.6-110.7-53.6h-78.4c-6.2,0-11.5,4.9-12.4,11.1l-6.6,56.2l-163.8,0.4c-9.3,0-16.8,7.5-16.8,16.8v60.7
			c0,9.3,7.5,16.8,16.8,16.8h54l0,0c0-23.5,19-42.5,42.5-42.9c23.5,0,42.5,19,42.9,42.5l0,0l217.8-0.9l0,0c0-23.5,19-42.5,42.5-42.9
			c23.5,0,42.5,19,42.9,42.5l0,0h59.3l0,0C546.2,353.3,550.6,348.9,550.6,344z M286.7,260.3h-66.9l3.5-49.1c0-3.1,2.7-5.8,5.8-5.8
			h57.6V260.3z M303.5,260.3v-54.9c42.9,0.4,64.6,16.4,100.1,49.6l4,5.3H303.5z"/>
	</g>
	<g>
		<path class="st2" d="M98.4,355.6c0,20.8,17.2,37.7,38.4,37.7s38.4-16.9,38.4-37.7c0-20.8-17.2-37.7-38.4-37.7
			S98.4,334.7,98.4,355.6z M115,355.6c0-11.8,9.7-21.4,21.7-21.4s21.7,9.6,21.7,21.4c0,11.8-9.7,21.4-21.7,21.4S115,367.4,115,355.6
			z"/>
	</g>
	<path class="st2" d="M401,355.6c0,20.8,17.2,37.7,38.4,37.7s38.4-16.9,38.4-37.7c0-20.8-17.2-37.7-38.4-37.7S401,334.7,401,355.6z
		 M417.7,355.6c0-11.8,9.7-21.4,21.7-21.4s21.7,9.6,21.7,21.4c0,11.8-9.7,21.4-21.7,21.4S417.7,367.4,417.7,355.6z"/>
</g>
<g>
	<g>
		<path class="st2" d="M482.1,220.3L482.1,220.3l56.3,18.8l0,0c7.8-22.1,31.9-34.2,54.2-26.7c22.1,7.8,34.2,31.9,26.7,54.2l0,0
			l206.4,69.8l0,0c7.8-22.1,31.9-34.2,54.2-26.7c22.1,7.8,34.2,31.9,26.7,54.2l0,0l51.2,17.1c8.8,2.9,18.3-1.8,21.3-10.6l19.2-57.5
			c2.9-8.8-1.8-18.3-10.6-21.3l-155.3-52.2l11.5-55.4c1.1-6.2-2.4-12.5-8.3-14.4l-74.3-24.8c-47-15.7-76.4-5.9-122,15.8l0,0
			L543,139.8c-10.8-2.7-22.8,2.7-28.4,12.5L494.2,187c-5-1.7-10.5,0.7-12.2,5.7l-5.3,16C475.1,213.3,477.9,218.9,482.1,220.3z
			 M770.8,160.7l54.6,18.2c2.9,1,4.6,4.3,3.6,7.3L816.9,234l-63.4-21.2L770.8,160.7z M638.8,174.6l5.5-3.8
			c44.1-20.3,69.7-28.6,110.6-15.4l-17.4,52.1L638.8,174.6z"/>
	</g>
	<g>
		<path class="st2" d="M877.5,314.8c-20.1-6.7-41.8,3.9-48.4,23.6c-6.6,19.8,4.4,41.2,24.5,47.9s41.8-3.9,48.4-23.6
			C908.6,343,897.6,321.5,877.5,314.8z M858.8,370.9c-11.4-3.8-17.6-16-13.9-27.1c3.7-11.2,16-17.2,27.4-13.4
			c11.4,3.8,17.6,16,13.9,27.1C882.5,368.7,870.2,374.7,858.8,370.9z"/>
	</g>
	<path class="st2" d="M590.4,219.1c-20.1-6.7-41.8,3.9-48.4,23.6c-6.6,19.8,4.4,41.2,24.5,47.9c20.1,6.7,41.8-3.9,48.4-23.6
		C621.5,247.3,610.5,225.8,590.4,219.1z M571.7,275.1c-11.4-3.8-17.6-16-13.9-27.1c3.7-11.2,16-17.2,27.4-13.4
		c11.4,3.8,17.6,16,13.9,27.1C595.3,272.9,583.1,278.9,571.7,275.1z"/>
</g>
</svg>
