<?xml version="1.0" encoding="utf-8"?>
<!-- Generator: Adobe Illustrator 23.0.2, SVG Export Plug-In . SVG Version: 6.00 Build 0)  -->
<svg version="1.1" id="Слой_1" xmlns="http://www.w3.org/2000/svg" xmlns:xlink="http://www.w3.org/1999/xlink" x="0px" y="0px"
	 viewBox="0 0 465.8 189.6" style="enable-background:new 0 0 465.8 189.6;" xml:space="preserve">
<style type="text/css">
	.st0{fill:#FFFFFF;}
</style>
<g>
	<path class="st0" d="M466,140.1v-14.9c0-4.7-3.9-8.2-8.6-8.2L450,82.2c-1.9-9.7-10.5-17.6-20.2-18.3l-86.2-9.7l0,0
		C311.6,23.3,289.7,7,246.1,7h-69c-5.5,0-10.2,4.3-11,9.7l-5.8,49.5L15.9,66.7C7.6,66.7,1,73.3,1,81.5V135c0,8.2,6.6,14.9,14.9,14.9
		h47.6l0,0c0-20.7,16.8-37.5,37.5-37.8c20.7,0,37.5,16.8,37.8,37.5l0,0l191.9-0.8l0,0c0-20.7,16.8-37.5,37.5-37.8
		c20.7,0,37.5,16.8,37.8,37.5l0,0h52.2l0,0C462.1,148.2,466,144.3,466,140.1z M233.5,66.3h-58.9l3.1-43.3c0-2.7,2.3-5,5-5h50.8V66.3
		z M248.4,66.3V18c37.8,0.3,56.9,14.4,88.1,43.7l3.5,4.7H248.4z"/>
</g>
<g>
	<path class="st0" d="M67.5,150.2c0,18.4,15.2,33.3,33.8,33.3s33.8-14.9,33.8-33.3S120,117,101.4,117S67.5,131.9,67.5,150.2z
		 M82.3,150.2c0-10.4,8.6-18.9,19.2-18.9s19.2,8.5,19.2,18.9s-8.6,18.9-19.2,18.9S82.3,160.6,82.3,150.2z"/>
</g>
<path class="st0" d="M334.2,150.2c0,18.4,15.2,33.3,33.8,33.3c18.6,0,33.8-14.9,33.8-33.3S386.7,117,368,117
	C349.4,117,334.2,131.9,334.2,150.2z M348.9,150.2c0-10.4,8.6-18.9,19.2-18.9s19.2,8.5,19.2,18.9s-8.6,18.9-19.2,18.9
	S348.9,160.6,348.9,150.2z"/>
</svg>
