<?xml version="1.0" encoding="utf-8"?>
<!-- Generator: Adobe Illustrator 23.0.2, SVG Export Plug-In . SVG Version: 6.00 Build 0)  -->
<svg version="1.1" id="Слой_1" xmlns="http://www.w3.org/2000/svg" xmlns:xlink="http://www.w3.org/1999/xlink" x="0px" y="0px"
	 viewBox="0 0 1014 405.5" style="enable-background:new 0 0 1014 405.5;" xml:space="preserve">
<style type="text/css">
	.st0{fill:#B5B5B5;}
	.st1{fill:#FFFFFF;}
	.st2{fill:#1C9CD6;}
</style>
<rect y="103.5" class="st0" width="1014" height="302"/>
<rect x="20" y="118.5" class="st1" width="15" height="272"/>
<rect x="50.9" y="117.3" class="st1" width="15" height="272"/>
<rect x="81.9" y="118.5" class="st1" width="15" height="272"/>
<rect x="112.8" y="118.5" class="st1" width="15" height="272"/>
<rect x="143.7" y="118.5" class="st1" width="15" height="272"/>
<rect x="174.7" y="118.5" class="st1" width="15" height="272"/>
<rect x="205.6" y="118.5" class="st1" width="15" height="272"/>
<rect x="236.5" y="118.5" class="st1" width="15" height="272"/>
<rect x="267.5" y="118.5" class="st1" width="15" height="272"/>
<rect x="298.4" y="118.5" class="st1" width="15" height="272"/>
<rect x="329.4" y="117.3" class="st1" width="15" height="272"/>
<rect x="360.3" y="117.3" class="st1" width="15" height="272"/>
<rect x="391.2" y="117.3" class="st1" width="15" height="272"/>
<rect x="422.2" y="117.3" class="st1" width="15" height="272"/>
<rect x="453.1" y="117.3" class="st1" width="15" height="272"/>
<rect x="484" y="117.3" class="st1" width="15" height="272"/>
<rect x="515" y="117.3" class="st1" width="15" height="272"/>
<rect x="545.9" y="117.3" class="st1" width="15" height="272"/>
<rect x="576.8" y="117.3" class="st1" width="15" height="272"/>
<rect x="607.8" y="117.3" class="st1" width="15" height="272"/>
<rect x="638.7" y="117.3" class="st1" width="15" height="272"/>
<rect x="669.6" y="117.3" class="st1" width="15" height="272"/>
<rect x="700.6" y="117.3" class="st1" width="15" height="272"/>
<rect x="731.5" y="117.3" class="st1" width="15" height="272"/>
<rect x="762.5" y="118.5" class="st1" width="15" height="272"/>
<rect x="793.4" y="117.3" class="st1" width="15" height="272"/>
<rect x="824.3" y="117.3" class="st1" width="15" height="272"/>
<rect x="855.3" y="117.3" class="st1" width="15" height="272"/>
<rect x="886.2" y="117.3" class="st1" width="15" height="272"/>
<rect x="917.1" y="117.3" class="st1" width="15" height="272"/>
<rect x="948.1" y="117.3" class="st1" width="15" height="272"/>
<rect x="979" y="117.3" class="st1" width="15" height="272"/>
<path class="st0" d="M522.5,38.1c-9.9,0-18-8-18-18v-15c0-2.8,2.3-5.1,5.1-5.1h25.8c2.8,0,5.1,2.3,5.1,5.1v15
	C540.4,30,532.4,38.1,522.5,38.1z"/>
<rect x="234.6" y="70.2" transform="matrix(0.9571 -0.2897 0.2897 0.9571 -4.4854 113.5788)" class="st0" width="293.6" height="3.4"/>
<rect x="515.8" y="70.2" transform="matrix(-0.9571 -0.2897 0.2897 -0.9571 1275.9586 332.7785)" class="st0" width="293.6" height="3.4"/>
<g>
	<g>
		<g>
			<path class="st2" d="M508.1,316.7v-21.4c0-3.4-2.5-6.3-6-6.9c-8.2-1.3-22.9-3.7-29.4-5.7c-9.4-2.9-45.8-18.1-58.4-20.9
				c-12.6-2.9-69.4-18.1-123.8,0.5c-9.2,3.2-50.6,22.7-75,32.9c-7.2,0.2-78.1,14.8-81.9,24.8c-3.8,10-5,14.9-5.7,17.4
				c-0.7,2.5,0,14.7,5.3,23.2c5.4,3,15.7,5,27.7,6.4c-0.1-0.7-0.3-1.4-0.4-2.2c-0.2-1.6-0.3-3-0.3-4.4c0-19.1,15.7-34.7,35.1-34.7
				s35.1,15.6,35.1,34.7c0,1-0.1,2-0.1,2.9c-0.2,2.1-0.6,4.2-1.1,6.2c0,0,0.1,0,0.1,0l174.1-3.5c-0.1-0.4-0.2-0.9-0.2-1.3
				c-0.2-1.6-0.3-3-0.3-4.4c0-19.1,15.7-34.7,35.1-34.7c19.3,0,35.1,15.6,35.1,34.7c0,0.1,0,0.1,0,0.2l0.7-0.1l29.8-5.5
				c0,0,11.4-6,11.4-22.5C515,321.6,508.1,316.7,508.1,316.7z M335.4,296.5l-65,2c1.2-9.6-4.6-11.8-4.6-11.8c25.9-23.2,78-24,78-24
				L335.4,296.5z M408.4,293.5l-59.3,2l5.4-32.8c30.6-0.4,48.1,6.3,48.1,6.3l8.8,14L408.4,293.5z M441.8,293.3h-16.5l-16.5-22.4
				c12.4,4.9,22.3,9.7,28.2,12.7C440.5,285.5,442.5,289.4,441.8,293.3z"/>
		</g>
	</g>
	<path class="st2" d="M195.4,331.4c-16.3,0-29.5,13.1-29.5,29.2c0,16.1,13.2,29.2,29.5,29.2s29.5-13.1,29.5-29.2
		C224.9,344.4,211.7,331.4,195.4,331.4z M195.4,377.1c-9.2,0-16.7-7.4-16.7-16.5c0-9.1,7.5-16.5,16.7-16.5s16.7,7.4,16.7,16.5
		C212.1,369.7,204.6,377.1,195.4,377.1z"/>
	<path class="st2" d="M438,331.4c-16.3,0-29.5,13.1-29.5,29.2c0,16.1,13.2,29.2,29.5,29.2s29.5-13.1,29.5-29.2
		C467.5,344.4,454.3,331.4,438,331.4z M438,377.1c-9.2,0-16.7-7.4-16.7-16.5c0-9.1,7.5-16.5,16.7-16.5s16.7,7.4,16.7,16.5
		C454.7,369.7,447.2,377.1,438,377.1z"/>
</g>
<g>
	<g>
		<g>
			<path class="st2" d="M23.6,285.1c5.4,15.6,18.2,17.5,18.2,17.5l29.9-4.6l0.7-0.2c0-0.1-0.1-0.1-0.1-0.2
				c-6.3-18.1,3.4-37.9,21.7-44.3s38.3,3.1,44.6,21.2c0.5,1.3,0.8,2.7,1.1,4.2c0.1,0.4,0.1,0.9,0.2,1.3l165.5-54.2c0,0,0.1,0,0.1,0
				c-1.2-1.7-2.3-3.5-3.1-5.5c-0.4-0.9-0.8-1.8-1.1-2.7c-6.3-18.1,3.4-37.9,21.7-44.3c18.3-6.4,38.3,3.1,44.6,21.2
				c0.4,1.3,0.8,2.7,1.1,4.2c0.2,0.7,0.2,1.4,0.4,2.2c10.8-5.2,19.9-10.5,24-15.2c2.2-9.7-1.2-21.5-2.7-23.6
				c-1.5-2.2-4.2-6.4-11.1-14.6c-6.9-8.2-78.7,1.4-85.5,3.6c-26.3-1.6-71.9-6.4-81.6-6.3c-57.5,0.3-106.1,33.5-117,40.3
				c-10.9,6.9-40.3,33.2-48.2,39c-5.5,4.1-18.5,11.1-25.9,15.1c-3.1,1.6-4.5,5.2-3.4,8.5l7,20.2C24.8,267.8,20,274.7,23.6,285.1z
				 M162.2,162.5c0,0,49.5-16.4,81.5-3.1c0,0-4.7,3.9-0.4,12.6l-62,19.6L162.2,162.5z M105,204l3.7-16.1c0,0,14.3-12.1,43.4-21.8
				l15.9,29.2L111.3,213L105,204z M81.1,213.1c4.6-4.8,12.3-12.6,22.4-21.3l-8.2,26.6l-15.6,5.4C77.7,220.4,78.3,216,81.1,213.1z"/>
		</g>
	</g>
	<path class="st2" d="M306.6,215.8c5.3,15.2,22.1,23.2,37.5,17.8c15.4-5.4,23.6-22.1,18.2-37.3c-5.3-15.2-22.1-23.2-37.5-17.8
		C309.5,183.8,301.3,200.5,306.6,215.8z M318.7,211.5c-3-8.6,1.6-18.1,10.3-21.1c8.7-3,18.2,1.5,21.2,10.1c3,8.6-1.6,18.1-10.3,21.1
		C331.2,224.7,321.7,220.1,318.7,211.5z"/>
	<path class="st2" d="M77.6,295.8c5.3,15.2,22.1,23.2,37.5,17.8c15.4-5.4,23.6-22.1,18.2-37.3c-5.3-15.2-22.1-23.2-37.5-17.8
		C80.5,263.9,72.3,280.5,77.6,295.8z M89.7,291.5c-3-8.6,1.6-18.1,10.3-21.1c8.7-3,18.2,1.5,21.2,10.1c3,8.6-1.6,18.1-10.3,21.1
		S92.7,300.2,89.7,291.5z"/>
</g>
<g>
	<g>
		<g>
			<path class="st2" d="M972.2,316.7v-21.4c0-3.4-2.5-6.3-6-6.9c-8.2-1.3-22.9-3.7-29.4-5.7c-9.4-2.9-45.8-18.1-58.4-20.9
				c-12.6-2.9-69.4-18.1-123.8,0.5c-9.2,3.2-50.6,22.7-75,32.9c-7.2,0.2-78.1,14.8-81.9,24.8c-3.8,10-5,14.9-5.7,17.4
				s0,14.7,5.3,23.2c5.4,3,15.7,5,27.7,6.4c-0.1-0.7-0.3-1.4-0.4-2.2c-0.2-1.6-0.3-3-0.3-4.4c0-19.1,15.7-34.7,35.1-34.7
				c19.3,0,35.1,15.6,35.1,34.7c0,1-0.1,2-0.1,2.9c-0.2,2.1-0.6,4.2-1.1,6.2c0,0,0.1,0,0.1,0l174.1-3.5c-0.1-0.4-0.2-0.9-0.2-1.3
				c-0.2-1.6-0.3-3-0.3-4.4c0-19.1,15.7-34.7,35.1-34.7c19.3,0,35.1,15.6,35.1,34.7c0,0.1,0,0.1,0,0.2l0.7-0.1l29.8-5.5
				c0,0,11.4-6,11.4-22.5C979,321.6,972.2,316.7,972.2,316.7z M799.4,296.5l-65,2c1.2-9.6-4.6-11.8-4.6-11.8c25.9-23.2,78-24,78-24
				L799.4,296.5z M872.4,293.5l-59.3,2l5.4-32.8c30.6-0.4,48.1,6.3,48.1,6.3l8.8,14L872.4,293.5z M905.8,293.3h-16.5l-16.5-22.4
				c12.4,4.9,22.3,9.7,28.2,12.7C904.6,285.5,906.5,289.4,905.8,293.3z"/>
		</g>
	</g>
	<path class="st2" d="M659.4,331.4c-16.3,0-29.5,13.1-29.5,29.2c0,16.1,13.2,29.2,29.5,29.2s29.5-13.1,29.5-29.2
		C688.9,344.4,675.7,331.4,659.4,331.4z M659.4,377.1c-9.2,0-16.7-7.4-16.7-16.5c0-9.1,7.5-16.5,16.7-16.5c9.2,0,16.7,7.4,16.7,16.5
		C676.1,369.7,668.6,377.1,659.4,377.1z"/>
	<path class="st2" d="M902,331.4c-16.3,0-29.5,13.1-29.5,29.2c0,16.1,13.2,29.2,29.5,29.2s29.5-13.1,29.5-29.2
		C931.5,344.4,918.3,331.4,902,331.4z M902,377.1c-9.2,0-16.7-7.4-16.7-16.5c0-9.1,7.5-16.5,16.7-16.5c9.2,0,16.7,7.4,16.7,16.5
		C918.7,369.7,911.2,377.1,902,377.1z"/>
</g>
<g>
	<g>
		<g>
			<path class="st2" d="M510.6,279.2c5.4,15.6,18.2,17.5,18.2,17.5l29.9-4.6l0.7-0.2c0-0.1-0.1-0.1-0.1-0.2
				c-6.3-18.1,3.4-37.9,21.7-44.3c18.3-6.4,38.3,3.1,44.6,21.2c0.5,1.3,0.8,2.7,1.1,4.2c0.1,0.4,0.1,0.9,0.2,1.3l165.5-54.2
				c0,0,0.1,0,0.1,0c-1.2-1.7-2.3-3.5-3.1-5.5c-0.4-0.9-0.8-1.8-1.1-2.7c-6.3-18.1,3.4-37.9,21.7-44.3c18.3-6.4,38.3,3.1,44.6,21.2
				c0.4,1.3,0.8,2.7,1.1,4.2c0.2,0.7,0.2,1.4,0.4,2.2c10.8-5.2,19.9-10.5,24-15.2c2.2-9.7-1.2-21.5-2.7-23.6
				c-1.5-2.2-4.2-6.4-11.1-14.6c-6.9-8.2-78.7,1.4-85.5,3.6c-26.3-1.6-71.9-6.4-81.6-6.3c-57.5,0.3-106.1,33.5-117,40.3
				c-10.9,6.9-40.3,33.2-48.2,39c-5.5,4.1-18.5,11.1-25.9,15.1c-3.1,1.6-4.5,5.2-3.4,8.5l7,20.2C511.8,261.9,507,268.8,510.6,279.2z
				 M649.2,156.6c0,0,49.5-16.4,81.5-3.1c0,0-4.7,3.9-0.4,12.6l-62,19.6L649.2,156.6z M592,198.1l3.7-16.1c0,0,14.3-12.1,43.4-21.8
				l15.9,29.2l-56.6,17.7L592,198.1z M568.1,207.2c4.6-4.8,12.3-12.6,22.4-21.3l-8.2,26.6l-15.6,5.4
				C564.7,214.5,565.3,210.1,568.1,207.2z"/>
		</g>
	</g>
	<path class="st2" d="M793.6,209.9c5.3,15.2,22.1,23.2,37.5,17.8c15.4-5.4,23.6-22.1,18.2-37.3c-5.3-15.2-22.1-23.2-37.5-17.8
		C796.5,177.9,788.3,194.6,793.6,209.9z M805.7,205.6c-3-8.6,1.6-18.1,10.3-21.1c8.7-3,18.2,1.5,21.2,10.1c3,8.6-1.6,18.1-10.3,21.1
		C818.2,218.8,808.7,214.2,805.7,205.6z"/>
	<path class="st2" d="M564.6,289.9c5.3,15.2,22.1,23.2,37.5,17.8c15.4-5.4,23.6-22.1,18.2-37.3c-5.3-15.2-22.1-23.2-37.5-17.8
		C567.5,258,559.3,274.7,564.6,289.9z M576.7,285.6c-3-8.6,1.6-18.1,10.3-21.1c8.7-3,18.2,1.5,21.2,10.1c3,8.6-1.6,18.1-10.3,21.1
		S579.7,294.3,576.7,285.6z"/>
</g>
</svg>
