<?xml version="1.0" encoding="utf-8"?>
<!-- Generator: Adobe Illustrator 23.0.2, SVG Export Plug-In . SVG Version: 6.00 Build 0)  -->
<svg version="1.1" id="Слой_1" xmlns="http://www.w3.org/2000/svg" xmlns:xlink="http://www.w3.org/1999/xlink" x="0px" y="0px"
	 viewBox="0 0 465.8 189.6" style="enable-background:new 0 0 465.8 189.6;" xml:space="preserve">
<style type="text/css">
	.st0{fill:#FFFFFF;}
</style>
<g>
	<g>
		<path class="st0" d="M457.8,91.9V66.3c0-4.1-3-7.6-7.2-8.2c-9.9-1.5-27.3-4.4-35.2-6.8c-11.3-3.4-54.8-21.7-69.7-25.1
			c-15.1-3.4-83-21.7-148.1,0.6C186.6,30.7,137,54,108,66.2C99.4,66.4,14.6,83.9,10,95.9s-5.9,17.8-6.8,20.9
			c-0.8,3.1,0,17.6,6.3,27.8c6.5,3.5,18.7,6.1,33.1,7.6c-0.1-0.8-0.3-1.7-0.4-2.5c-0.3-1.8-0.4-3.5-0.4-5.2
			c0-22.8,18.9-41.4,42-41.4s42,18.6,42,41.4c0,1.1-0.1,2.4-0.1,3.5c-0.3,2.5-0.7,5.1-1.4,7.5h0.1l208.3-4.1
			c-0.1-0.6-0.3-1.1-0.3-1.5c-0.3-1.8-0.4-3.5-0.4-5.2c0-22.8,18.9-41.4,42-41.4c23.1,0,41.8,18.3,41.8,41.3c0,0.1,0,0.1,0,0.3
			l0.8-0.1l35.6-6.6c0,0,13.7-7.2,13.7-26.9C466,97.7,457.8,91.9,457.8,91.9z M251.1,67.7L173.5,70c1.4-11.6-5.5-14.1-5.5-14.1
			c30.9-27.8,93.1-28.6,93.1-28.6L251.1,67.7z M338.5,64.2l-70.9,2.4l6.5-39.3c36.6-0.4,57.5,7.5,57.5,7.5L342,51.4L338.5,64.2z
			 M378.4,63.9h-19.7l-19.7-26.8c14.8,5.8,26.6,11.6,33.7,15.2C377,54.5,379.3,59.3,378.4,63.9z"/>
	</g>
</g>
<path class="st0" d="M83.9,109.4c-19.4,0-35.4,15.6-35.4,34.9s15.8,34.9,35.4,34.9s35.4-15.6,35.4-34.9
	C119.1,125.1,103.3,109.4,83.9,109.4z M83.9,164.1c-11,0-20-8.9-20-19.7s9-19.7,20-19.7s20,8.9,20,19.7
	C103.7,155.2,94.9,164.1,83.9,164.1z"/>
<path class="st0" d="M373.9,109.4c-19.4,0-35.4,15.6-35.4,34.9s15.8,34.9,35.4,34.9c19.4,0,35.4-15.6,35.4-34.9
	C409.2,125.1,393.4,109.4,373.9,109.4z M373.9,164.1c-11,0-20-8.9-20-19.7s9-19.7,20-19.7c11,0,20,8.9,20,19.7
	C393.9,155.2,385,164.1,373.9,164.1z"/>
</svg>
