<?xml version="1.0" encoding="utf-8"?>
<!-- Generator: Adobe Illustrator 23.0.2, SVG Export Plug-In . SVG Version: 6.00 Build 0)  -->
<svg version="1.1" id="Слой_1" xmlns="http://www.w3.org/2000/svg" xmlns:xlink="http://www.w3.org/1999/xlink" x="0px" y="0px"
	 viewBox="0 0 1014 405.5" style="enable-background:new 0 0 1014 405.5;" xml:space="preserve">
<style type="text/css">
	.st0{fill:#B5B5B5;}
	.st1{fill:#FFFFFF;}
	.st2{fill:#1C9CD6;}
</style>
<rect y="103.5" class="st0" width="1014" height="302"/>
<rect x="20" y="118.5" class="st1" width="15" height="272"/>
<rect x="50.9" y="117.3" class="st1" width="15" height="272"/>
<rect x="81.9" y="118.5" class="st1" width="15" height="272"/>
<rect x="112.8" y="118.5" class="st1" width="15" height="272"/>
<rect x="143.7" y="118.5" class="st1" width="15" height="272"/>
<rect x="174.7" y="118.5" class="st1" width="15" height="272"/>
<rect x="205.6" y="118.5" class="st1" width="15" height="272"/>
<rect x="236.5" y="118.5" class="st1" width="15" height="272"/>
<rect x="267.5" y="118.5" class="st1" width="15" height="272"/>
<rect x="298.4" y="118.5" class="st1" width="15" height="272"/>
<rect x="329.4" y="117.3" class="st1" width="15" height="272"/>
<rect x="360.3" y="117.3" class="st1" width="15" height="272"/>
<rect x="391.2" y="117.3" class="st1" width="15" height="272"/>
<rect x="422.2" y="117.3" class="st1" width="15" height="272"/>
<rect x="453.1" y="117.3" class="st1" width="15" height="272"/>
<rect x="484" y="117.3" class="st1" width="15" height="272"/>
<rect x="515" y="117.3" class="st1" width="15" height="272"/>
<rect x="545.9" y="117.3" class="st1" width="15" height="272"/>
<rect x="576.8" y="117.3" class="st1" width="15" height="272"/>
<rect x="607.8" y="117.3" class="st1" width="15" height="272"/>
<rect x="638.7" y="117.3" class="st1" width="15" height="272"/>
<path class="st0" d="M522.5,38.1c-9.9,0-18-8-18-18v-15c0-2.8,2.3-5.1,5.1-5.1h25.8c2.8,0,5.1,2.3,5.1,5.1v15
	C540.4,30,532.4,38.1,522.5,38.1z"/>
<rect x="234.6" y="70.2" transform="matrix(0.9571 -0.2897 0.2897 0.9571 -4.4854 113.5788)" class="st0" width="293.6" height="3.4"/>
<rect x="515.8" y="70.2" transform="matrix(-0.9571 -0.2897 0.2897 -0.9571 1275.9586 332.7785)" class="st0" width="293.6" height="3.4"/>
<rect x="669.6" y="117.3" class="st1" width="15" height="272"/>
<rect x="700.6" y="117.3" class="st1" width="15" height="272"/>
<rect x="731.5" y="117.3" class="st1" width="15" height="272"/>
<rect x="762.5" y="118.5" class="st1" width="15" height="272"/>
<rect x="793.4" y="117.3" class="st1" width="15" height="272"/>
<rect x="824.3" y="117.3" class="st1" width="15" height="272"/>
<rect x="855.3" y="117.3" class="st1" width="15" height="272"/>
<rect x="886.2" y="117.3" class="st1" width="15" height="272"/>
<rect x="917.1" y="117.3" class="st1" width="15" height="272"/>
<rect x="948.1" y="117.3" class="st1" width="15" height="272"/>
<rect x="979" y="117.3" class="st1" width="15" height="272"/>
<g>
	<g>
		<path class="st2" d="M881.3,360.8c-49.5,0-99.2,0-148.7,0c-3.1-28.3-25-41.8-43.7-41.4c-21.7,0.6-37.4,16-41.3,41.7
			c-12.4-1.6-24.9-3.1-36.9-4.6c-0.7-5.3-0.5-10.3-2-14.8c-4.9-14,0.8-26.3,5.5-38.8c0.7-1.9,3.5-3.8,5.7-4.3
			c15.7-3.8,31.3-7.7,47.1-10.6c11.2-2.1,22.7-2.5,34-4.4c4.4-0.7,9-2.6,12.8-5c7-4.5,13.4-9.9,20.3-14.6
			c22.4-15.2,47.6-21.6,74.4-23.1c39.5-2.2,78.7,1.5,117.9,5c12.5,1.1,24.9,2.4,37.3,3.8c2.8,0.3,5.5,1.6,8.3,2.4
			c-0.1,0.5-0.2,0.9-0.3,1.4c-1.7,0.6-3.5,1.2-6.4,2.2c2.2,2.8,3.7,5.4,5.9,7.3c5.3,4.7,10.8,9.1,16.3,13.6c6.9,5.7,8,8.3,5.2,16.8
			c-1.3,4-0.4,7.3,0.3,11.3c1.7,10.6,2.7,21.5,2.5,32.3c-0.1,7.2-5.4,12.7-11.7,16.1c-5.3,2.9-11.2,4.8-17,7.2
			c-4.6-30.4-25.7-41.6-46-40.9C901,320.2,887.5,334.1,881.3,360.8z M816.4,246.9c-24-6.9-85.6,17.9-97.1,38.7
			c0.3,0.2,0.6,0.5,0.9,0.5c27.5-1.5,55.1-3,82.6-4.6c1.1-0.1,2.9-1.1,3.2-2.1C809.6,268.6,812.9,257.8,816.4,246.9z M895.1,276.4
			c-3.1-9.3-5.8-17.6-8.7-25.7c-0.3-1-2.1-2-3.3-2c-16.8-0.9-33.7-1.6-50.5-2.3c-1.2,0-3.3,1.2-3.5,2.1c-1.9,10.3-3.4,20.6-5.2,31.8
			C847.9,279.1,871,277.8,895.1,276.4z M897.1,249.3c3.1,8.9,5.6,16.4,8.5,23.8c0.5,1.2,2.6,2.6,3.9,2.5c9.6-0.4,19.1-1,28.7-1.7
			c1.3-0.1,3.1-0.9,3.5-1.8c0.4-0.9-0.5-2.8-1.4-3.7c-4.5-4.7-9.1-9.3-13.9-13.7c-1.4-1.3-3.3-2.5-5.1-2.7
			C913.6,250.9,905.9,250.2,897.1,249.3z M970.1,288.8c-4,0-8-0.2-11.9,0.1c-1.2,0.1-0.5,1.8,0.1,3.6c1.6,3.9,2.9,6.7,6.8,7.9
			c5.2,1.6,11.1,0.6,16.7,0.5c1.2,0,3-0.7,3.5-1.7c3-5.4-0.3-10.6-6.5-10.6C975.9,288.8,973,288.8,970.1,288.8z M650.9,303.4
			c-8.6,0.5-18.3,0.3-27,1.2c-8,0.8-7.9,3.6-8.3,13.1C627.4,313.9,640.9,312.7,650.9,303.4z"/>
	</g>
	<path class="st2" d="M690.2,324.5c-20.9,0-37.8,16.4-37.8,36.7c0,20.3,16.9,36.7,37.8,36.7s37.8-16.4,37.8-36.7
		C728,340.9,711.1,324.5,690.2,324.5z M690.2,382c-11.8,0-21.4-9.3-21.4-20.8c0-11.5,9.6-20.8,21.4-20.8s21.4,9.3,21.4,20.8
		C711.6,372.7,702,382,690.2,382z"/>
	<path class="st2" d="M924.7,325c-20.9,0-37.8,16.4-37.8,36.7c0,20.3,16.9,36.7,37.8,36.7c20.9,0,37.8-16.4,37.8-36.7
		C962.5,341.4,945.6,325,924.7,325z M924.7,382.5c-11.8,0-21.4-9.3-21.4-20.8c0-11.5,9.6-20.8,21.4-20.8c11.8,0,21.4,9.3,21.4,20.8
		C946.1,373.2,936.6,382.5,924.7,382.5z"/>
</g>
<g>
	<g>
		<path class="st2" d="M96.2,310.7c-20.4-0.7-41.4,10.5-46,40.9c-5.8-2.4-11.7-4.3-17-7.2c-6.3-3.4-11.5-8.9-11.7-16.1
			c-0.2-10.8,0.8-21.7,2.5-32.3c0.6-3.9,1.6-7.3,0.3-11.3c-2.8-8.5-1.8-11.1,5.2-16.8c5.5-4.5,11-8.9,16.3-13.6
			c2.1-1.9,3.7-4.5,5.9-7.3c-2.9-1-4.7-1.6-6.4-2.2c-0.1-0.5-0.2-0.9-0.3-1.4c2.8-0.8,5.5-2.1,8.3-2.4c12.4-1.4,24.9-2.7,37.3-3.8
			c39.2-3.6,78.4-7.3,117.9-5c26.7,1.5,52,7.9,74.4,23.1c6.9,4.7,13.3,10.2,20.3,14.6c3.8,2.4,8.3,4.3,12.8,5
			c11.3,1.8,22.8,2.2,34,4.4c15.8,3,31.5,6.9,47.1,10.6c2.2,0.5,5,2.4,5.7,4.3c4.6,12.5,10.4,24.8,5.5,38.8c-1.6,4.4-1.4,9.5-2,14.8
			c-12,1.5-24.5,3.1-36.9,4.6c-3.9-25.7-19.6-41.2-41.3-41.7c-18.7-0.5-40.6,13-43.7,41.4c-49.6,0-99.2,0-148.7,0
			C129.3,325.3,115.9,311.4,96.2,310.7z M210.9,270.6c0.3,1,2.1,2,3.2,2.1c27.5,1.6,55.1,3.1,82.6,4.6c0.3,0,0.6-0.3,0.9-0.5
			c-11.4-20.8-73.1-45.6-97.1-38.7C203.9,248.9,207.3,259.8,210.9,270.6z M192.9,271.6c-1.8-11.2-3.3-21.6-5.2-31.8
			c-0.2-0.9-2.3-2.2-3.5-2.1c-16.9,0.6-33.7,1.4-50.5,2.3c-1.2,0.1-2.9,1.1-3.3,2c-2.9,8.2-5.6,16.4-8.7,25.7
			C145.9,269,168.9,270.3,192.9,271.6z M95.6,243.1c-1.8,0.2-3.8,1.4-5.1,2.7c-4.8,4.4-9.4,9-13.9,13.7c-0.9,0.9-1.7,2.7-1.4,3.7
			c0.4,0.9,2.2,1.7,3.5,1.8c9.6,0.7,19.1,1.4,28.7,1.7c1.3,0,3.4-1.3,3.9-2.5c2.9-7.4,5.4-14.9,8.5-23.8
			C110.9,241.4,103.2,242,95.6,243.1z M38.1,280c-6.2,0-9.5,5.1-6.5,10.6c0.5,0.9,2.3,1.6,3.5,1.7c5.6,0.1,11.6,1.1,16.7-0.5
			c3.9-1.2,5.2-4,6.8-7.9c0.5-1.8,1.2-3.5,0.1-3.6c-3.9-0.4-8-0.1-11.9-0.1C43.9,280,41,279.9,38.1,280z M401.3,308.8
			c-0.5-9.4-0.4-12.3-8.3-13.1c-8.7-0.9-18.5-0.7-27-1.2C375.9,303.9,389.4,305.1,401.3,308.8z"/>
	</g>
	<path class="st2" d="M288.8,352.4c0,20.3,16.9,36.7,37.8,36.7c20.9,0,37.8-16.4,37.8-36.7c0-20.3-16.9-36.7-37.8-36.7
		C305.7,315.7,288.8,332.1,288.8,352.4z M305.2,352.4c0-11.5,9.6-20.8,21.4-20.8c11.8,0,21.4,9.3,21.4,20.8
		c0,11.5-9.6,20.8-21.4,20.8C314.8,373.2,305.2,363.9,305.2,352.4z"/>
	<path class="st2" d="M54.3,352.9c0,20.3,16.9,36.7,37.8,36.7s37.8-16.4,37.8-36.7c0-20.3-16.9-36.7-37.8-36.7
		S54.3,332.6,54.3,352.9z M70.7,352.9c0-11.5,9.6-20.8,21.4-20.8s21.4,9.3,21.4,20.8c0,11.5-9.6,20.8-21.4,20.8
		S70.7,364.3,70.7,352.9z"/>
</g>
<g>
	<g>
		<path class="st2" d="M496.2,260.6c-19.3,6.7-34.8,24.8-28,54.8c-6.3-0.1-12.4,0.2-18.4-0.5c-7.1-0.9-14-4.1-16.7-10.8
			c-4.1-9.9-7.2-20.4-9.4-31c-0.8-3.9-1.2-7.3-3.9-10.6c-5.7-6.8-5.7-9.7-1.3-17.5c3.5-6.2,7-12.3,10.2-18.6c1.3-2.6,1.8-5.5,2.8-9
			c-3.1,0.1-4.9,0.2-6.8,0.3c-0.3-0.4-0.5-0.8-0.8-1.2c2.3-1.8,4.4-3.9,6.9-5.3c11.1-5.9,22.2-11.6,33.4-17.2
			c35.2-17.6,70.4-35.3,108-47.6c25.5-8.3,51.3-11.6,77.7-5.5c8.1,1.9,16.1,4.6,24.2,6.2c4.4,0.9,9.3,1,13.7,0
			c11.2-2.4,22-6.2,33.2-8.3c15.8-3,31.8-5.1,47.8-7.2c2.2-0.3,5.5,0.4,6.9,1.9c8.9,9.9,18.7,19.3,19.2,34.2
			c0.2,4.7,2.2,9.4,3.5,14.5c-10.7,5.8-21.7,11.8-32.7,17.7c-12.9-22.6-33.2-31.2-53.6-23.9c-17.6,6.4-33.1,26.9-25.6,54.4
			c-46.2,18-92.4,36.1-138.6,54.1C532.4,262.2,514.8,254.1,496.2,260.6z M588.4,181.5c0.7,0.8,2.7,1.1,3.7,0.8
			c26.2-8.5,52.4-17.1,78.6-25.8c0.3-0.1,0.4-0.5,0.7-0.8c-18.2-15.2-84.7-15.9-104.5-0.7C574.1,163.9,581.2,172.8,588.4,181.5z
			 M572,189c-5.7-9.8-11-18.9-16.4-27.8c-0.5-0.8-2.9-1.2-4-0.7c-15.5,6.7-30.9,13.5-46.3,20.5c-1.1,0.5-2.3,2.1-2.3,3.1
			c0.2,8.7,0.8,17.3,1.3,27.1C527.3,203.7,549.2,196.5,572,189z M471,197.9c-1.6,0.9-3,2.7-3.8,4.4c-2.8,5.9-5.5,11.8-8,17.8
			c-0.5,1.2-0.6,3.2,0.1,3.9c0.7,0.7,2.7,0.8,3.9,0.4c9.2-2.8,18.3-5.7,27.4-8.8c1.2-0.4,2.7-2.5,2.7-3.8c0-7.9-0.4-15.8-0.7-25.2
			C484.7,190.7,477.8,194.1,471,197.9z M430.9,253.2c-5.8,2.3-6.9,8.2-2.2,12.2c0.8,0.7,2.7,0.7,3.9,0.3c5.3-1.9,11.2-3.2,15.4-6.6
			c3.2-2.6,3.4-5.6,3.5-9.9c-0.2-1.9-0.1-3.8-1.3-3.4c-3.8,1.1-7.5,2.8-11.2,4.2C436.3,251,433.6,252.1,430.9,253.2z M779.7,147.9
			c-3.9-8.6-4.8-11.3-12.5-9.1c-8.5,2.3-17.5,6.1-25.6,8.7C754.3,152.5,767.3,148.7,779.7,147.9z"/>
	</g>
	<path class="st2" d="M690.8,229.4c7.4,18.9,29.1,28.1,48.6,20.5c19.5-7.6,29.2-29.1,21.9-48c-7.4-18.9-29.1-28.1-48.6-20.5
		C693.2,189,683.4,210.5,690.8,229.4z M706.1,223.4c-4.2-10.7,1.4-22.9,12.4-27.2s23.3,0.9,27.5,11.6c4.2,10.7-1.4,22.9-12.4,27.2
		S710.2,234.1,706.1,223.4z"/>
	<path class="st2" d="M472.5,315.2c7.4,18.9,29.1,28.1,48.6,20.5c19.5-7.6,29.2-29.1,21.9-48c-7.4-18.9-29.1-28.1-48.6-20.5
		C474.9,274.8,465.1,296.3,472.5,315.2z M487.8,309.2c-4.2-10.7,1.4-22.9,12.4-27.2s23.3,0.9,27.5,11.6c4.2,10.7-1.4,22.9-12.4,27.2
		C504.3,325.1,492,319.9,487.8,309.2z"/>
</g>
</svg>
