<?xml version="1.0" encoding="utf-8"?>
<!-- Generator: Adobe Illustrator 23.0.2, SVG Export Plug-In . SVG Version: 6.00 Build 0)  -->
<svg version="1.1" id="Слой_1" xmlns="http://www.w3.org/2000/svg" xmlns:xlink="http://www.w3.org/1999/xlink" x="0px" y="0px"
	 viewBox="0 0 465.8 189.6" style="enable-background:new 0 0 465.8 189.6;" xml:space="preserve">
<style type="text/css">
	.st0{fill:#FFFFFF;}
</style>
<g>
	<path class="st0" d="M329.1,144.6c-59.4,0-118.9,0-178.3,0c-3.7-33.9-29.9-50.2-52.4-49.6c-26,0.7-44.9,19.2-49.5,50
		c-14.9-1.9-29.8-3.7-44.2-5.5c-0.8-6.3-0.5-12.4-2.4-17.7c-5.9-16.8,1-31.6,6.5-46.5c0.9-2.3,4.2-4.5,6.9-5.2
		c18.8-4.6,37.5-9.2,56.5-12.8c13.4-2.5,27.2-3,40.7-5.2c5.3-0.9,10.7-3.1,15.3-6c8.4-5.4,16.1-11.9,24.3-17.5
		c26.9-18.3,57.1-25.9,89.2-27.7C289-1.9,336,2.6,383,6.9c14.9,1.4,29.9,2.9,44.8,4.6c3.4,0.4,6.7,1.9,10,2.9
		c-0.1,0.6-0.2,1.1-0.3,1.7c-2.1,0.7-4.2,1.4-7.7,2.6c2.7,3.4,4.5,6.5,7.1,8.8c6.3,5.6,12.9,11,19.5,16.3c8.3,6.8,9.6,10,6.2,20.1
		c-1.6,4.8-0.5,8.8,0.3,13.5c2.1,12.7,3.3,25.8,3,38.7c-0.2,8.6-6.5,15.2-14,19.3c-6.4,3.5-13.4,5.7-20.4,8.7
		c-5.6-36.5-30.8-49.9-55.2-49C352.6,95.9,336.5,112.5,329.1,144.6z M251.2,8c-28.8-8.3-102.7,21.5-116.4,46.4
		c0.4,0.2,0.7,0.6,1.1,0.6c33-1.8,66-3.6,99-5.5c1.4-0.1,3.4-1.4,3.8-2.5C243.1,34,247.1,21,251.2,8z M345.7,43.4
		c-3.7-11.2-6.9-21.1-10.4-30.8c-0.4-1.2-2.5-2.4-3.9-2.4c-20.2-1.1-40.4-2-60.6-2.7c-1.4-0.1-4,1.5-4.2,2.6
		c-2.2,12.3-4.1,24.7-6.2,38.2C289.1,46.6,316.7,45,345.7,43.4z M348.1,10.8c3.7,10.6,6.7,19.6,10.2,28.5c0.6,1.4,3.1,3.1,4.7,3
		c11.5-0.4,22.9-1.2,34.4-2.1c1.5-0.1,3.7-1.1,4.2-2.2c0.4-1.1-0.6-3.3-1.6-4.4c-5.4-5.6-11-11.1-16.7-16.4c-1.7-1.5-4-3-6.2-3.3
		C367.8,12.7,358.6,11.9,348.1,10.8z M435.5,58.2c-4.8,0-9.6-0.3-14.3,0.2c-1.4,0.1-0.6,2.2,0.1,4.4c1.9,4.7,3.5,8.1,8.2,9.5
		c6.2,1.9,13.3,0.7,20,0.6c1.5,0,3.6-0.9,4.2-2c3.6-6.5-0.3-12.7-7.8-12.7C442.4,58.2,439,58.2,435.5,58.2z M52.9,75.7
		c-10.3,0.6-21.9,0.3-32.4,1.4c-9.6,1-9.4,4.4-10,15.7C24.7,88.3,40.9,86.8,52.9,75.7z"/>
</g>
<path class="st0" d="M100,101c-25,0-45.3,19.7-45.3,44c0,24.3,20.3,44,45.3,44s45.3-19.7,45.3-44C145.3,120.7,125,101,100,101z
	 M100,170c-14.2,0-25.7-11.2-25.7-24.9c0-13.8,11.5-24.9,25.7-24.9s25.7,11.2,25.7,24.9C125.7,158.8,114.2,170,100,170z"/>
<path class="st0" d="M381.2,101.6c-25,0-45.3,19.7-45.3,44c0,24.3,20.3,44,45.3,44s45.3-19.7,45.3-44
	C426.5,121.3,406.2,101.6,381.2,101.6z M381.2,170.5c-14.2,0-25.7-11.2-25.7-24.9c0-13.8,11.5-24.9,25.7-24.9s25.7,11.2,25.7,24.9
	C406.8,159.4,395.3,170.5,381.2,170.5z"/>
</svg>
