<?xml version="1.0" encoding="utf-8"?>
<!-- Generator: Adobe Illustrator 18.0.0, SVG Export Plug-In . SVG Version: 6.00 Build 0)  -->
<!DOCTYPE svg PUBLIC "-//W3C//DTD SVG 1.1//EN" "http://www.w3.org/Graphics/SVG/1.1/DTD/svg11.dtd">
<svg version="1.1" xmlns="http://www.w3.org/2000/svg" xmlns:xlink="http://www.w3.org/1999/xlink" x="0px" y="0px"
	 viewBox="0 0 1063.1 334.8" enable-background="new 0 0 1063.1 334.8" xml:space="preserve">
<g id="Слой_4">
	<g opacity="0.42">
		<defs>
			<filter id="Adobe_OpacityMaskFilter" filterUnits="userSpaceOnUse" x="240.4" y="269.6" width="616.7" height="57.9">
				<feFlood  style="flood-color:white;flood-opacity:1" result="back"/>
				<feBlend  in="SourceGraphic" in2="back" mode="normal"/>
			</filter>
		</defs>
		<mask maskUnits="userSpaceOnUse" x="240.4" y="269.6" width="616.7" height="57.9" id="SVGID_1_">
			<g filter="url(#Adobe_OpacityMaskFilter)">
				<image overflow="visible" width="622" height="63" xlink:href="AF71F6F2.jpg"  transform="matrix(1 0 0 1 237.6286 266.6667)">
				</image>
			</g>
		</mask>
		<g mask="url(#SVGID_1_)">
			
				<ellipse transform="matrix(0.9994 3.489950e-002 -3.489950e-002 0.9994 10.7526 -18.9672)" fill="#A4A5A7" cx="548.7" cy="298.5" rx="308.5" ry="26.9"/>
		</g>
	</g>
</g>
<g id="Слой_3">
</g>
<g id="Слой_2">
</g>
<g id="Слой_1">
	<g>
		<g opacity="0.4">
			<defs>
				<filter id="Adobe_OpacityMaskFilter_1_" filterUnits="userSpaceOnUse" x="0" y="234.4" width="347.9" height="87.8">
					<feFlood  style="flood-color:white;flood-opacity:1" result="back"/>
					<feBlend  in="SourceGraphic" in2="back" mode="normal"/>
				</filter>
			</defs>
			<mask maskUnits="userSpaceOnUse" x="0" y="234.4" width="347.9" height="87.8" id="SVGID_2_">
				<g filter="url(#Adobe_OpacityMaskFilter_1_)">
					<image overflow="visible" width="353" height="93" xlink:href="AF71F6F3.jpg"  transform="matrix(1 0 0 1 -2.3714 231.6667)">
					</image>
				</g>
			</mask>
			<g mask="url(#SVGID_2_)">
				<path fill="#A4A5A7" d="M303.3,239.7c-2-3.2-6.5-5.3-11.6-5.3H174l0,0H56.2c-5,0-9.6,2.1-11.6,5.3L1,310.1
					c-3.6,5.7,2.5,12.1,11.6,12.1H174l0,0h161.3c9,0,15.1-6.4,11.6-12.1L303.3,239.7z"/>
			</g>
		</g>
		<g>
			<path fill="#C63427" d="M293.8,311.7H54.1c-1.8,0-3.3-1.5-3.3-3.3v-16h246.4v16C297.2,310.2,295.7,311.7,293.8,311.7z"/>
			<path fill="#D0574C" d="M265.6,240.4c-1.4-2.3-4.6-3.7-8.2-3.7H174l0,0H90.6c-3.6,0-6.8,1.5-8.2,3.7l-30.9,49.9
				c-2.5,4.1,1.8,8.6,8.2,8.6H174l0,0h114.3c6.4,0,10.7-4.5,8.2-8.6L265.6,240.4z"/>
			<path fill="#C63427" d="M189.9,22.4h-16h-16L97.7,258c0,0,20.8,31.6,76.3,31.6c55.5,0,76.3-31.6,76.3-31.6l0,0L189.9,22.4z"/>
			<ellipse fill="#9B2E1E" cx="174" cy="22.4" rx="16" ry="2.2"/>
			<path fill="#F9EBE9" d="M221.7,146.7l-8.5-33c-10.5,3.8-23.5,6.5-39.3,6.5c-15.8,0-28.8-2.7-39.3-6.5l-8.5,33
				c11.7,5.6,27.4,10,47.8,10C194.4,156.6,210,152.2,221.7,146.7z"/>
			<path fill="#F9EBE9" d="M149.8,54.6l-6.6,25.8c8.8,1.7,19,2.8,30.8,2.8c11.8,0,22-1.1,30.8-2.8l-6.6-25.8
				c-7.2,1-15.2,1.7-24.2,1.7C165,56.3,157,55.7,149.8,54.6z"/>
			<path fill="#F9EBE9" d="M231.4,184.6C231.4,184.6,231.4,184.6,231.4,184.6c-13.5,7.2-32.3,13.3-57.5,13.3s-44-6.1-57.4-13.3
				c0,0,0,0-0.1,0l-9,35c2.6,2.4,5.7,4.6,9,6.4c13.5,7.2,32.2,13.3,57.4,13.3s44-6.1,57.4-13.3c3.4-1.8,6.4-4,9-6.4L231.4,184.6z"/>
		</g>
	</g>
	<g>
		<g opacity="0.4">
			<defs>
				<filter id="Adobe_OpacityMaskFilter_2_" filterUnits="userSpaceOnUse" x="725.5" y="243.2" width="337.6" height="85.2">
					<feFlood  style="flood-color:white;flood-opacity:1" result="back"/>
					<feBlend  in="SourceGraphic" in2="back" mode="normal"/>
				</filter>
			</defs>
			<mask maskUnits="userSpaceOnUse" x="725.5" y="243.2" width="337.6" height="85.2" id="SVGID_3_">
				<g filter="url(#Adobe_OpacityMaskFilter_2_)">
					<image overflow="visible" width="343" height="90" xlink:href="AF71F6F6.jpg"  transform="matrix(1 0 0 1 722.6285 240.6667)">
					</image>
				</g>
			</mask>
			<g mask="url(#SVGID_3_)">
				<path fill="#A4A5A7" d="M1019.9,248.3c-1.9-3.1-6.4-5.1-11.2-5.1H894.3l0,0H780c-4.9,0-9.3,2-11.2,5.1l-42.3,68.3
					c-3.5,5.6,2.5,11.8,11.2,11.8h156.6l0,0h156.6c8.8,0,14.7-6.2,11.2-11.8L1019.9,248.3z"/>
			</g>
		</g>
		<g>
			<path fill="#C63427" d="M1010.6,318.2H778.1c-1.8,0-3.3-1.5-3.3-3.3v-15.4h239.1v15.4C1013.9,316.7,1012.4,318.2,1010.6,318.2z"
				/>
			<path fill="#D0574C" d="M983.2,249c-1.4-2.2-4.5-3.6-8-3.6h-80.9l0,0h-80.9c-3.5,0-6.6,1.4-8,3.6l-29.9,48.4
				c-2.4,4,1.7,8.3,8,8.3h110.9l0,0h110.9c6.2,0,10.4-4.4,8-8.3L983.2,249z"/>
			<path fill="#C63427" d="M909.8,37.4h-15.5h-15.5L820.3,266c0,0,20.2,30.7,74,30.7c53.8,0,74-30.7,74-30.7l0,0L909.8,37.4z"/>
			<ellipse fill="#9B2E1E" cx="894.3" cy="37.4" rx="15.5" ry="2.2"/>
			<path fill="#F9EBE9" d="M940.7,158l-8.2-32.1c-10.2,3.7-22.8,6.3-38.1,6.3c-15.4,0-27.9-2.6-38.1-6.3L848,158
				c11.4,5.4,26.6,9.7,46.4,9.7C914.1,167.7,929.3,163.4,940.7,158z"/>
			<path fill="#F9EBE9" d="M870.8,68.7l-6.4,25c8.5,1.7,18.4,2.7,29.9,2.7c11.5,0,21.4-1.1,29.9-2.7l-6.4-25c-7,1-14.8,1.6-23.5,1.6
				C885.6,70.3,877.8,69.7,870.8,68.7z"/>
			<path fill="#F9EBE9" d="M950.1,194.8C950.1,194.8,950.1,194.8,950.1,194.8c-13.1,7-31.4,12.9-55.8,12.9
				c-24.4,0-42.7-5.9-55.7-12.9c0,0,0,0-0.1,0l-8.7,34c2.6,2.3,5.5,4.4,8.8,6.2c13.1,7,31.3,12.9,55.7,12.9
				c24.4,0,42.7-5.9,55.7-12.9c3.3-1.8,6.2-3.8,8.8-6.2L950.1,194.8z"/>
		</g>
	</g>
	<g>
		<path fill="#1C9CD6" d="M426,240.6l-27.7-0.9l-1.4,44.7l-47.6-1.5l1.4-44.7l-98.3-3.1l1-31.7L358.7,67.2l44.9,1.4l-4.2,135.6
			l27.7,0.9L426,240.6z M351.8,202.8l1.1-36.6c0.2-6.1,0.7-14.9,1.6-26.5c0.9-11.6,1.5-18.3,1.9-20.2l-1.3,0
			c-4.1,7.9-9.1,15.7-14.8,23.2l-44.1,58.5L351.8,202.8z"/>
		<path fill="#1C9CD6" d="M605.6,182.9c-1.2,37.7-8.6,65.4-22.4,83.1c-13.7,17.7-34.3,26.1-61.7,25.3c-26.6-0.8-46.3-10.8-59.2-29.9
			c-12.9-19.1-18.8-46.9-17.7-83.4c1.2-38.1,8.6-65.9,22.3-83.6c13.7-17.6,34.2-26,61.5-25.2C555,70,574.8,80,587.8,99.3
			C600.8,118.7,606.7,146.5,605.6,182.9z M493,179.4c-0.8,26.5,1,45.5,5.6,57.1c4.5,11.6,12.6,17.6,24.1,18
			c11.3,0.4,19.7-5.2,25.1-16.6c5.4-11.5,8.5-30.3,9.3-56.4c0.8-26.5-1.1-45.6-5.9-57.3c-4.7-11.7-12.7-17.8-23.9-18.1
			c-11.4-0.4-19.8,5.2-25.1,16.6C496.9,134,493.8,152.9,493,179.4z"/>
		<path fill="#1C9CD6" d="M794.2,252l-27.7-0.9l-1.4,44.7l-47.6-1.5l1.4-44.7l-98.3-3.1l1-31.7L726.9,78.7l44.9,1.4l-4.2,135.6
			l27.7,0.9L794.2,252z M720,214.3l1.1-36.6c0.2-6.1,0.7-14.9,1.6-26.5c0.9-11.6,1.5-18.3,1.9-20.2l-1.3,0
			c-4.1,7.9-9.1,15.7-14.8,23.2l-44.1,58.5L720,214.3z"/>
	</g>
	<g>
		<path fill="#3E3E3D" d="M396.5,61.6c-11.5-0.4-20.4-3-26.7-8c-6.3-4.9-9.4-11.8-9.1-20.4c0.3-8.9,3.5-15.8,9.6-20.5
			c6.1-4.7,14.5-6.9,25.1-6.6c10.1,0.3,17.9,2.7,23.4,7.2c5.5,4.5,8.1,10.5,7.9,18.1l-0.2,7.1l-46.1-1.4c0.1,4.1,1.6,7.4,4.6,9.8
			c3,2.4,7.3,3.7,12.8,3.9c4.3,0.1,8.4-0.1,12.2-0.6s7.9-1.5,12.1-2.8l-0.4,11.3c-3.4,1.2-7.1,2-11,2.5
			C406.8,61.6,402.1,61.8,396.5,61.6z M395.2,16.5c-4.1-0.1-7.4,0.7-9.8,2.6c-2.4,1.9-3.8,4.6-4.3,8.2l27.3,0.9
			c0-3.6-1.1-6.4-3.5-8.4C402.5,17.8,399.3,16.7,395.2,16.5z"/>
		<path fill="#3E3E3D" d="M492.3,9.2c2.6,0.1,4.8,0.3,6.6,0.6l-1.9,13.6c-1.6-0.4-3.5-0.6-5.7-0.7c-6.2-0.2-11.1,0.8-14.6,3.1
			c-3.5,2.3-5.4,5.6-5.5,9.9l-0.8,27.2l-19.5-0.6L452.3,9l14.8,0.5l2.6,9.1l1,0c2.3-2.9,5.4-5.2,9.2-7
			C483.7,9.8,487.8,9.1,492.3,9.2z"/>
		<path fill="#3E3E3D" d="M560.8,11.3c2.6,0.1,4.8,0.3,6.6,0.6l-1.9,13.6c-1.6-0.4-3.5-0.6-5.7-0.7c-6.2-0.2-11.1,0.8-14.6,3.1
			c-3.5,2.3-5.4,5.6-5.5,9.9l-0.8,27.2l-19.5-0.6l1.7-53.4l14.8,0.5l2.6,9.1l1,0c2.3-2.9,5.4-5.2,9.2-7
			C552.3,12,556.4,11.2,560.8,11.3z"/>
		<path fill="#3E3E3D" d="M653.6,41.8c-0.3,8.7-3.5,15.4-9.8,20.1c-6.3,4.7-14.9,6.9-25.9,6.6c-6.9-0.2-12.9-1.5-18-3.9
			c-5.2-2.4-9.1-5.8-11.8-10c-2.7-4.3-3.9-9.2-3.8-14.8c0.3-8.7,3.5-15.4,9.8-20.1c6.2-4.6,14.9-6.8,25.9-6.5
			c6.9,0.2,12.9,1.5,18,3.9c5.2,2.4,9.1,5.7,11.8,10C652.5,31.3,653.8,36.2,653.6,41.8z M604.2,40.3c-0.2,5.3,0.9,9.3,3.1,12.1
			c2.2,2.8,6,4.2,11.2,4.4c5.2,0.2,9-1.1,11.3-3.7c2.4-2.6,3.6-6.6,3.8-11.9c0.2-5.3-0.9-9.3-3.1-12c-2.2-2.7-5.9-4.2-11.2-4.3
			c-5.2-0.2-9,1-11.4,3.6C605.7,31.1,604.4,35,604.2,40.3z"/>
		<path fill="#3E3E3D" d="M719.6,16.3c2.6,0.1,4.8,0.3,6.6,0.6l-1.9,13.6c-1.6-0.4-3.5-0.6-5.7-0.7c-6.2-0.2-11.1,0.8-14.6,3.1
			c-3.5,2.3-5.4,5.6-5.5,9.9L697.5,70L678,69.4l1.7-53.4l14.8,0.5l2.6,9.1l1,0c2.3-2.9,5.4-5.2,9.2-7
			C711,16.9,715.2,16.1,719.6,16.3z"/>
	</g>
	<g>
		<g>
			
				<rect x="246.2" y="161.2" transform="matrix(0.9989 4.656975e-002 -4.656975e-002 0.9989 9.0216 -24.0397)" fill="#F4D532" width="548.4" height="40.9"/>
		</g>
		<g>
			<polygon fill="#3E3E3D" points="256.6,148.8 247.1,156.2 245.8,184.8 290,150.4 			"/>
			<polygon fill="#3E3E3D" points="333.3,152.4 283.6,191 317,192.6 366.7,154 			"/>
			<polygon fill="#3E3E3D" points="410,156 360.4,194.6 393.7,196.2 443.4,157.5 			"/>
			<polygon fill="#3E3E3D" points="486.7,159.6 437.1,198.2 470.4,199.7 520.1,161.1 			"/>
			<polygon fill="#3E3E3D" points="563.4,163.1 513.8,201.7 547.2,203.3 596.8,164.7 			"/>
			<polygon fill="#3E3E3D" points="640.1,166.7 590.5,205.3 623.9,206.9 673.5,168.3 			"/>
			<polygon fill="#3E3E3D" points="716.9,170.3 667.2,208.9 700.6,210.5 750.2,171.8 			"/>
			<polygon fill="#3E3E3D" points="795.3,173.9 793.6,173.9 743.9,212.5 777.3,214 794.1,201 			"/>
		</g>
	</g>
</g>
</svg>
