<?xml version="1.0" encoding="utf-8"?>
<!-- Generator: Adobe Illustrator 18.0.0, SVG Export Plug-In . SVG Version: 6.00 Build 0)  -->
<!DOCTYPE svg PUBLIC "-//W3C//DTD SVG 1.1//EN" "http://www.w3.org/Graphics/SVG/1.1/DTD/svg11.dtd">
<svg version="1.1" id="Слой_1" xmlns="http://www.w3.org/2000/svg" xmlns:xlink="http://www.w3.org/1999/xlink" x="0px" y="0px"
	 viewBox="0.2 7.2 15.1 15.6" enable-background="new 0.2 7.2 15.1 15.6" xml:space="preserve">
<title>angle-double-right</title>
<path fill="#FFFFFF" d="M6.4,14.6l7.3-7.3c0.1-0.1,0.2-0.2,0.4-0.2s0.3,0.1,0.4,0.2l0.8,0.8c0.1,0.1,0.2,0.2,0.2,0.4
	s-0.1,0.3-0.2,0.4L9,15l6.1,6.1c0.1,0.1,0.2,0.2,0.2,0.4s-0.1,0.3-0.2,0.4l-0.8,0.8c-0.1,0.1-0.2,0.2-0.4,0.2s-0.3-0.1-0.4-0.2
	l-7.3-7.3c-0.1-0.1-0.2-0.2-0.2-0.4C6.2,14.9,6.3,14.7,6.4,14.6z M0.4,14.6l7.3-7.3C7.7,7.3,7.9,7.2,8,7.2c0.1,0,0.3,0.1,0.4,0.2
	l0.8,0.8c0.1,0.1,0.2,0.2,0.2,0.4S9.2,8.8,9.1,8.9L3,15l6.1,6.1c0.1,0.1,0.2,0.2,0.2,0.4s-0.1,0.3-0.2,0.4l-0.8,0.8
	c-0.1,0.1-0.2,0.2-0.4,0.2c-0.1,0-0.3-0.1-0.4-0.2l-7.3-7.3c-0.1-0.1-0.2-0.2-0.2-0.4C0.2,14.9,0.3,14.7,0.4,14.6z"/>
</svg>
