<?xml version="1.0" encoding="utf-8"?>
<!-- Generator: Adobe Illustrator 18.0.0, SVG Export Plug-In . SVG Version: 6.00 Build 0)  -->
<!DOCTYPE svg PUBLIC "-//W3C//DTD SVG 1.1//EN" "http://www.w3.org/Graphics/SVG/1.1/DTD/svg11.dtd">
<svg version="1.1" id="Слой_1" xmlns="http://www.w3.org/2000/svg" xmlns:xlink="http://www.w3.org/1999/xlink" x="0px" y="0px"
	 viewBox="-5117.4 -2037.2 12279.5 4742.5" enable-background="new -5117.4 -2037.2 12279.5 4742.5" xml:space="preserve">
<path fill="#FFFFFF" d="M617.9,762.8c368.1-79.7,736.7-157.1,1104.8-237.1c456.7-99.3,917.2-159.5,1383.9-189.5
	c386.5-24.8,735.7,75.4,1076,241.7c96.8,47.3,196,89.7,291.4,139.6c161.6,84.5,334.2,114.2,513.2,122.8
	c403,19.4,802.9,67.3,1197.2,155.7c257.4,57.7,508.9,135.4,731.2,287.1c59.8,40.8,117,87.2,168.8,138c76,74.4,99.7,160.9,55.6,267.9
	c-43,104.2-39.3,214.4,1.6,320.9c23.8,62,15.5,96.6-41.1,98.6c-167.3,5.7-335,2-502.5,2c-0.7-5.8-1.4-11.7-2-17.5
	c150.9-12.7,301.9-25.4,453.1-38.2c-4.3-81.1-15.5-158.8-10.3-235.4c4.8-69.7,30.6-137.6,40.9-207.2c5.1-34.2,9.6-85.2-9.1-103.5
	c-71.7-70.2-145.9-143.4-231.9-191.6c-347-194.4-726.7-283.9-1115.8-328.4c-304.3-34.8-610.3-54.5-915.8-78.2
	c-140.8-11-267-66.4-392.8-124.3c-175.7-80.8-350.1-164.3-526.6-243c-287.4-128.1-589.5-132-896.3-115.7
	c-593.5,31.5-1169.1,166.2-1746.8,294.3c-215.1,47.7-435.3,71.5-659.5,107.2L617.9,762.8L617.9,762.8z"/>
<path fill="#FFFFFF" d="M3113.5,1284.6h-51.8c-9.4,0-18,1.1-25.7,3.2c-6.7,1.9-13,4.5-19,8c-2.3,2.6-4,5.8-5.3,9.5l0,0.1
	c-1.9,5.5-2.9,12.4-2.9,20.7v832.4c0,64-13.8,125.1-41.2,183.5c-27.2,57.8-67.7,112.4-121.4,164c-54,51.7-114.1,90.5-180.3,116.5
	c-66.1,25.9-137.9,38.9-215.5,38.9c-85.7,0-163-11.5-231.7-34.3c-69.3-23.1-129.5-57.7-180.8-104l0,0.1
	c-51.4-46.3-90.1-99.3-116-159c-25.9-59.6-38.8-125.4-38.8-197.3v-840.9c0-8.5-1-15.4-2.8-21c-1.5-4.3-3.6-7.9-6.3-10.7
	c-3-2.7-7.5-4.9-13.5-6.6c-7.8-2.1-17.8-3.2-30.3-3.2h-51.5c-13.6,0-24.6-11-24.6-24.6v-49.2c0-13.6,11-24.6,24.6-24.6h396
	c13.6,0,24.6,11,24.6,24.6v49.2c0,13.6-11,24.6-24.6,24.6H2123c-9.4,0-18,1.1-25.7,3.2c-6.7,1.9-13,4.5-19,8c-2.3,2.6-4,5.8-5.3,9.5
	c-1.9,5.5-2.9,12.4-2.9,20.8V2167c0,60.5,8.2,114.1,24.5,160.8c16.1,46,40.1,85.5,72.1,118.6l0.1,0.1c31.6,32.8,72,57.6,121.3,74.2
	c50.4,17,110.3,25.5,179.5,25.5c74.5,0,139-10.5,193.6-31.3c53.4-20.5,97.4-51.1,131.9-91.8l0.7-0.7c38.3-44.6,66.9-89,85.9-133.3
	c18.8-43.5,28.1-87,28.1-130.4v-832.4c0-8.5-1-15.4-2.8-21c-1.5-4.3-3.6-7.9-6.3-10.7c-3-2.7-7.5-4.9-13.5-6.6
	c-7.7-2.1-17.7-3.2-29.9-3.2h-51.8c-13.6,0-24.6-11-24.6-24.6v-49.2c0-13.6,11-24.6,24.6-24.6h310.1c13.6,0,24.6,11,24.6,24.6v49.2
	C3138.1,1273.6,3127.1,1284.6,3113.5,1284.6L3113.5,1284.6L3113.5,1284.6z M4530.1,1547.9L4530.1,1547.9l-43,8.5
	c-12.4,2.4-24.5-5-28.2-16.8c-22.3-55.8-42.5-101.8-60.8-138.1c-17.8-35.5-33.3-60.7-46.3-75.7l-0.9-1.1
	c-8.5-9.7-23.1-17.9-43.8-24.5c-23.6-7.5-54.3-12.7-92-15.4h-215c-4.7,0-7.5,0.5-8.5,1.3c-0.7,0.8-1,3.2-1,7.1V2505
	c0,8.3,0.9,15.3,2.8,20.8c1.2,3.6,2.8,6.7,4.8,9c6,3.5,12.5,6.3,19.3,8.1c7.7,2.1,16.3,3.2,25.7,3.2h77.5c13.6,0,24.6,11,24.6,24.6
	v49.6c0,13.6-11,24.6-24.6,24.6H3673c-13.6,0-24.6-11-24.6-24.6v-49.6c0-13.6,11-24.6,24.6-24.6h77.5c12.3,0,22.3-1.1,29.9-3.2
	c6.1-1.7,10.7-3.9,13.6-6.7c2.8-2.8,5-6.4,6.5-10.7c1.9-5.5,2.9-12.3,2.9-20.6V1293.1c0-4-0.4-6.3-1.1-7l-0.3-0.3
	c-1.3-0.8-4.1-1.1-8.5-1.1h-189.3c-38,2.7-70.4,7.9-96.9,15.5v0.1c-25.6,7.3-45.7,16.9-60.4,28.5l-1,0.7
	c-11.3,9.1-25.2,30.2-41.8,63.3c-18.1,36-38.5,85.3-61.2,147.7c-4.1,11.3-15.6,17.7-27,15.8l-51.8-8.4
	c-13.4-2.2-22.5-14.8-20.3-28.2l0.4-1.9l77.5-313c2.8-11.2,12.8-18.7,23.8-18.7v-0.1h1110.6c12.5,0,22.9,9.4,24.4,21.5l68.6,310.8
	c2.9,13.2-5.5,26.3-18.7,29.2L4530.1,1547.9L4530.1,1547.9L4530.1,1547.9L4530.1,1547.9z M5964.8,1384.5L5964.8,1384.5
	c62.2,73.7,108.9,154.5,140,242.5c31.1,87.9,46.7,182.8,46.7,284.3c0,112.7-17,214.5-51,305.3c-34.2,91.3-85.6,171.2-154.3,239.6
	l0.1,0c-68.3,68.3-145.7,119.5-232.2,153.9c-86.3,34.2-181.1,51.3-284.5,51.3c-100.5,0-193.9-17.2-280.2-51.4
	c-86.2-34.2-164.9-85.4-236-153.5c-68.8-65.7-120.5-144.3-154.8-235.7c-34.2-90.8-51.3-194-51.3-309.6c0-109.9,16.3-209.5,49-299
	c32.8-89.8,82-169,147.5-237.4c65.7-68.5,142.5-119.9,230.7-154.1c87.6-34.1,186-51.1,295.1-51.1c114.9,0,217,17.8,306.1,53.3
	c89.8,35.8,166,89.5,228.8,161.2L5964.8,1384.5L5964.8,1384.5L5964.8,1384.5z M5791.3,2413.1L5791.3,2413.1
	c48.5-46.6,85.1-111.2,109.8-193.7c25.1-84.2,37.7-186.8,37.7-308.1c0-96.8-11.1-183.9-33.4-261.2c-22.1-76.6-55.2-143.9-99.3-201.8
	l-0.9-1.3c-43.3-56.6-95.8-99-157.6-127.4c-62.6-28.7-135.3-43-218-43c-68.5,0-132.7,13-192.5,39.1
	c-60.2,26.2-116.5,65.7-168.8,118.5c-49,49.3-85.7,113.3-110.3,191.9c-25,79.9-37.5,175-37.5,285.3c0,115.8,13.2,215,39.6,297.5
	c25.9,81.1,64.7,146.4,116.3,195.8l0.7,0.7c52.3,52.8,107.9,92.2,166.8,118.4c58.4,26,120.4,39,185.9,39
	c71.4,0,137.1-12.5,197.1-37.3c60.1-24.8,114.9-62.2,164.3-112L5791.3,2413.1z"/>
<path fill="#FFFFFF" d="M2051.7-1490.4c62.2,73.7,108.8,154.6,140,242.5c31.1,87.9,46.7,182.8,46.7,284.3c0,112.7-17,214.5-51,305.3
	c-34.3,91.3-85.6,171.1-154.3,239.6l0,0c-68.3,68.2-145.6,119.5-232.2,153.9c-86.3,34.2-181.1,51.3-284.5,51.3
	c-100.4,0-193.8-17.1-280-51.3c-86.3-34.2-165-85.4-236.1-153.5C931.4-484,879.8-562.6,845.4-654c-34.2-90.8-51.3-194-51.3-309.6
	c0-220.7,65.5-399.8,196.5-536.4c65.7-68.5,142.5-119.9,230.6-154.1c87.7-34.1,186-51.1,295.1-51.1c114.9,0,217,17.8,306.2,53.4
	c89.8,35.8,166,89.5,228.8,161.2L2051.7-1490.4L2051.7-1490.4z M1878.2-461.8L1878.2-461.8c48.5-46.6,85.1-111.2,109.7-193.7
	c25.1-84.2,37.7-186.8,37.7-308.1c0-96.8-11.1-184-33.4-261.2c-22-76.6-55.2-143.9-99.3-201.8l-1-1.3
	c-43.2-56.6-95.8-99-157.5-127.4c-62.7-28.7-135.3-43.1-218-43.1c-68.5,0-132.7,13-192.5,39.1c-60.3,26.2-116.5,65.8-168.9,118.6
	c-48.9,49.3-85.7,113.3-110.3,191.8c-25,79.9-37.5,175-37.5,285.3c0,115.8,13.2,215,39.6,297.5c26,81.1,64.7,146.3,116.3,195.7
	l0.6,0.7c52.4,52.8,108,92.2,166.8,118.4c58.4,26,120.4,39,185.9,39c71.4,0,137.2-12.4,197.2-37.2c60.1-24.8,114.9-62.2,164.2-112
	L1878.2-461.8L1878.2-461.8z M3652.1-230L3652.1-230h-241.4c-10.3,0-19.1-6.3-22.8-15.3l-362-693.7h-270.7v569
	c0,8.4,0.9,15.3,2.8,20.7c1.2,3.6,3,6.7,5.2,9.1c6,3.5,12.4,6.3,19.2,8.1c7.7,2.1,16.3,3.2,25.8,3.2h51.4c13.6,0,24.6,11,24.6,24.6
	v49.6c0,13.6-11,24.6-24.6,24.6h-396c-13.6,0-24.6-11-24.6-24.6v-49.6c0-13.6,11-24.6,24.6-24.6h51.8c12.3,0,22.4-1.1,30.1-3.2
	c6-1.7,10.5-3.8,13.2-6.4l1-0.9c2.4-2.6,4.4-6,5.8-10.1c1.9-5.5,2.9-12.4,2.9-20.6v-1178.8c0-8.4-1-15.3-2.9-20.8
	c-1.6-4.5-3.9-8.3-6.8-11.2c-2.7-2.6-7.1-4.8-13.1-6.4c-7.7-2.1-17.8-3.2-30.1-3.2h-51.8c-13.6,0-24.6-11-24.6-24.6v-49.3
	c0-13.6,11-24.6,24.6-24.6h602.9c76.2,0,145.4,7.1,207.6,21.3c62.8,14.3,118.3,35.8,166.5,64.6c49.6,29.7,87,67.1,112.1,112.1
	c25.1,45,37.6,97.1,37.6,156.2c0,58.6-10.8,110.9-32.5,156.9c-21.6,45.9-54,85.2-97.2,117.8c-39.2,31.8-82.8,57.7-130.9,77.8
	c-37.8,15.8-78.3,28-121.4,36.7l327.2,571.3c0.5,0.8,0.9,1.7,1.3,2.5c4.6,8.6,9.1,15.6,13.5,20.9c3.3,4,6.1,6.6,8.4,7.6
	c1.3,0.6,2.5,1.3,3.6,2.1c13,8,25.6,12.2,37.9,12.2h51.8c13.6,0,24.6,11,24.6,24.6v49.6C3676.7-241,3665.7-230,3652.1-230
	L3652.1-230L3652.1-230z M3293.9-1107.8L3293.9-1107.8c33.6-22.2,58.8-50.5,75.5-84.9c17-35,25.5-76.8,25.5-125.3
	c0-42.8-8.5-80.9-25.3-114.5c-16.9-33.5-42.4-63-76.4-88.2l0,0c-31.9-22.9-70.8-40.2-116.6-51.8c-46.8-11.8-100.7-17.8-161.8-17.8
	h-206.5c-9.5,0-18.1,1.1-25.8,3.2c-6.8,1.9-13.1,4.5-19,8c-2.3,2.7-4,5.8-5.3,9.4c-1.9,5.4-2.8,12.4-2.8,20.9v511h276.6
	c55.4,0,105-5.9,148.8-17.7c43.1-11.6,80.6-28.9,112.4-51.8L3293.9-1107.8z M4941.2-568.7L4941.2-568.7l-77.1,319.9
	c-2.8,11.2-12.8,18.8-23.8,18.8v0.1H3781c-13.6,0-24.6-11-24.6-24.6v-49.6c0-13.6,11-24.6,24.6-24.6h60.3c12.3,0,22.3-1.1,30.1-3.2
	c6-1.7,10.4-3.8,13.1-6.4l1-0.9c2.4-2.6,4.4-6,5.8-10.1c1.9-5.5,2.9-12.4,2.9-20.6v-1178.8c0-8.4-1-15.3-2.9-20.8
	c-1.6-4.5-3.9-8.3-6.8-11.2c-2.8-2.6-7.1-4.8-13.1-6.4c-7.8-2.1-17.8-3.2-30.1-3.2h-51.8c-13.6,0-24.6-11-24.6-24.6v-49.3
	c0-13.6,11-24.6,24.6-24.6h404.9c13.6,0,24.6,11,24.6,24.6v49.3c0,13.6-11,24.6-24.6,24.6h-60.3c-9.5,0-18.1,1.1-25.8,3.2
	c-6.8,1.9-13.2,4.6-19.2,8.1c-2.2,2.5-3.9,5.6-5.2,9.3c-1.9,5.4-2.8,12.4-2.8,20.9v1178.8c0,8.4,0.9,15.3,2.8,20.7
	c1.2,3.6,3,6.7,5.2,9.1c6,3.5,12.3,6.3,19.1,8.1c7.7,2.1,16.3,3.2,25.8,3.2h404.5c34.7,0,67.9-5.7,99.6-17
	c31.8-11.4,62.5-28.7,92-51.9l0.2-0.1c26.2-22.9,49.3-50.9,69.2-84c20.5-34,37.6-73.4,51.3-118c4-12.9,17.7-20.2,30.7-16.2l44.9,17
	C4938.7-594.3,4945-581,4941.2-568.7L4941.2-568.7L4941.2-568.7z M6139.8-1501.1L6139.8-1501.1c79.8,62.6,139.8,136.7,180,222.1
	c40.4,85.9,60.5,182.8,60.5,290.8c0,126.8-20,237.8-60.2,332.9c-40.3,95.8-100.9,175.2-181.5,238.3
	c-77.3,62.8-174.3,109.7-291,140.8c-115.5,30.8-250.3,46.3-404.5,46.3h-361.9c-13.6,0-24.6-11-24.6-24.6v-49.6
	c0-13.6,11-24.6,24.6-24.6h51.8c12.3,0,22.4-1.1,30.1-3.2c6-1.7,10.4-3.8,13.1-6.4l0.1-0.1c2.8-2.8,5.1-6.4,6.7-10.9
	c1.9-5.5,2.9-12.4,2.9-20.6v-1178.8c0-8.4-1-15.3-2.9-20.8c-1.6-4.5-3.9-8.3-6.8-11.2c-2.8-2.6-7.1-4.8-13.1-6.4
	c-7.7-2.1-17.8-3.2-30.1-3.2h-51.8c-13.6,0-24.6-11-24.6-24.6v-49.3c0-13.6,11-24.6,24.6-24.6h387.6c142.8,0,269.8,15.5,381.1,46.3
	c112.3,31.1,208.3,77.8,288.3,140L6139.8-1501.1z M5980.5-481.1L5980.5-481.1c61.7-49.3,108.2-114.2,139.3-194.6
	c31.8-82.2,47.8-180.9,47.8-296c0-93-15.8-177.2-47.5-252.3c-31.6-75-79.1-141.5-142.4-199.4l0,0c-60.6-55.3-133.2-97-217.5-124.8
	c-85-28.1-182.1-42.1-291.3-42.1c-18.6,0-35,1.3-49.3,3.8l-0.8,0.1c-12.7,2.3-23.5,5.5-32.7,9.5c-4.2,3-7.4,6.5-9.5,10.5
	c-2.4,4.6-3.6,10.5-3.6,17.5v1178.8c0,7.1,1.2,12.9,3.5,17.5c2.3,4.3,5.8,8,10.7,11c6.4,4.1,14.1,7.2,23,9.3
	c9.4,2.2,20.4,3.4,33,3.4c118.3,0,222.3-12.7,311.9-38.1c88.5-25.1,163-62.7,223.5-112.7L5980.5-481.1L5980.5-481.1L5980.5-481.1z"
	/>
<path fill="#1B9CD6" d="M1327.4,2454.9h-49.8c-15.8,0-30.2-4.4-43.2-10.8c-13.5-6.7-26.5-17.8-38.9-32.2c-2.1-2.4-4.4-4.9-6.9-6.9
	c-11.2-8.8-22-23.6-32.4-43c-12-22.3-23-48.7-32.9-86.2h0L122.9-777.8c-3.4-10.2-9.3-18.3-16.8-24.2l225.3-718.9
	c0.6-1.9,1.2-3.7,1.7-5.7c7.3-29,17.8-55.9,31.5-80.8c12.7-22.8,28.4-44.2,47.1-64.3c18.3-12,35.1-19.7,50.3-26
	c12-5,21.6-5.9,28.8-5.9h102.2l-0.2-1.6c40.8,0,73.6-34.6,73.6-75.4v-156.7c0-40.8-32.6-70.6-73.3-70.6h-763.9
	c-40.8,0-75.3,29.8-75.3,70.6v156.7c0,40.8,34.5,77,75.3,77h76.1c25.4,0,46.9,1.5,64.6,7.6c14.5,5,26.4,11.1,35.6,20
	c13.5,14.3,21.4,32.1,23.7,51c2.8,23.3-2,50.7-14.3,84h0.1l-1.5,2.8l-998.1,3133.2l-949.5-3185.2c-5.7-24.2-7.3-44.1-4.7-59.8
	c1.8-10.8,6-19.6,12.7-26.5c8.9-9.2,20.5-14.8,34.8-19.7c17-5.9,38.6-7.3,64.5-7.3h76.1c40.8,0,71.3-36.2,71.3-77v-156.7
	c0-40.8-30.6-70.6-71.3-70.6h-942.1c-40.8,0-74.1,29.8-74.1,70.6v156.7c0,40.8,33.3,77,74.1,77h102.1c5.2,0,11,0.1,17.3,3.3
	c9.8,5,20.1,12.3,31,23.3l0.2-0.1c11.7,12.4,22.2,27.9,31.5,47.2c10.4,21.5,19.3,47.1,26.8,77.4l0-0.1l96.7,347.6l-914.8,2800.7
	l-949.7-3185.4c-5.5-24.8-7.1-45-4.5-60.9c1.7-10.8,5.8-19.4,12.3-26.1c8.9-9.2,20.5-14.7,34.8-19.7c17-5.9,38.6-7.3,64.6-7.3h77.1
	c40.8,0,71.3-36.2,71.3-77v-156.7c0-40.8-30.6-70.6-71.3-70.6h-943.2c-40.8,0-77.2,29.8-77.2,70.6v156.7c0,40.8,36.4,77,77.2,77
	h102.1c13.8,0,23.7,0.1,30,3.3c2.2,1.2,4,2,5.4,4.2c3.3,6.9,7.6,13.1,13.2,19c11.6,12.4,22.3,28,31.8,47.5
	c10.5,21.5,19.3,46.7,26.1,75.9l1.1,4.3l1220.9,4166.1c7.1,33.3,36.8,58.9,72.2,58.9h153.4v-1.7c29.2,0,60-20,70-51.3l1049.1-3291.5
	l973.3,3285.8c7.2,33.2,36.7,58.8,72.1,58.8h152.3v-1.5c29.2,0,61-19.9,70.8-51.5l371.6-1184.5H445.1l271,813.9
	c17.9,63.8,18.6,114.8,2,153.3c-1.5,3.4-2.6,7-3.4,10.8c-2.3,11.3-7.4,20.8-15.2,25.9c-11.8,7.8-30.1,12.8-54.9,12.8h-66.8
	c-26.3,0-48.9,21.1-48.9,50.2v116.2c0,29,22.5,54.5,48.9,54.5h749.6c26.3,0,47.3-25.4,47.3-54.5v-116.2
	C1374.7,2476.1,1353.7,2454.9,1327.4,2454.9L1327.4,2454.9z M-526,1217.4L-526,1217.4L-88.6-178.8l465.3,1396.2H-526L-526,1217.4z"
	/>
<path fill="#FFFFFF" d="M1327.4,2484.5h-49.8c-10.4,0-20.5-1.5-30.2-4c-9.4-2.5-18.1-5.9-26.2-9.9c-0.6-0.3-1.1-0.6-1.7-0.9
	c-8.3-4.3-16.3-9.7-24-16.1c-7.6-6.4-15.1-13.9-22.4-22.4c-0.7-0.8-1.4-1.6-2.1-2.3l-0.6-0.6c-0.4-0.3-0.8-0.6-1.2-1
	c-7.3-5.9-14.1-13.2-20.5-21.6c-6.4-8.5-12.6-18.4-18.6-29.7c-6.5-12-12.7-25.2-18.7-40.8c-5.6-14.5-11-30.7-16-49.3
	c-0.3-0.9-0.6-1.8-0.8-2.8L94.9-768.5l0,0c-0.8-2.4-1.7-4.3-2.8-5.9c-1.3-1.9-2.7-3.4-4.2-4.6c-9.7-7.8-13.2-20.5-9.7-31.7l-0.1,0
	l225.3-718.9c0.2-0.8,0.5-1.5,0.8-2.2l0.1-0.3c0.3-0.8-0.2,0.5,0.3-1.6l0.3-1.1c3.9-15.2,8.6-30,14.2-44.3
	c5.7-14.5,12.3-28.6,19.9-42.3c7-12.6,14.8-24.7,23.3-36.3c8.5-11.6,17.9-22.9,28-33.8c1.7-1.8,3.5-3.3,5.4-4.6l0,0
	c9.7-6.3,19.5-11.8,29.3-16.7c9.8-4.9,18.2-8.6,25.8-11.8c0.6-0.2,1.1-0.5,1.7-0.6c7.8-3.1,14.6-5,20.6-6c6.8-1.2,12.7-1.6,17.8-1.6
	h92.6c1.7-0.6,3.4-1,5.2-1.2c1.4-0.2,2.8-0.3,4.2-0.3v0c12,0,22.8-5.1,30.7-13.2c8.2-8.4,13.3-20.1,13.3-32.7v-156.7
	c0-11.8-4.5-21.9-11.9-29c-7.9-7.5-19.1-12-31.9-12h-763.9c-13.1,0-25,4.7-33.4,12.5c-7.6,7.1-12.3,17-12.3,28.5v156.7
	c0,12.6,5.5,24.6,14.1,33.5c8.3,8.5,19.6,14,31.6,14h76.1c13.2,0,25.8,0.4,38.2,1.7c13.1,1.4,25.1,3.7,36,7.5c0.5,0.2,1,0.4,1.5,0.5
	c8.3,2.9,15.9,6.2,23,10.1c8.1,4.5,15.4,9.7,22,16c0.4,0.4,0.7,0.7,1,1c8.9,9.4,16,20,21.2,31.3c5.4,11.5,8.8,23.8,10.3,36.4
	c1.7,14.5,1.1,29.9-1.7,46.7c-2.6,15-7,31-13.2,48.3c-0.7,2.7-1.8,5.2-3.1,7.5L-956.8,1604c-4.9,15.5-21.4,24-36.9,19.1
	c-9.6-3-16.6-10.6-19.3-19.6l-0.1,0l-949.5-3185.2c-0.2-0.6-0.3-1.1-0.5-1.7c-3.2-13.5-5.2-26-6.1-37.5c-1-12.2-0.6-23.4,1.1-33.6
	c1.3-8.1,3.7-15.7,7-22.7c3.5-7.4,8.1-13.9,13.6-19.6c6.6-6.8,14.1-12.2,22.4-16.8c7.5-4.1,15.3-7.3,23.8-10.2l0.1,0l0-0.1
	c10.6-3.7,22.4-5.9,35.5-7.3c12.5-1.3,25.2-1.7,38.6-1.7h76.1c11.3,0,21.3-5,28.7-12.9c8.2-8.9,13.1-21.2,13.1-34.5v-156.7
	c0-12.1-4.3-22.4-11.5-29.5c-7.3-7.3-17.9-11.6-30.3-11.6h-942.1c-12.9,0-24.5,4.6-32.5,12.3c-7.4,7.1-12,17.1-12,28.8v156.7
	c0,12.8,5.3,24.9,13.8,33.8c8,8.3,18.9,13.7,30.7,13.7h102.1c3.5,0,7.4,0,12.5,0.8c5.6,0.8,11.7,2.5,18.2,5.9l0.1,0l0,0
	c6.1,3.2,12.5,7.1,19.1,12c5.4,4,10.9,8.6,16.4,14c1.3,1,2.5,2,3.6,3.2l0,0c6.9,7.3,13.4,15.5,19.6,24.8c6.1,9.1,11.7,19,16.9,29.8
	c5.6,11.5,10.8,24.4,15.8,38.7c4.6,13.4,8.8,27.5,12.5,42.2c0.3,0.9,0.6,1.9,0.8,2.8l96.3,346.2c1.6,5.8,1.4,11.6-0.4,17l0,0
	L-3274.1,1605c-5,15.5-21.7,23.9-37.1,18.9c-9.6-3.1-16.5-10.7-19.1-19.6h0L-4280-1581.1c-0.4-1.4-0.7-2.8-0.9-4.2
	c-2.9-13.3-4.7-25.2-5.5-35.8c-0.9-12.3-0.6-23.5,1.1-33.9c1.3-8.2,3.6-15.7,6.8-22.5c3.4-7.3,7.9-13.7,13.5-19.5
	c6.8-7,14.2-12.4,22.4-16.9c7-3.8,15-7,23.8-10.1l0.1,0l0-0.1c10.6-3.6,22.5-5.9,35.6-7.2c12.5-1.3,25.2-1.7,38.5-1.7h77.1
	c11.3,0,21.3-5,28.7-12.9c8.2-8.9,13.1-21.2,13.1-34.5v-156.7c0-12.1-4.3-22.4-11.5-29.5c-7.3-7.3-17.9-11.6-30.3-11.6h-943.2
	c-13.5,0-26.1,4.9-35,13c-7.7,7.1-12.7,16.8-12.7,28v156.7c0,12.3,5.7,24,14.5,32.9c8.9,8.9,20.8,14.6,33.1,14.6h102.1
	c7.5,0,13.9,0,20.2,0.6c8.6,0.7,16.2,2.5,23.3,6.1c0.6,0.3,1.2,0.6,1.7,1c5.3,2.9,10,5.6,15.1,13.6c1,1.5,1.8,3.1,2.4,4.7
	c0.7,1.2,1.5,2.6,2.6,4.1c1.4,2.1,3,4,4.7,5.8c6.8,7.3,13.4,15.5,19.7,24.9c6.2,9.3,12,19.2,17.2,29.9c0.4,0.8,0.7,1.5,1,2.3
	c5.6,11.6,10.5,23.7,14.8,36.1c4.6,13.3,8.7,27.9,12.5,43.9l0.1,0.4l0.8,2.9l1220.8,4165.5c0.2,0.7,0.4,1.4,0.5,2.1l0.1,0
	c2.2,10.2,7.9,19.2,15.7,25.6c7.5,6.2,17.2,9.9,27.6,9.9h143.5c3.1-1.1,6.4-1.7,9.9-1.7c0.6,0,1.3,0,1.9,0.1
	c8.1-0.4,16.6-3.6,23.9-9c7.3-5.3,13.1-12.8,16-21.8c0.3-0.8,0.6-1.7,0.9-2.5l1048.3-3289.1c4.9-15.5,21.4-24,36.9-19.1
	c9.7,3.1,16.7,10.7,19.3,19.7l0,0l973.3,3285.8c0.2,0.7,0.4,1.4,0.5,2.1l0,0c2.2,10.2,7.9,19.3,15.7,25.6c7.5,6.1,17.1,9.8,27.5,9.8
	h143.1c2.9-1,6-1.5,9.3-1.5c9,0,18.6-3.3,26.7-9.2c7.3-5.3,13.2-12.7,16-21.5l371.6-1184.5c3.9-12.6,15.6-20.7,28.1-20.7v0H445.1
	c14,0,25.8,9.8,28.8,22.9L744,2242.9l0.4,1.3l0.1,0c9.6,34.2,14.6,65.5,15,93.7c0.4,29.8-4.3,56.2-14.2,79.2c-0.6,1.5-1,2.3-1.1,2.5
	c-0.2,0.5-0.4,1.4-0.6,2.6c-0.1,0.6-0.3,1.2-0.4,1.8c-1.8,8.2-4.8,15.9-8.7,22.7c-4.8,8.1-11,15-18.6,20c-9,5.9-20,10.7-33.1,13.7
	c-11.2,2.6-23.9,4.1-38.1,4.1h-66.8c-5.3,0-10.2,2.1-13.7,5.7c-3.5,3.6-5.7,8.8-5.7,15v116.2c0,7.2,2.7,13.8,7,18.6
	c3.5,3.9,7.9,6.3,12.3,6.3h749.6c4,0,7.9-2.2,11-5.8c4.2-4.8,6.8-11.7,6.8-19.2v-116.2c0-6.5-2.1-11.9-5.5-15.5
	C1336.7,2486.4,1332.4,2484.5,1327.4,2484.5L1327.4,2484.5z M1277.7,2425.4h49.8c21.6,0,41.2,8.9,55.2,23.8
	c13.4,14.2,21.6,33.7,21.6,55.9v116.2c0,21.9-8.1,42.5-21.3,57.7c-14,16.1-33.5,26.3-55.5,26.3H577.8c-21.8,0-41.8-10.2-56.2-26.2
	c-13.6-15.2-22.2-35.8-22.2-57.8v-116.2c0-22.3,8.7-41.8,22.5-56c14.5-14.8,34.4-23.7,55.9-23.7h66.8c9.7,0,18-0.9,24.7-2.5
	c6.1-1.4,10.8-3.3,14-5.4l0.4-0.7c0.8-1.4,1.5-3.2,2-5.3l0.3-1.4c0.5-2.5,1.3-5.3,2.2-8.3c1.1-3.4,2.1-6.1,2.9-8.1
	c6.7-15.5,9.9-33.9,9.6-55.2c-0.3-22.8-4.6-49-12.9-78.5l0,0l-263.8-792.3h-997.6l-365.1,1163.8c-6.8,21.7-20.6,39.3-37.6,51.8
	c-15,10.9-32.6,17.8-50.2,19.9c-3.4,1.4-7.1,2.1-11.1,2.1h-152.3c-24.4,0-46.9-8.7-64.6-23.2c-18-14.6-31-35.1-36.1-58.3
	l-945.6-3192.4l-1019.2,3197.9c-0.2,0.8-0.4,1.6-0.6,2.4c-6.8,21.5-20.5,39.1-37.4,51.5c-14.4,10.6-31.4,17.4-48.6,19.6
	c-3.7,1.7-7.8,2.6-12.1,2.6h-153.4c-24.5,0-47-8.8-64.8-23.3c-18-14.7-31-35.3-36.1-58.6L-4829-1540.3c-0.2-0.5-0.3-1-0.5-1.6
	l-0.7-2.8c-0.2-0.7-0.4-1.5-0.6-2.3c-3.1-13.3-6.7-25.9-10.8-37.9c-3.8-11.1-7.8-21-11.9-29.6c-0.4-0.7-0.8-1.4-1.1-2.1
	c-4.3-8.8-8.7-16.5-13.1-23c-4.3-6.4-8.9-12.1-13.7-17.3c-3.9-4.1-7.3-8.2-10.2-12.4c-1-1.4-2-2.9-2.9-4.5c-3.6-0.2-8.4-0.2-14-0.2
	h-102.1c-28.4,0-55.2-12.4-74.7-31.9c-19.5-19.5-32-46.1-32-74.6v-156.7c0-28.7,12.5-53.5,32-71.4c19.7-18,46.5-28.7,74.7-28.7
	h943.2c28.5,0,53.7,10.7,71.8,28.6c18.2,18,29,42.9,29,71.5v156.7c0,28.3-10.9,55-29.1,74.6c-18.1,19.5-43.1,31.9-71.8,31.9h-77.1
	c-12.6,0-23.7,0.3-32.8,1.2c-8.4,0.9-15.8,2.2-22.3,4.5l0-0.1c-5.4,1.9-10.4,3.9-14.9,6.4c-3.4,1.9-6.2,3.8-8.4,6
	c-0.9,1-1.7,2.2-2.4,3.6c-0.9,1.9-1.5,4.1-1.9,6.6c-0.9,5.5-1,12.2-0.4,20.3c0.6,8.5,2,17.8,4.2,27.7l922.7,3094.9l882.7-2702.6
	l-93.7-336.8c-0.4-1-0.6-2-0.9-3c-3.6-14.7-7.4-27.8-11.5-39.4c-4-11.5-8.4-22.2-13.2-32.2c-4.1-8.5-8.4-16-12.8-22.6
	c-3.6-5.4-7.4-10.3-11.4-14.8c-0.7-0.6-1.4-1.2-2-1.9c-4.3-4.4-8.4-7.9-12.4-10.9c-3.7-2.7-7.3-5-10.9-6.8c0,0,0,0,0,0
	c-0.7-0.1-2.3-0.1-4-0.1h-102.1c-28.6,0-54.4-12.4-73.2-31.9c-18.8-19.5-30.4-46.2-30.4-74.6v-156.7c0-28.6,11.6-53.5,30.5-71.5
	c18.9-18,44.8-28.6,73.1-28.6h942.1c28.5,0,53.7,10.7,71.8,28.6c18.1,18,29,42.9,29,71.5v156.7c0,28.3-10.9,55-29.1,74.6
	c-18,19.5-43.1,31.9-71.8,31.9h-76.1c-12.5,0-23.5,0.3-32.6,1.2c-8.4,0.9-15.9,2.3-22.4,4.5l0-0.1c-5.8,2-10.8,4-14.9,6.3
	c-3.2,1.8-6,3.8-8.4,6.1c-1.2,1.2-2.1,2.5-2.8,3.9c-0.9,1.8-1.5,4.1-2,6.8c-0.9,5.4-1,12-0.4,19.8c0.6,8.2,2.2,17.4,4.5,27.7
	l921.9,3092.8L-15.3-1545c0.6-2.5,1.5-5,2.8-7.3l0.2-0.4c5.2-14.4,8.8-27.3,10.8-39c1.9-11.1,2.3-21,1.3-29.8
	c-0.8-6.5-2.5-12.8-5.2-18.6c-2.5-5.4-5.9-10.5-10.1-15.1c-2.5-2.3-5.5-4.4-9-6.3c-4.1-2.2-8.7-4.2-13.9-6l-1.3-0.4
	c-6.8-2.3-14.4-3.8-22.8-4.7c-9.1-1-20-1.3-32.2-1.3h-76.1c-28.5,0-54.7-12.5-73.8-32c-19-19.4-31-46.1-31-74.5v-156.7
	c0-28.7,12-53.5,31-71.4c19.2-18,45.5-28.7,73.8-28.7h763.9c28.3,0,54.1,10.7,72.8,28.7c18.7,17.9,30.1,42.8,30.1,71.4v156.7
	c0,28.4-11.5,54.6-30.2,73.8c-16.1,16.5-37.5,27.7-61.4,30.5c-3.5,1.4-7.3,2.2-11.3,2.2H490.9c-2.1,0-4.6,0.1-7.4,0.6
	c-2.8,0.5-5.9,1.3-9,2.5l-1.1,0.5c-7.6,3.2-15.2,6.5-22.1,10c-6.2,3.1-13,6.9-20.4,11.6c-7.6,8.4-14.7,16.9-21.1,25.7
	c-7.2,9.9-13.7,19.9-19.3,30c-6.1,11-11.6,22.8-16.5,35.2c-4.7,11.9-8.6,24.3-11.9,37.3l-0.3,1.3l-1.7,5.6c-0.1,0.5-0.3,1.1-0.5,1.6
	L139.4-809.4l1.1,1.6c4.4,6.3,7.9,13.3,10.4,20.9l0,0l1000,3052.3c0.4,1,0.7,1.9,0.9,2.9c4.7,17.8,9.6,32.7,14.6,45.7
	c4.9,12.6,10.2,23.7,15.7,34.1c4.6,8.5,9.2,15.9,13.8,22c3.7,5,7.2,8.8,10.3,11.4l0.4,0.3c2.5,2,4.7,4,6.6,5.9
	c1.6,1.6,3,3.3,4.4,4.9c5.1,5.9,10.3,11.2,15.7,15.7c4.3,3.6,8.6,6.6,12.7,8.8c0.5,0.2,0.9,0.4,1.4,0.7c4.9,2.5,9.9,4.5,14.8,5.8
	C1267.2,2424.7,1272.2,2425.4,1277.7,2425.4L1277.7,2425.4z M-553.6,1206.9l436.8-1394.4c4.8-15.5,21.4-24.2,36.9-19.4
	c10.2,3.2,17.4,11.3,19.8,20.9l464.6,1394.2c5.1,15.4-3.3,32-18.7,37.1c-3.1,1-6.2,1.5-9.2,1.5v0.1H-526
	c-16.3,0-29.5-13.2-29.5-29.5C-555.5,1213.7-554.9,1210.2-553.6,1206.9L-553.6,1206.9z M-87.7-83l-398.2,1270.9h821.7L-87.7-83
	L-87.7-83z"/>
</svg>
