<?xml version="1.0" encoding="utf-8"?>
<!-- Generator: Adobe Illustrator 18.0.0, SVG Export Plug-In . SVG Version: 6.00 Build 0)  -->
<!DOCTYPE svg PUBLIC "-//W3C//DTD SVG 1.1//EN" "http://www.w3.org/Graphics/SVG/1.1/DTD/svg11.dtd">
<svg version="1.1" id="Слой_1" xmlns="http://www.w3.org/2000/svg" xmlns:xlink="http://www.w3.org/1999/xlink" x="0px" y="0px"
	 viewBox="0 0 193.1 250" enable-background="new 0 0 193.1 250" xml:space="preserve">
<rect x="28.3" y="28.3" transform="matrix(0.7071 0.7071 -0.7071 0.7071 96.5477 -39.9914)" fill="#1C9CD6" width="136.5" height="136.5"/>
<path fill="#FFFFFF" d="M148.4,131.1h-0.8c-0.3,0-0.5-0.1-0.7-0.2c-0.2-0.1-0.4-0.3-0.6-0.5c0,0-0.1-0.1-0.1-0.1
	c-0.2-0.1-0.4-0.4-0.5-0.7c-0.2-0.4-0.4-0.8-0.5-1.4l0,0l-16.3-49.7c-0.1-0.2-0.2-0.3-0.3-0.4l3.7-11.7c0,0,0-0.1,0-0.1
	c0.1-0.5,0.3-0.9,0.5-1.3c0.2-0.4,0.5-0.7,0.8-1c0.3-0.2,0.6-0.3,0.8-0.4c0.2-0.1,0.4-0.1,0.5-0.1h1.7l0,0c0.7,0,1.2-0.6,1.2-1.2
	v-2.6c0-0.7-0.5-1.1-1.2-1.1H124c-0.7,0-1.2,0.5-1.2,1.1v2.6c0,0.7,0.6,1.3,1.2,1.3h1.2c0.4,0,0.8,0,1.1,0.1
	c0.2,0.1,0.4,0.2,0.6,0.3c0.2,0.2,0.3,0.5,0.4,0.8c0,0.4,0,0.8-0.2,1.4h0l0,0l-16.3,51L95.3,65.2c-0.1-0.4-0.1-0.7-0.1-1
	c0-0.2,0.1-0.3,0.2-0.4c0.1-0.1,0.3-0.2,0.6-0.3c0.3-0.1,0.6-0.1,1.1-0.1h1.2c0.7,0,1.2-0.6,1.2-1.3v-2.6c0-0.7-0.5-1.1-1.2-1.1
	H82.9c-0.7,0-1.2,0.5-1.2,1.1v2.6c0,0.7,0.5,1.3,1.2,1.3h1.7c0.1,0,0.2,0,0.3,0.1c0.2,0.1,0.3,0.2,0.5,0.4l0,0
	c0.2,0.2,0.4,0.5,0.5,0.8c0.2,0.4,0.3,0.8,0.4,1.3v0l1.6,5.7L73,117.1L57.5,65.2c-0.1-0.4-0.1-0.7-0.1-1c0-0.2,0.1-0.3,0.2-0.4
	c0.1-0.1,0.3-0.2,0.6-0.3c0.3-0.1,0.6-0.1,1.1-0.1h1.3c0.7,0,1.2-0.6,1.2-1.3v-2.6c0-0.7-0.5-1.1-1.2-1.1H45.2
	c-0.7,0-1.3,0.5-1.3,1.1v2.6c0,0.7,0.6,1.3,1.3,1.3h1.7c0.2,0,0.4,0,0.5,0.1c0,0,0.1,0,0.1,0.1c0.1,0.1,0.1,0.2,0.2,0.3
	c0.2,0.2,0.4,0.5,0.5,0.8c0.2,0.4,0.3,0.8,0.4,1.2l0,0.1l19.9,67.9c0.1,0.5,0.6,1,1.2,1h2.5v0c0.5,0,1-0.3,1.1-0.8l17.1-53.6
	l15.9,53.5c0.1,0.5,0.6,1,1.2,1h2.5v0c0.5,0,1-0.3,1.2-0.8l6.1-19.3H134l4.4,13.3c0.3,1,0.3,1.9,0,2.5c0,0.1,0,0.1-0.1,0.2
	c0,0.2-0.1,0.3-0.2,0.4c-0.2,0.1-0.5,0.2-0.9,0.2h-1.1c-0.4,0-0.8,0.3-0.8,0.8v1.9c0,0.5,0.4,0.9,0.8,0.9h12.2
	c0.4,0,0.8-0.4,0.8-0.9v-1.9C149.2,131.4,148.8,131.1,148.4,131.1L148.4,131.1z M118.2,110.9L118.2,110.9l7.1-22.7l7.6,22.7
	L118.2,110.9L118.2,110.9z"/>
<rect x="93.2" y="182.7" fill="#1C9CD6" width="6.7" height="67.3"/>
</svg>
