<?xml version="1.0" encoding="utf-8"?>
<!-- Generator: Adobe Illustrator 18.0.0, SVG Export Plug-In . SVG Version: 6.00 Build 0)  -->
<!DOCTYPE svg PUBLIC "-//W3C//DTD SVG 1.1//EN" "http://www.w3.org/Graphics/SVG/1.1/DTD/svg11.dtd">
<svg version="1.1" id="Слой_1" xmlns="http://www.w3.org/2000/svg" xmlns:xlink="http://www.w3.org/1999/xlink" x="0px" y="0px"
	 viewBox="0.2 7.2 15.1 15.6" enable-background="new 0.2 7.2 15.1 15.6" xml:space="preserve">
<title>angle-double-right</title>
<path fill="#FFFFFF" d="M9.3,15c0,0.1-0.1,0.3-0.2,0.4l-7.3,7.3c-0.1,0.1-0.2,0.2-0.4,0.2s-0.3-0.1-0.4-0.2l-0.8-0.8
	c-0.1-0.1-0.2-0.2-0.2-0.4s0.1-0.3,0.2-0.4L6.5,15L0.4,8.9C0.3,8.8,0.2,8.6,0.2,8.5s0.1-0.3,0.2-0.4l0.8-0.8
	c0.1-0.1,0.2-0.2,0.4-0.2s0.3,0.1,0.4,0.2l7.3,7.3C9.2,14.7,9.3,14.9,9.3,15z M15.3,15c0,0.1-0.1,0.3-0.2,0.4l-7.3,7.3
	c-0.1,0.1-0.2,0.2-0.4,0.2s-0.3-0.1-0.4-0.2l-0.8-0.8c-0.1-0.1-0.2-0.2-0.2-0.4s0.1-0.3,0.2-0.4l6.1-6.1L6.4,8.9
	C6.3,8.8,6.2,8.6,6.2,8.5s0.1-0.3,0.2-0.4l0.8-0.8c0.1-0.1,0.2-0.2,0.4-0.2s0.3,0.1,0.4,0.2l7.3,7.3C15.2,14.7,15.3,14.9,15.3,15z"
	/>
</svg>
