<?xml version="1.0" encoding="utf-8"?>
<!-- Generator: Adobe Illustrator 18.0.0, SVG Export Plug-In . SVG Version: 6.00 Build 0)  -->
<!DOCTYPE svg PUBLIC "-//W3C//DTD SVG 1.1//EN" "http://www.w3.org/Graphics/SVG/1.1/DTD/svg11.dtd">
<svg version="1.1"
	 id="svg" xmlns:sodipodi="http://sodipodi.sourceforge.net/DTD/sodipodi-0.dtd" xmlns:rdf="http://www.w3.org/1999/02/22-rdf-syntax-ns#" xmlns:svg="http://www.w3.org/2000/svg" xmlns:dc="http://purl.org/dc/elements/1.1/" xmlns:inkscape="http://www.inkscape.org/namespaces/inkscape" xmlns:cc="http://creativecommons.org/ns#" sodipodi:docname="us.svg" inkscape:version="0.48.4 r9939"
	 xmlns="http://www.w3.org/2000/svg" xmlns:xlink="http://www.w3.org/1999/xlink" x="0px" y="0px" viewBox="0 0 200 200"
	 enable-background="new 0 0 200 200" xml:space="preserve">
<sodipodi:namedview  bordercolor="#666666" id="namedview69" inkscape:cx="817.66365" guidetolerance="10" gridtolerance="10" borderopacity="1" showgrid="false" objecttolerance="10" inkscape:zoom="0.80893016" pagecolor="#ffffff" inkscape:cy="409.3738" inkscape:window-maximized="1" inkscape:window-height="1137" inkscape:current-layer="svg2" inkscape:window-y="118" inkscape:pageshadow="2" inkscape:pageopacity="0" inkscape:window-x="1192" inkscape:window-width="1920">
	</sodipodi:namedview>
<g id="MA">
	<path inkscape:connector-curvature="0" d="M-479.3,42.7L-479.3,42.7L-479.3,42.7L-479.3,42.7L-479.3,42.7z M-480,42l0.2-0.1v-0.1
		L-480,42L-480,42z M-477.3,40.4l0-0.3l0-0.2L-477.3,40.4z M-486.8,38.2l-0.2,0.1l-1.2,0.4l-0.4,0.2l-0.5,0.2l-0.2,0.1v0.1l0.1,1.1
		l0.1,1l0.1,0.9l0.1,0.1l0.4-0.1l1.8-0.5l0,0.1l3.1-1.1l0,0l0.3-0.1l1-0.4l1,1.1l0,0l0.1-0.1l0.1-0.3l0,0.5l0,0h0.2l0.1,0.3l0.2,0.4
		l0,0l1-1.2l0.8,0.3l0.2-0.4l1.4-0.7l-0.6-1.1l0.2,0.7l-0.7,0.5l-0.8,0.1l-1.6-1.7l-0.7-1.1l0.7-0.7l-0.7,0l-0.3-0.7l0,0l-1.2,1.3
		l-2.7,0.9L-486.8,38.2L-486.8,38.2z"/>
	<text transform="matrix(1.0285 0 0 1 -475.7098 36.7671)" font-family="'ArialMT'" font-size="2.6153">MA</text>
	<polygon points="-480.8,38.2 -475.9,35.8 -475.8,36 -480.7,38.4 	"/>
</g>
<g id="MN">
	<path inkscape:connector-curvature="0" d="M-568.5,25.4l0.4,1.5l0.9,5.4l0.4,2.2l0.1,1.9l0.5,1.1l0.1,1l0.1,0.3l0,0.1l-0.9,1.4
		l0.6,0.9l1.1,7.5l0,1l1.1-0.1l4.3-0.2l10.7-0.9l1.1-0.1v-0.1l-0.3-1.6l-1.3-0.6l-1-1.1l-1.7-1l-0.5,0l-0.8-0.5l0.2-2.9l-0.8-0.7
		l0.3-1.2l1.4-1.2l-0.2-2.5l0.5-0.5l0,0l1.7-1.7l1.9-2.4l0.7-0.5l1.3-0.6l1.4-1l-0.9,0.2l-0.5-0.4l-2.1,0.3l-0.3-0.4l-1.9,0.7
		l-1.5-0.6l-0.4-0.5l-1.2,0.1l-0.8-0.4l0.3-0.3l-1-0.3h-0.9l-1.5,0.6l-0.3-0.4l-2.3-0.4l-0.8-1.9l-0.1-0.6l-1-0.3l0.1,1.6l-2.6,0.2
		l-3.3,0.1L-568.5,25.4L-568.5,25.4z"/>
	<text transform="matrix(1.0285 0 0 1 -563.581 40.2186)" font-family="'ArialMT'" font-size="2.6153">MN</text>
</g>
<g id="MT">
	<path inkscape:connector-curvature="0" d="M-589.3,25.2l-7.2-0.5l-5.2-0.5l-5.2-0.6l-3.2-0.4l-5.2-0.8L-618,22l-5.8-1.1l-0.6-0.1
		l-0.9,4.3l0.4,0.8l0.3,1.2l-0.2,0.2l0.4,1.1l0.6,0.5l1.6,2.6l0.2,0.4l0.6,0l-0.8,3.5l-0.3,0.1l-0.4,1.1l2.2,0.2l0.2,1l1.2,2.9
		l0.2,0.2l0.8,1.7l0.2-0.2l1.8,0l2.3,0.2l0.6-0.7l0.7,1.2l0.1,0.1l0-0.1l0.3-2.1l7.4,0.9l5.9,0.5l3.1,0.3l5.6,0.3l0.3,0h0.1l0-0.3
		l0.1-1.5l0.1-1.9l0-0.5l0-0.8l0.4-6.7l0.3-5.2l0-0.8L-589.3,25.2L-589.3,25.2z"/>
	<text transform="matrix(1.0285 0 0 1 -607.7006 33.6077)" font-family="'ArialMT'" font-size="2.6153">MT</text>
</g>
<g id="ND">
	<path inkscape:connector-curvature="0" d="M-569,25.4l-6.6,0.1l-4.6,0l-4-0.1l-4.6-0.2l-0.2,0l0,0.8l-0.3,5.2l-0.4,6.7l0,0.8l0.8,0
		l9.6,0.3l8.9-0.1l3.7-0.1l0.7,0l-0.1-0.3l-0.1-1l-0.5-1.1l-0.1-1.9l-0.4-2.2l-0.9-5.4l-0.4-1.5L-569,25.4L-569,25.4z"/>
	<text transform="matrix(1.0285 0 0 1 -581.6233 34.0438)" font-family="'ArialMT'" font-size="2.6153">ND</text>
</g>
<g id="HI">
	<path inkscape:connector-curvature="0" d="M-600.4,121.5l-0.7-0.5l-0.6,0.2l0.1,1.2l-0.8,1l0.7,1.6l0.2,1.6l0.8,0.5l0.5-0.8
		l0.9-0.6l1.1-0.3l1.2-1l-1.2-1l0-0.6L-600.4,121.5L-600.4,121.5z M-604.3,119.8l-0.3-0.3l-0.3,0.4L-604.3,119.8L-604.3,119.8z
		 M-606,118.9l0.1-0.8l-0.4-0.1L-606,118.9L-606,118.9z M-604.6,117.6l-0.4,0.2l0.3,0.8l0.6,0l0.2,0.7l0.6,0.3l1.4-0.6l-1.3-1
		L-604.6,117.6L-604.6,117.6z M-607.4,116.7l-0.2,0.6l0.9,0l0.9,0.2l-0.4-0.7L-607.4,116.7L-607.4,116.7z M-610.1,115.1l-0.5-0.5
		l-1,0.7l0.6,1.1l0.4-0.4l1.2,0.3l-0.1-0.5L-610.1,115.1L-610.1,115.1z M-619.9,114.1l0.1-0.3l0.4-0.2L-619.9,114.1L-619.9,114.1z
		 M-616.4,112.2l-1.5,0.5l-0.2,0.4l0.6,0.4l0.8,0.2l0.6-1.1L-616.4,112.2L-616.4,112.2z"/>
	<text transform="matrix(1.0285 0 0 1 -609.6436 125.506)" font-family="'ArialMT'" font-size="2.6153">HI</text>
</g>
<g id="ID">
	<path inkscape:connector-curvature="0" d="M-624.4,20.8l-1.9-0.4l-0.6-0.2l-0.3-0.1l-2.5,11.1l0.1,0.9l-0.1,1l0,0.2v0l0,0.4
		l0.7,0.8l-1.1,2.6l-2.2,2.9l-0.1,0.5l0.6,1.4l-2.1,8.3l-0.1,0.4l0.6,0.1l6.2,1.2l2.5,0.4l0.6,0.1l0.6,0.1l3.1,0.5l5.6,0.8l0.6,0.1
		l0.1-0.7l0.2-1.4l0.7-5.5l0.4-2.7l0.1-0.7l-0.1-0.1l-0.7-1.2l-0.6,0.7l-2.3-0.2l-1.8,0l-0.2,0.2l-0.8-1.7l-0.2-0.2l-1.2-2.9l-0.2-1
		l-2.2-0.2l0.4-1.1l0.3-0.1l0.8-3.5l-0.6,0l-0.2-0.4l-1.6-2.6l-0.6-0.5l-0.4-1.1l0.2-0.2l-0.3-1.2l-0.4-0.8L-624.4,20.8L-624.4,20.8
		L-624.4,20.8z"/>
	<text transform="matrix(1.0285 0 0 1 -626.3063 45.7401)" font-family="'ArialMT'" font-size="2.6153">ID</text>
</g>
<g id="WA">
	<path inkscape:connector-curvature="0" d="M-650.6,26.1l0-0.4l0,0L-650.6,26.1L-650.6,26.1z M-646,24.1l0.1-0.2l-0.2,0L-646,24.1
		L-646,24.1z M-646.4,23.8l0.1-0.4l-0.1,0V23.8z M-644.8,23.2l0-0.4l-0.4,0.5L-644.8,23.2L-644.8,23.2z M-644.8,22.3l0.1-0.4l0-0.1
		L-644.8,22.3L-644.8,22.3z M-644.7,20.2l0-0.2l-0.1,0L-644.7,20.2L-644.7,20.2z M-644,18.8l-0.2,0l-0.4,0.6L-644,18.8z
		 M-644.6,18.2l0.1-0.1l0-0.1L-644.6,18.2L-644.6,18.2z M-644.7,18.3l-0.1-0.4l-0.2,0.4L-644.7,18.3L-644.7,18.3z M-644.8,17.7
		l-0.2-0.1l0.2,0.2L-644.8,17.7L-644.8,17.7z M-644.1,18.1v-0.3l-0.1,0.1L-644.1,18.1z M-643.9,17.8L-643.9,17.8l-0.1-0.1
		L-643.9,17.8L-643.9,17.8z M-645.2,17.3l-0.1-0.1l0,0L-645.2,17.3z M-644.4,17.2l-0.6,0.2l0.2,0L-644.4,17.2z M-644.8,17.2
		l-0.1-0.1l0,0L-644.8,17.2L-644.8,17.2z M-644.4,16.9L-644.4,16.9L-644.4,16.9L-644.4,16.9L-644.4,16.9z M-648.7,27.8l0.8,0.8
		l-0.1,1.6l0.2,0.4l1.2,0.6l3.3,0.3l0.1,0.4l1.6,0l1.5,0.2l2.4-0.3l1.2,0.2l0.3-0.2l6.1,1.4l0.4,0.1l0-0.2l0.1-1l-0.1-0.9l2.5-11.1
		l-0.4-0.1l-5.1-1.1l-4.4-1.1l-5-1.4l-1.5-0.4l0.4,1.8l-0.3,0.6l-0.6-0.3l0.6,2.5l-0.6,0.8l-0.3,0.8v0.8l-1.3,0.9l-0.5-0.3l-0.5,0.3
		l1-1.2l-0.2,0.8l0.5-0.6l0.4,0.1l-0.1-1.1l0.3,0l0.6-1.3l-0.2-0.2l-0.8,1l-0.5,0l0.5-0.6l0.6-0.2l-0.2-1.1l-0.6-0.2l-0.3-0.5
		l-0.4,0.2l-2-0.8l-1.8-1.3l-0.5,1.3l0,0.5l0.4,1l-0.2,3.2l-0.2,0.5l1,0.1l-1,0.7l0.5,0.3l-0.4,1.4l-0.2-1.1l-0.4,1.2l0.5,0.6l0.5,0
		l0.6,0.4l0.3,0.6L-648.7,27.8L-648.7,27.8L-648.7,27.8z"/>
	<text transform="matrix(1.0285 0 0 1 -641.6988 26.4883)" font-family="'ArialMT'" font-size="2.6153">WA</text>
</g>
<g id="AZ">
	<path inkscape:connector-curvature="0" d="M-610.3,76.8l-7.3-0.9l-4-0.5l-5.6-0.9l-0.6-0.1v0l-1,4.1l-0.5,0l-0.8-0.6l-1,0.8l0,3.3
		l-0.4,0.7v0.1v0l0,0.5l0.8,2l0.7,0.9l-1.2,0.7l-0.5,0.9l-0.8,1.9l-0.4,0.1l0,1.6l0.7,0.5l-0.4,0.9l-0.8,0l0,0l-0.4,0.8l1.6,1l3,1.6
		l9.2,4.7l7.8,0.9h0.1l0.6-6.2l0.2-1.6l1.6-16.4l0.1-0.8L-610.3,76.8L-610.3,76.8z"/>
	<text transform="matrix(1.0285 0 0 1 -623.0181 89.5464)" font-family="'ArialMT'" font-size="2.6153">AZ</text>
</g>
<g id="CA">
	<path inkscape:connector-curvature="0" d="M-647.5,88.6l0.1,0.5v0.1L-647.5,88.6L-647.5,88.6z M-650.7,86.7l0.2,0.3l0.1,0
		L-650.7,86.7L-650.7,86.7z M-646.9,86.7l0.1,0.5l0.4,0.3L-646.9,86.7z M-649.5,83.7l-0.2-0.1L-649.5,83.7L-649.5,83.7L-649.5,83.7z
		 M-652,83l-0.6,0.3l0.2,0.2L-652,83z M-653.1,82.6l0,0.2l0.2,0L-653.1,82.6L-653.1,82.6z M-651.2,83l1,0.5l0.2-0.2L-651.2,83z
		 M-658.6,64.4L-658.6,64.4L-658.6,64.4L-658.6,64.4z M-656.3,64.5L-656.3,64.5L-656.3,64.5L-656.3,64.5L-656.3,64.5z M-643.7,48.5
		l-0.8-0.2l-9.3-2.5l-3.4-1v0.1l-0.2,2.1l-0.9,2.5l-1.5,1.8l0,0.9l0.7,1.3l0.4,1.7l-0.5,1.4l0.1,1.4l-0.3,0.6l0.9,1.9l0.6,0.7l0,2.1
		l1.4,1.3l0.8-1.3l0.8,0.6l0.3-0.3l-1.2,0.2l0,1.1l0.2,1.4l-0.7-0.6l-0.4-0.8l-0.1,1.1l0.3,2.3l1.2,1.5l-0.8,1l0.1,1.3l0.9,1.3
		l1.5,4.1l0.5,0.3l-0.2,2.8l0.2,0.3l3.3,1.1l1,1l0.4,0.7l1,0.5l1,0.2l0.4,1.1l0.9,0.4l1.3,1.5l1.2,2l-0.1,1.8l0.7,0.9l8.9,0.8l0,0
		l0.8,0l0.4-0.9l-0.7-0.5l0-1.6l0.4-0.1l0.8-1.9l0.5-0.9l1.2-0.7l-0.7-0.9l-0.8-2l0-0.5l0,0l-0.6-0.7l-1.8-2.3l-3.4-4.6l-4.7-6.6
		l-2.6-3.5l-2.6-3.6l3-12.2L-643.7,48.5L-643.7,48.5z"/>
	<text transform="matrix(1.0285 0 0 1 -652.2332 70.0773)" font-family="'ArialMT'" font-size="2.6153">CA</text>
	<g id="port_4_">
		<path fill="#4D2F67" d="M-638.1,87.2l-0.8,0.8h-6.6c0.6,0.9,0.9,1,0.9,1h9c1.5-0.9,1.6-1.9,1.6-1.9H-638.1z M-635.1,88.5h-10
			l-0.2-0.3h10.5L-635.1,88.5z M-634.9,88c-0.1,0-0.2-0.1-0.2-0.2c0-0.1,0.1-0.2,0.2-0.2c0.1,0,0.2,0.1,0.2,0.2
			C-634.7,87.9-634.8,88-634.9,88z"/>
		<rect x="-645.4" y="87.6" fill="#4D2F67" width="2.5" height="0.3"/>
		<rect x="-640" y="87.2" fill="#4D2F67" width="0.7" height="0.7"/>
		<rect x="-640.9" y="87.2" fill="#4D2F67" width="0.7" height="0.7"/>
		<rect x="-641.6" y="85.5" fill="#4D2F67" width="0.7" height="0.7"/>
		<rect x="-641.7" y="87.2" fill="#4D2F67" width="0.7" height="0.7"/>
		<rect x="-642.5" y="87.2" fill="#4D2F67" width="0.7" height="0.7"/>
		<rect x="-637.5" y="85.5" fill="#4D2F67" width="0.7" height="0.7"/>
		<rect x="-638.3" y="85.5" fill="#4D2F67" width="0.7" height="0.7"/>
		<rect x="-639.1" y="85.5" fill="#4D2F67" width="0.7" height="0.7"/>
		<rect x="-639.9" y="85.5" fill="#4D2F67" width="0.7" height="0.7"/>
		<rect x="-640.8" y="85.5" fill="#4D2F67" width="0.7" height="0.7"/>
		<rect x="-642.1" y="86.3" fill="#4D2F67" width="0.7" height="0.7"/>
		<rect x="-638.8" y="86.3" fill="#4D2F67" width="0.7" height="0.7"/>
		<rect x="-639.6" y="86.3" fill="#4D2F67" width="0.7" height="0.7"/>
		<rect x="-640.4" y="86.3" fill="#4D2F67" width="0.7" height="0.7"/>
		<rect x="-641.3" y="86.3" fill="#4D2F67" width="0.7" height="0.7"/>
		<rect x="-637.9" y="86.3" fill="#4D2F67" width="0.7" height="0.7"/>
		<rect x="-637.1" y="86.3" fill="#4D2F67" width="0.7" height="0.7"/>
		<polygon fill="#4D2F67" points="-638.5,87.4 -638.5,87.2 -639.2,87.2 -639.2,87.9 -638.9,87.9 		"/>
		<polygon fill="#4D2F67" points="-638.4,87.4 -638.4,87.3 -638.2,87.2 -638.4,87.2 -638.4,87.3 		"/>
		<polygon fill="#4D2F67" points="-643.2,85.9 -644.2,85.9 -645.1,87.5 -643.2,87.5 		"/>
		<rect x="-643.7" y="85.2" fill="#4D2F67" width="0.2" height="0.6"/>
		<rect x="-644" y="85.5" fill="#4D2F67" width="0.2" height="0.3"/>
		<polygon fill="#4D2F67" points="-635.3,86.3 -635.3,87.1 -635.2,87.1 -635.2,85.7 -635.3,85.7 -635.3,86.1 -635.9,87.1 
			-635.8,87.1 		"/>
	</g>
</g>
<g id="CO">
	<path inkscape:connector-curvature="0" d="M-583.9,65l0.1-4.1l-1,0l-5.3-0.2l-0.5,0l-0.4,0l-6.5-0.4l-4.3-0.3l-5.4-0.5l-0.5-0.1
		l-0.1,0.5l-1.2,11l-0.4,3.9l-0.2,1.7l0,0.5l0.7,0.1l11,0.9l4.8,0.3l4.8,0.2l0.7,0l0.4,0l0.9,0l0.4,0l1.4,0h0.4v-0.4l0.2-11.2l0-1.3
		v-0.4V65L-583.9,65z"/>
	<text transform="matrix(1.0285 0 0 1 -600.1541 70.4403)" font-family="'ArialMT'" font-size="2.6153">CO</text>
</g>
<g id="NV">
	<path inkscape:connector-curvature="0" d="M-627.6,73.7l2.3-13.7l1.1-6.8l0.1-0.7l-0.6-0.1l-2.5-0.4l-6.2-1.2l-0.6-0.1l-0.6-0.1
		l-3.1-0.6l-5.5-1.3l-0.6-0.2l-0.2,0.8l-3,12.2l2.6,3.6l2.6,3.6l4.7,6.6l3.4,4.6l1.8,2.3l0.6,0.7v-0.1l0.4-0.7l0-3.3l1-0.8l0.8,0.6
		l0.5,0l1-4.1v0L-627.6,73.7L-627.6,73.7z"/>
	<text transform="matrix(1.0285 0 0 1 -637.6629 64.4101)" font-family="'ArialMT'" font-size="2.6153">NV</text>
</g>
<g id="NM">
	<path inkscape:connector-curvature="0" d="M-587.8,80.1l0-0.5l0-0.5l0-0.5l-0.7,0l-4.8-0.2l-4.8-0.3l-11-0.9l-0.7-0.1l-0.1,0.8
		l-1.6,16.4l-0.2,1.6l-0.6,6.2l0.1,0l3,0.3l0.3-1.5l0.5-0.4l6.1,0.5h0l-0.5-1l2.8,0.2l6.9,0.4l4.3,0.2l0.7-19.8l0.2,0L-587.8,80.1
		L-587.8,80.1z"/>
	<text transform="matrix(1.0285 0 0 1 -603.1423 90.2002)" font-family="'ArialMT'" font-size="2.6153">NM</text>
</g>
<g id="OR">
	<path inkscape:connector-curvature="0" d="M-657.3,44.8l3.4,1l9.3,2.5l0.8,0.2l0.6,0.2l5.5,1.3l3.1,0.6l0.6,0.1l0.1-0.4l2.1-8.3
		l-0.6-1.4l0.1-0.5l2.3-2.9l1.1-2.6l-0.7-0.8l0-0.4v0l-0.4-0.1l-6.1-1.4l-0.3,0.2l-1.2-0.2l-2.4,0.3l-1.5-0.2l-1.6,0l-0.1-0.4
		l-3.3-0.3l-1.2-0.6l-0.2-0.4l0.1-1.6l-0.8-0.8l-0.1,0L-649,28l-1.1-0.5l-0.6,0.2l-0.4-0.2l-0.4,1.8l-0.3,0.5l-1.4,3.2l-0.4,1.8
		l-0.2,0l-1.3,2.9l-0.8,1.3l-0.3,0.2l-0.8,1.5l-0.2,1.6l-0.5,1.4L-657.3,44.8L-657.3,44.8L-657.3,44.8z M-649.4,27.4l-0.1-0.2
		L-649.4,27.4L-649.4,27.4L-649.4,27.4z"/>
	<text transform="matrix(1.0285 0 0 1 -647.9753 41.3079)" font-family="'ArialMT'" font-size="2.6153">OR</text>
</g>
<g id="UT">
	<path inkscape:connector-curvature="0" d="M-614.7,54l-5.6-0.8l-3.1-0.5l-0.6-0.1l-0.1,0.7l-1.1,6.8l-2.3,13.7l-0.1,0.7l0.6,0.1
		l5.6,0.9l4,0.5l7.3,0.9l0.6,0.1l0-0.5l0.2-1.7l0.4-3.9l1.2-11l0.1-0.5l-0.4,0l-5.6-0.6l-0.8-0.1l0.5-4.1l0-0.3L-614.7,54L-614.7,54
		z"/>
	<text transform="matrix(1.0285 0 0 1 -619.6551 66.0818)" font-family="'ArialMT'" font-size="2.6153">UT</text>
</g>
<g id="WY">
	<path inkscape:connector-curvature="0" d="M-590.3,51.2l0.2-3.3l0.2-4.4l0-0.5l-0.3,0l-5.6-0.3l-3.1-0.3l-5.9-0.5l-7.4-0.9
		l-0.3,2.1l0,0.1l-0.1,0.7l-0.4,2.7l-0.7,5.5l-0.2,1.4l-0.1,0.7l0,0.3l-0.5,4.1l0.8,0.1l5.6,0.6l0.4,0l0.5,0.1l5.4,0.5l4.3,0.3
		l6.5,0.4l0.4,0l0-0.5l0.1-2.2l0.2-3.9l0.1-1.7l0-0.5L-590.3,51.2L-590.3,51.2z"/>
	<text transform="matrix(1.0285 0 0 1 -605.1602 52.06)" font-family="'ArialMT'" font-size="2.6153">WY</text>
</g>
<g id="AR">
	<path inkscape:connector-curvature="0" d="M-538.9,80.8l-2.4,0.3l1-1.5l-0.4-0.8l-8.3,0.8l-7,0.5l-1,0.1l0.1,0.6l0.8,4.3l0,1
		l0.2,5.7l0,1l0.1,0l0.3,0.3l1.3,0l0.1,1.9l0,0.5l0.7-0.1l2.1-0.2l8.2-0.7h0l0-0.5l0.2-0.2l-0.4-0.7l0.8-3.4l-0.3-0.4l1.2-1.3
		l-0.1-1.1l0.9-1.5v0l0,0l0.8-0.7l-0.2-0.8l0.6-0.9l-0.1-0.9L-538.9,80.8L-538.9,80.8L-538.9,80.8L-538.9,80.8z"/>
	<text transform="matrix(1.0285 0 0 1 -551.9246 88.8199)" font-family="'ArialMT'" font-size="2.6153">AR</text>
</g>
<g id="IA">
	<path inkscape:connector-curvature="0" d="M-545.4,52.4l-1.2-0.6l-0.6-0.9l-0.2-1.3l0.2-0.6l-0.6-0.7l0,0l-1.1,0.1l-10.7,0.9
		l-4.3,0.2l-1.1,0.1l-0.4,0l0.4,2.4l-0.3,1.1l0.5,0.7v0.2l0.2,0l0.7,2l0.7,1l0,1.2l0.7,1l-0.1,0.4l0.7,2.7v0.1l0,0l4.5-0.1l4.8-0.4
		l4.7-0.6l1.1,0.9l0,0l0.2-0.1l-0.2-0.8l0.8-0.5l0.3-2.2l-0.3-0.2l0.2-1.1l1-0.2l1.1-0.8l0.5-1.3l0-0.7l-0.9-0.8l-0.3-0.5l-0.8-0.5
		l0-0.1L-545.4,52.4L-545.4,52.4z"/>
	<text transform="matrix(1.0285 0 0 1 -557.3801 57.2179)" font-family="'ArialMT'" font-size="2.6153">IA</text>
</g>
<g id="KS">
	<path inkscape:connector-curvature="0" d="M-557.2,77.4l-0.5-9l-1-0.5l-0.1-0.4l-0.8-0.7l0.8-0.9l-0.3-0.5l-0.6,0l-0.5-0.4
		l-0.2-0.2l-0.7,0l-8,0.3l-3.7,0.1h-7.3l-2.9,0l-0.8,0v0.4l0,1.3l-0.2,11.2v0.4l0.9,0l5,0.1l11.8-0.2l8.4-0.4l0.8-0.1L-557.2,77.4
		L-557.2,77.4z"/>
	<text transform="matrix(1.0285 0 0 1 -575.496 73.4917)" font-family="'ArialMT'" font-size="2.6153">KS</text>
</g>
<g id="MO">
	<path inkscape:connector-curvature="0" d="M-547.2,62.1l-1.1-0.9l-4.7,0.6l-4.8,0.4l-4.5,0.1l0,0l0,0.1l0.5,1l0.5,0.3l0.6,1
		l0.1,0.1l0.2,0.2l0.5,0.4l0.6,0l0.3,0.5l-0.8,0.9l0.8,0.7l0.1,0.4l1,0.5l0.5,9l0,0.5l0,0.5l0,0.5l0,0.6l0,0.5l1-0.1l7-0.5l8.3-0.8
		l0.4,0.8l-1,1.5l2.4-0.3h0v-0.2l0-1l0.4-0.5l-0.1-0.6l0,0l0,0l0.1-0.3l0.1,0l0.1,0.2l0,0.1v0v0.2l0.1,0l0.2-0.2v0l0-0.1l0.6-0.3
		l0.1,0l0.2-1.7l0-0.1l-0.1,0l-1.6-1.2l0.2-0.4l-0.4-1.2l-0.8-0.6l-1.5-0.6l-0.9-0.7l0.1-1.5l0.3-1.4l-1.6,0.1l-0.5-0.5l-0.2-1
		l-2.5-2l-0.7-1.9L-547.2,62.1L-547.2,62.1L-547.2,62.1L-547.2,62.1z"/>
	<text transform="matrix(1.0285 0 0 1 -553.7189 72.9092)" font-family="'ArialMT'" font-size="2.6153">MO</text>
</g>
<g id="NE">
	<path inkscape:connector-curvature="0" d="M-565.4,53.9l-0.7-0.6l-2.4-0.7l-0.8,0l-1.1,0.3l-1.4-0.8l-4.3,0l-6.3-0.1l-7.4-0.2
		l-0.6,0l0,0.5l-0.1,1.7l-0.2,3.9l-0.1,2.2l0,0.5l0.5,0l5.3,0.2l1,0l-0.1,4.1l0,0.3l0.8,0l2.9,0h7.3l3.7-0.1l8-0.3l0.7,0l-0.1-0.1
		l-0.6-1l-0.5-0.3l-0.5-1l0-0.1v0l-0.7-2.7l0.1-0.4l-0.7-1l0-1.2l-0.7-1l-0.7-2l-0.2,0L-565.4,53.9L-565.4,53.9z"/>
	<text transform="matrix(1.0285 0 0 1 -579.3816 60.0511)" font-family="'ArialMT'" font-size="2.6153">NE</text>
</g>
<g id="OK">
	<path inkscape:connector-curvature="0" d="M-557.1,79.7l0-0.6l0-0.5l0-0.5l-0.8,0.1l-8.4,0.4l-11.8,0.2l-5-0.1l-0.9,0h-0.4l-1.4,0
		l-0.4,0l-0.9,0l-0.4,0l0,0.5l0,0.5l0,0.5l0,0.6h0.1l5.3,0.1l5.6,0.1l0.1,7.2l0.4,1.3l0.9,0.8l0.9,0l0.2-0.4l1.3,1.1l1.7,0.2
		l0.3,0.3l0.6-0.3l1.5,0.7v0.4l0.6,0l0.6-0.5l1.1,0.7l1,0.4l0.7-0.9l2.2,1l0.8-0.6l0.7-0.3l0.5,0.1l2-0.6l1.1,0.4l1,0.6l0.8,0.2h0
		l0-1l-0.2-5.7l0-1l-0.8-4.3l-0.1-0.6V79.7L-557.1,79.7z"/>
	<text transform="matrix(1.0285 0 0 1 -571.0121 85.4782)" font-family="'ArialMT'" font-size="2.6153">OK</text>
</g>
<g id="LA">
	<path inkscape:connector-curvature="0" d="M-539.3,111.6l-0.3,0.1l-0.1,0.1L-539.3,111.6L-539.3,111.6z M-538.3,111.6l-0.2-0.1
		l0,0.1H-538.3z M-537.8,111.4h-0.2l-0.1,0.1L-537.8,111.4z M-538.1,111.2L-538.1,111.2L-538.1,111.2L-538.1,111.2L-538.1,111.2z
		 M-536.3,110.1L-536.3,110.1L-536.3,110.1L-536.3,110.1L-536.3,110.1z M-533.3,108.9l0.1-0.2L-533.3,108.9L-533.3,108.9
		L-533.3,108.9z M-532.9,108.3L-532.9,108.3L-532.9,108.3L-532.9,108.3L-532.9,108.3z M-544.1,110.2l0.3-0.4l-0.9-0.2l-0.4,0.3
		L-544.1,110.2L-544.1,110.2z M-535,108.3L-535,108.3l-0.1,0L-535,108.3L-535,108.3z M-534.8,108l-0.2-0.1l0.1,0.2L-534.8,108z
		 M-533,107.6L-533,107.6L-533,107.6L-533,107.6L-533,107.6z M-532.6,107.3L-532.6,107.3L-532.6,107.3L-532.6,107.3L-532.6,107.3z
		 M-532.7,107.3L-532.7,107.3L-532.7,107.3L-532.7,107.3L-532.7,107.3z M-534.3,107.2l0.2-0.1v-0.1L-534.3,107.2L-534.3,107.2z
		 M-534.1,107.1l0.1-0.1l0,0L-534.1,107.1L-534.1,107.1z M-534.9,106.3L-534.9,106.3L-534.9,106.3L-534.9,106.3L-534.9,106.3z
		 M-542.9,94.5L-542.9,94.5l-8.2,0.7l-2.1,0.2l-0.7,0.1l0,0.5l0.4,4.1l0.7,1l0,0.6l0.7,1.2l0.6,1.7l-0.2,1l-0.2,2.4l-0.3,0.8h0
		l0.1,0.5l-0.4,0.5l2.7-0.3l2.1,0.6l1.5,0.2l0.8-0.5l-0.4-0.5l1.4-0.4l0,0.5l0.7-0.2l0.6,0.9l0.5-0.2l1.3,0.9l-0.8,0.3l1.9,0.5h0.7
		l0.4-0.5l0.9-0.5l0.6,0.9l0.4-0.8l-0.1-1.3l1.2,0.4l0.1,0.4l1.4,0.2l0.7,0.5l0,0.5l1-0.9l-0.4-0.5l-1.6-0.4l-0.6-0.3l0-0.6l0.7,0.1
		l0.5-1l-0.7-0.9l-0.4,0.9l-0.8-0.2l0.6-0.9l-0.4-0.1l-1,0.6l-1.4,0.1l-0.4-0.3l0.6-1.1l0.7,0l1.3,0.4l0.9,0.1l0,0l-0.5-0.6l-1-1.8
		l0.3-1l-7.5,0.8l0.3-0.3l-0.3-0.8l0.4-0.6l0.3-1.7l1.7-2.7l-0.8-1l0-0.7l-0.5-1.1L-542.9,94.5L-542.9,94.5z"/>
	<text transform="matrix(1.0285 0 0 1 -550.5795 103.6396)" font-family="'ArialMT'" font-size="2.6153">LA</text>
</g>
<g id="TX">
	<path inkscape:connector-curvature="0" d="M-565,126.3l-1-3.8v0.7L-565,126.3z M-565.3,119.6l-0.7,1.4l-0.1,0.4L-565.3,119.6
		L-565.3,119.6z M-564.7,118.6l0.7-0.9l-0.5,0.3L-564.7,118.6z M-562.2,116.4l-1.6,0.8l0.4-0.1L-562.2,116.4z M-562,116.1l0.4-0.4
		l-0.2,0L-562,116.1z M-587.8,80.6l-0.2,0l-0.7,19.8l-4.3-0.2l-6.9-0.4l-2.8-0.2l0.5,1l0,0l2.4,2.3l1.4,1.6l1.8,1.3l1.3,2.2l0.5,2.4
		l1,0.6l0.8,0.9l1.1,0.4l1.7,1l0.8,0.3l1-1l0.3-1.1l0.5-1l1.7-0.6l0.6,0.3l1.9,0.2l1.7,1l1.2,0.2l-0.3,0.6l0.7,0.4l0.6,0.7l0.1,0.8
		l0.4,0.5l1,2.2l1,0.8l0.7,1.2l0.9,0.9l0.4,0.1l0.4,2.4l1,0.5l0,0.8l0.3-0.1l1.8,2.1l0.9,0.2l1.1,0.6h1.8l1.3,0.7l1.5-0.3l-0.7-0.6
		l-0.6-1.8l-0.2-1.6l-0.4-0.5l0.2-1l-0.4,0l-0.6-1l0.7,0.7l0.8-0.3l0.4-1.1l-0.9-1.1l1.3,0.2l0.6-0.9l-0.1-0.3l0.5-0.7l-0.1,0.6
		l0.6-0.5l-0.2-0.8l0.8,0.4l1-0.5l-1-1l0.6,0.2l1.1,0.1l1.5-0.3l1.7-1.1l1-0.8l0.2-0.6l0.6-0.6l-0.3-1l0.1-0.6l1.1-0.5l-0.1,1.1h0.6
		l-0.7,0.6l2.9-1.5l0.5,0l0.3-1.4h0.1l0.3-0.8l0.2-2.4l0.2-1l-0.6-1.7l-0.7-1.2l0-0.6l-0.7-1l-0.4-4.1l0-0.5l0-0.5l-0.1-1.9l-1.3,0
		l-0.3-0.3l-0.1,0h0l-0.8-0.2l-1-0.6l-1.1-0.4l-2,0.6l-0.5-0.1l-0.7,0.3l-0.8,0.6l-2.2-1l-0.7,0.9l-1-0.4l-1.1-0.7l-0.6,0.5l-0.6,0
		v-0.4l-1.5-0.7l-0.6,0.3l-0.3-0.3l-1.7-0.2l-1.3-1.1l-0.2,0.4l-0.9,0l-0.9-0.8l-0.4-1.3l-0.1-7.2l-5.6-0.1l-5.3-0.1L-587.8,80.6
		L-587.8,80.6z"/>
	<text transform="matrix(1.0285 0 0 1 -576.2439 104.5111)" font-family="'ArialMT'" font-size="2.6153">TX</text>
	<g id="port">
		<path fill="#4D2F67" d="M-562.2,110.7l-0.8,0.8h-6.6c0.6,0.9,0.9,1,0.9,1h9c1.5-0.9,1.6-1.9,1.6-1.9H-562.2z M-559.2,112.1h-10
			l-0.2-0.3h10.5L-559.2,112.1z M-559,111.6c-0.1,0-0.2-0.1-0.2-0.2c0-0.1,0.1-0.2,0.2-0.2c0.1,0,0.2,0.1,0.2,0.2
			S-558.9,111.6-559,111.6z"/>
		<rect x="-569.5" y="111.2" fill="#4D2F67" width="2.5" height="0.3"/>
		<rect x="-564.1" y="110.7" fill="#4D2F67" width="0.7" height="0.7"/>
		<rect x="-565" y="110.7" fill="#4D2F67" width="0.7" height="0.7"/>
		<rect x="-565.7" y="109" fill="#4D2F67" width="0.7" height="0.7"/>
		<rect x="-565.8" y="110.7" fill="#4D2F67" width="0.7" height="0.7"/>
		<rect x="-566.7" y="110.7" fill="#4D2F67" width="0.7" height="0.7"/>
		<rect x="-561.6" y="109" fill="#4D2F67" width="0.7" height="0.7"/>
		<rect x="-562.4" y="109" fill="#4D2F67" width="0.7" height="0.7"/>
		<rect x="-563.2" y="109" fill="#4D2F67" width="0.7" height="0.7"/>
		<rect x="-564.1" y="109" fill="#4D2F67" width="0.7" height="0.7"/>
		<rect x="-564.9" y="109" fill="#4D2F67" width="0.7" height="0.7"/>
		<rect x="-566.2" y="109.9" fill="#4D2F67" width="0.7" height="0.7"/>
		<rect x="-562.9" y="109.9" fill="#4D2F67" width="0.7" height="0.7"/>
		<rect x="-563.7" y="109.9" fill="#4D2F67" width="0.7" height="0.7"/>
		<rect x="-564.6" y="109.9" fill="#4D2F67" width="0.7" height="0.7"/>
		<rect x="-565.4" y="109.9" fill="#4D2F67" width="0.7" height="0.7"/>
		<rect x="-562" y="109.9" fill="#4D2F67" width="0.7" height="0.7"/>
		<rect x="-561.2" y="109.9" fill="#4D2F67" width="0.7" height="0.7"/>
		<polygon fill="#4D2F67" points="-562.6,111 -562.6,110.7 -563.3,110.7 -563.3,111.5 -563,111.5 		"/>
		<polygon fill="#4D2F67" points="-562.5,110.9 -562.5,110.9 -562.3,110.7 -562.5,110.7 -562.5,110.9 		"/>
		<polygon fill="#4D2F67" points="-567.3,109.5 -568.4,109.5 -569.2,111.1 -567.3,111.1 		"/>
		<rect x="-567.8" y="108.8" fill="#4D2F67" width="0.2" height="0.6"/>
		<rect x="-568.1" y="109.1" fill="#4D2F67" width="0.2" height="0.3"/>
		<polygon fill="#4D2F67" points="-559.4,109.9 -559.4,110.6 -559.3,110.6 -559.3,109.3 -559.4,109.3 -559.4,109.7 -560.1,110.6 
			-559.9,110.6 		"/>
	</g>
</g>
<g id="CT">
	<path inkscape:connector-curvature="0" d="M-483.7,40.5l-3.1,1.1l0-0.1l-1.8,0.5l-0.4,0.1l0,0.2l0.8,3.1l0.3,0.3l-0.6,0.7l0.4,0.4
		l0,0l1.3-1.2l0.7-0.9l0.1,0.3l3.2-1.4l0.1-0.1l0-0.5l-0.1-0.4l-0.7-1.8l-0.1-0.2V40.5L-483.7,40.5z"/>
	<text transform="matrix(1.0285 0 0 1 -478.177 47.7735)" font-family="'ArialMT'" font-size="2.6153">CT</text>
	<polygon points="-483.6,44 -483.5,43.8 -478.6,46.1 -478.7,46.3 	"/>
</g>
<g id="NH">
	<path inkscape:connector-curvature="0" d="M-486.6,25.8l-0.3,0.3l-0.3-0.1l-0.2,1.4v0l0.5,1.9l0,0.4l-0.9,1.2l0.2,1.1v1.4l-0.2,1.3
		l1,3.5l0,0l0,0l0.9-0.3l2.7-0.9l1.2-1.3l0,0v-0.3l0.1-0.5l-0.2,0.1l0-0.1l-1.4-1.6V33L-486.6,25.8L-486.6,25.8z"/>
	<text transform="matrix(1.0285 0 0 1 -492.7836 20.7124)" font-family="'ArialMT'" font-size="2.6153">NH</text>
	<polygon points="-488.3,21.2 -488.1,21.1 -486.9,26.3 -487.1,26.3 	"/>
</g>
<g id="RI">
	<path inkscape:connector-curvature="0" d="M-481.5,42.4l0-0.4l-0.1,0.2L-481.5,42.4L-481.5,42.4z M-481.1,42.1l-0.3-0.5l0,0.5
		L-481.1,42.1L-481.1,42.1z M-481.2,41.4l0.2,0.4l0.2,0.3l0.1-0.3l-0.2-0.4l-0.1-0.3h-0.2L-481.2,41.4L-481.2,41.4z M-483.6,40.6
		l0.1,0.2l0.7,1.8l0.1,0.4l0,0.5l0-0.1l1-0.8l-0.2-1.4l0.4-0.1l0,0l-1-1.1l-1,0.4L-483.6,40.6L-483.6,40.6z"/>
	<text transform="matrix(1.0285 0 0 1 -473.8049 42.652)" font-family="'ArialMT'" font-size="2.6153">RI</text>
	<polygon points="-482.4,43 -474.7,41.1 -474.5,41.3 -482.2,43.2 	"/>
</g>
<g id="VT">
	<path inkscape:connector-curvature="0" d="M-486.8,38.2l-1-3.5l0.2-1.3v-1.4l-0.2-1.1l0.9-1.2l0-0.4l-0.5-1.9l-0.3,0.1l-1.2,0.4
		l-1.2,0.4l-2.7,1l-0.2,0l1,2.2l0.3,2.1l1.1,1.8l1.1,3.5l0,0l0.2-0.1l0.5-0.2l0.4-0.2l1.2-0.4L-486.8,38.2L-486.8,38.2L-486.8,38.2z
		"/>
	<text transform="matrix(1.0285 0 0 1 -499.5842 26.3064)" font-family="'ArialMT'" font-size="2.6153">VT</text>
	<polygon points="-494.5,24.8 -494.4,24.6 -491,28.8 -491.2,28.9 	"/>
</g>
<g id="AL">
	<path inkscape:connector-curvature="0" d="M-532.7,84.4l0.1,0.2l0.3,0.2l0.1,8.7l0,4.8l1.1,6.5l0.1,0l1,0.2l0.3-1.9l0.4,1.1
		l0.7,0.6l1.4-0.8l-0.2-0.1l0,0l-1-2.2l9.4-1.5l0.6-0.1v0l-0.6-1.1l0-1.6l-0.5-0.8l0.2-1.7l0.4-0.4l-1.6-2.8l-2.9-8.6l0,0l-0.6,0.1
		l-3.5,0.5l-1.8,0.2L-532.7,84.4L-532.7,84.4L-532.7,84.4z"/>
	<text transform="matrix(1.0285 0 0 1 -528.3876 94.9215)" font-family="'ArialMT'" font-size="2.6153">AL</text>
</g>
<g id="FL">
	<path inkscape:connector-curvature="0" d="M-502.1,125.9L-502.1,125.9L-502.1,125.9L-502.1,125.9L-502.1,125.9z M-502.3,125.9
		L-502.3,125.9L-502.3,125.9L-502.3,125.9z M-502.3,125.9L-502.3,125.9L-502.3,125.9L-502.3,125.9z M-505.2,126.2L-505.2,126.2
		L-505.2,126.2L-505.2,126.2z M-505.3,126.2L-505.3,126.2L-505.3,126.2L-505.3,126.2z M-505.3,126.2L-505.3,126.2L-505.3,126.2
		L-505.3,126.2z M-505.5,126.2L-505.5,126.2L-505.5,126.2L-505.5,126.2z M-499.3,124.9L-499.3,124.9L-499.3,124.9L-499.3,124.9z
		 M-498.7,124.7L-498.7,124.7L-498.7,124.7L-498.7,124.7L-498.7,124.7z M-498.9,124.7L-498.9,124.7l-0.1-0.1L-498.9,124.7
		L-498.9,124.7z M-499,124.9l-0.3-0.3l0.2,0.3L-499,124.9L-499,124.9z M-496.9,123.6L-496.9,123.6L-496.9,123.6L-496.9,123.6z
		 M-496.6,123.4l0.1-0.1L-496.6,123.4L-496.6,123.4L-496.6,123.4z M-496.5,123.2L-496.5,123.2L-496.5,123.2L-496.5,123.2z
		 M-496.9,123.2L-496.9,123.2L-496.9,123.2L-496.9,123.2z M-496.7,122.8L-496.7,122.8L-496.7,122.8L-496.7,122.8L-496.7,122.8z
		 M-497.3,122.8L-497.3,122.8L-497.3,122.8L-497.3,122.8z M-496.6,122.3L-496.6,122.3L-496.6,122.3L-496.6,122.3L-496.6,122.3z
		 M-496.5,122.3L-496.5,122.3L-496.5,122.3L-496.5,122.3L-496.5,122.3z M-496.7,122.3L-496.7,122.3L-496.7,122.3L-496.7,122.3
		L-496.7,122.3z M-495.9,122.1L-495.9,122.1L-495.9,122.1L-495.9,122.1L-495.9,122.1z M-496.8,122.2L-496.8,122.2L-496.8,122.2
		L-496.8,122.2z M-496.3,122L-496.3,122L-496.3,122L-496.3,122L-496.3,122z M-496.1,121.9L-496.1,121.9L-496.1,121.9L-496.1,121.9z
		 M-498,121.9L-498,121.9L-498,121.9L-498,121.9z M-497.8,121.9L-497.8,121.9v0.1V121.9z M-498.3,121.9v-0.1l-0.1,0L-498.3,121.9z
		 M-498.6,121.7l0.1,0.1v0L-498.6,121.7L-498.6,121.7z M-495.4,121.8l-0.4,0.2l0.1,0L-495.4,121.8z M-498.4,121.6h-0.1v0
		L-498.4,121.6z M-495,120.5l0-0.1l0-0.3L-495,120.5L-495,120.5z M-495,119.4l-0.1-0.2l0,0.1L-495,119.4z M-500,119.9L-500,119.9
		L-500,119.9L-500,119.9L-500,119.9z M-500.4,119.7l-0.2,0.1L-500.4,119.7L-500.4,119.7L-500.4,119.7z M-500.9,119.7L-500.9,119.7
		L-500.9,119.7L-500.9,119.7L-500.9,119.7z M-501.3,119.7l-0.1,0.1l0.2,0.1L-501.3,119.7L-501.3,119.7z M-500.7,119.7L-500.7,119.7
		l-0.1-0.1L-500.7,119.7L-500.7,119.7z M-503.5,117.7l-0.1,0.1l0.3,0.1L-503.5,117.7L-503.5,117.7z M-504.1,117l-0.2-0.3l0.1,0.2
		L-504.1,117L-504.1,117z M-503.4,117.4l-0.3-0.7l-0.2-0.1L-503.4,117.4z M-504.3,116.6l-0.1-0.2l0-0.1L-504.3,116.6L-504.3,116.6z
		 M-506.1,114.2l-0.4-0.3l0.2,0.2L-506.1,114.2z M-496.3,112.8l-1.6-2.6h-0.1L-496.3,112.8L-496.3,112.8z M-507.3,108.7
		L-507.3,108.7L-507.3,108.7L-507.3,108.7L-507.3,108.7z M-507.4,108.6L-507.4,108.6L-507.4,108.6L-507.4,108.6L-507.4,108.6z
		 M-507.6,108.3L-507.6,108.3L-507.6,108.3L-507.6,108.3z M-507.5,108.2L-507.5,108.2L-507.5,108.2L-507.5,108.2z M-507.3,108.2
		L-507.3,108.2L-507.3,108.2L-507.3,108.2L-507.3,108.2z M-507.5,108.1L-507.5,108.1L-507.5,108.1L-507.5,108.1L-507.5,108.1z
		 M-507.7,107.9L-507.7,107.9L-507.7,107.9L-507.7,107.9L-507.7,107.9z M-507.5,107.7L-507.5,107.7l-0.1,0L-507.5,107.7
		L-507.5,107.7z M-507.4,107.7l-0.1-0.1L-507.4,107.7L-507.4,107.7L-507.4,107.7z M-508.2,106.8L-508.2,106.8L-508.2,106.8
		L-508.2,106.8z M-509.2,106.8L-509.2,106.8L-509.2,106.8L-509.2,106.8L-509.2,106.8z M-517.1,106.1l0.6-0.5L-517.1,106.1
		L-517.1,106.1L-517.1,106.1z M-515.8,105.1L-515.8,105.1l-0.2,0L-515.8,105.1L-515.8,105.1z M-524.1,103.7l-2.4,0.7l1.3-0.4
		L-524.1,103.7z M-518.1,100.1l-0.6,0.1l-9.4,1.5l1,2.2l0.1,0l-0.2,0.9l0.7-0.3l0.8-0.6l1.3,0l1.5-0.5l1,0.2l-0.2,0.4l1.9,0.6
		l1.6,0.8l0.4,0.8l1.2-0.3l2.8-2.2l1,0l4.3,3.1l0.9-0.2l0.9,1.2l0.2,1.9l-0.3,1.2l0.1,0.6l0.8,1.5l-0.4-1.1l1,0l0.1,0.8l-0.5,1.3
		l1.8,2.4l0.7,0l-0.6-0.7l0.7,0.1l0.4-0.3l-0.2,1.4l0.9,0.7l0.6,1.7l0.8,0.5l1.1,0.3l1.5,1.9l0.8,0.4l-1,0.1l0.5,0.5l1.7-0.5
		l0.8-0.5l0.8-2.7l-0.4-4.1l-0.1-0.4l-2.1-3.4l-1.8-2.5l-1-2l0.8,0.7l0.2-0.1l0.4,1.8l1,1.3l-0.9-1.8l0-0.8l-2.8-3.3l-0.7-1
		l-0.9-1.8l-0.6-1.5l-0.5-0.5l-0.1-0.7l0,0l-1.5-0.1l-0.6,0.4l-0.3,1.6l-0.3-0.8l-10.3,1.3L-518.1,100.1L-518.1,100.1L-518.1,100.1z
		"/>
	<text transform="matrix(1.0285 0 0 1 -504.6643 111.7385)" font-family="'ArialMT'" font-size="2.6153">FL</text>
	<g id="port_2_">
		<path fill="#4D2F67" d="M-500.9,113.4l-0.8,0.8h-6.6c0.6,0.9,0.9,1,0.9,1h9c1.5-0.9,1.6-1.9,1.6-1.9H-500.9z M-497.9,114.7h-10
			l-0.2-0.3h10.5L-497.9,114.7z M-497.7,114.2c-0.1,0-0.2-0.1-0.2-0.2s0.1-0.2,0.2-0.2c0.1,0,0.2,0.1,0.2,0.2
			S-497.6,114.2-497.7,114.2z"/>
		<rect x="-508.2" y="113.8" fill="#4D2F67" width="2.5" height="0.3"/>
		<rect x="-502.8" y="113.4" fill="#4D2F67" width="0.7" height="0.7"/>
		<rect x="-503.6" y="113.4" fill="#4D2F67" width="0.7" height="0.7"/>
		<rect x="-504.4" y="111.7" fill="#4D2F67" width="0.7" height="0.7"/>
		<rect x="-504.5" y="113.4" fill="#4D2F67" width="0.7" height="0.7"/>
		<rect x="-505.3" y="113.4" fill="#4D2F67" width="0.7" height="0.7"/>
		<rect x="-500.2" y="111.7" fill="#4D2F67" width="0.7" height="0.7"/>
		<rect x="-501.1" y="111.7" fill="#4D2F67" width="0.7" height="0.7"/>
		<rect x="-501.9" y="111.7" fill="#4D2F67" width="0.7" height="0.7"/>
		<rect x="-502.7" y="111.7" fill="#4D2F67" width="0.7" height="0.7"/>
		<rect x="-503.6" y="111.7" fill="#4D2F67" width="0.7" height="0.7"/>
		<rect x="-504.9" y="112.5" fill="#4D2F67" width="0.7" height="0.7"/>
		<rect x="-501.5" y="112.5" fill="#4D2F67" width="0.7" height="0.7"/>
		<rect x="-502.4" y="112.5" fill="#4D2F67" width="0.7" height="0.7"/>
		<rect x="-503.2" y="112.5" fill="#4D2F67" width="0.7" height="0.7"/>
		<rect x="-504.1" y="112.5" fill="#4D2F67" width="0.7" height="0.7"/>
		<rect x="-500.7" y="112.5" fill="#4D2F67" width="0.7" height="0.7"/>
		<rect x="-499.9" y="112.5" fill="#4D2F67" width="0.7" height="0.7"/>
		<polygon fill="#4D2F67" points="-501.2,113.6 -501.2,113.4 -502,113.4 -502,114.1 -501.7,114.1 		"/>
		<polygon fill="#4D2F67" points="-501.2,113.6 -501.1,113.6 -501,113.4 -501.2,113.4 -501.2,113.6 		"/>
		<polygon fill="#4D2F67" points="-506,112.1 -507,112.1 -507.9,113.7 -506,113.7 		"/>
		<rect x="-506.4" y="111.4" fill="#4D2F67" width="0.2" height="0.6"/>
		<rect x="-506.8" y="111.7" fill="#4D2F67" width="0.2" height="0.3"/>
		<polygon fill="#4D2F67" points="-498.1,112.5 -498.1,113.3 -498,113.3 -498,112 -498.1,112 -498.1,112.3 -498.7,113.3 
			-498.6,113.3 		"/>
	</g>
</g>
<g id="GA">
	<path inkscape:connector-curvature="0" d="M-504.1,95.6l0-0.6l-0.2,0.5L-504.1,95.6L-504.1,95.6z M-503.9,94.6l-0.1-0.5l-0.1,0.3
		L-503.9,94.6z M-514,81.3l-0.3,0.1l-0.8,0.2l-3,0.6l-0.3,0.1l-0.3,0l-1.7,0.3l-0.4,0.1l-1.9,0.3l-0.4,0l0,0l2.9,8.6l1.6,2.7
		l-0.4,0.4l-0.2,1.7l0.5,0.8l0,1.6l0.6,1.1v0l0,0l0.7,1.1l10.3-1.3l0.3,0.8l0.3-1.6l0.6-0.4l1.5,0.1l0,0l-0.1-2.3l0.3-0.5l-0.2-0.9
		l0.3-0.9l0.4-0.5l-0.3-0.3l0.8-0.9h0l-1.3-1.2l-1.8-2.5l-1-0.4l-4.2-3.4l-1-1.3l-2-0.8l-0.1-0.4L-514,81.3L-514,81.3L-514,81.3z"/>
	<text transform="matrix(1.0285 0 0 1 -515.7234 93.2868)" font-family="'ArialMT'" font-size="2.6153">GA</text>
	<g id="port_1_">
		<path fill="#4D2F67" d="M-504.9,96.1l-0.8,0.8h-6.6c0.6,0.9,0.9,1,0.9,1h9c1.5-0.9,1.6-1.9,1.6-1.9H-504.9z M-501.9,97.5h-10
			l-0.2-0.3h10.5L-501.9,97.5z M-501.8,97c-0.1,0-0.2-0.1-0.2-0.2s0.1-0.2,0.2-0.2c0.1,0,0.2,0.1,0.2,0.2S-501.6,97-501.8,97z"/>
		<rect x="-512.2" y="96.6" fill="#4D2F67" width="2.5" height="0.3"/>
		<rect x="-506.9" y="96.1" fill="#4D2F67" width="0.7" height="0.7"/>
		<rect x="-507.7" y="96.1" fill="#4D2F67" width="0.7" height="0.7"/>
		<rect x="-508.4" y="94.5" fill="#4D2F67" width="0.7" height="0.7"/>
		<rect x="-508.5" y="96.1" fill="#4D2F67" width="0.7" height="0.7"/>
		<rect x="-509.4" y="96.1" fill="#4D2F67" width="0.7" height="0.7"/>
		<rect x="-504.3" y="94.5" fill="#4D2F67" width="0.7" height="0.7"/>
		<rect x="-505.1" y="94.5" fill="#4D2F67" width="0.7" height="0.7"/>
		<rect x="-505.9" y="94.5" fill="#4D2F67" width="0.7" height="0.7"/>
		<rect x="-506.8" y="94.5" fill="#4D2F67" width="0.7" height="0.7"/>
		<rect x="-507.6" y="94.5" fill="#4D2F67" width="0.7" height="0.7"/>
		<rect x="-508.9" y="95.3" fill="#4D2F67" width="0.7" height="0.7"/>
		<rect x="-505.6" y="95.3" fill="#4D2F67" width="0.7" height="0.7"/>
		<rect x="-506.4" y="95.3" fill="#4D2F67" width="0.7" height="0.7"/>
		<rect x="-507.3" y="95.3" fill="#4D2F67" width="0.7" height="0.7"/>
		<rect x="-508.1" y="95.3" fill="#4D2F67" width="0.7" height="0.7"/>
		<rect x="-504.8" y="95.3" fill="#4D2F67" width="0.7" height="0.7"/>
		<rect x="-503.9" y="95.3" fill="#4D2F67" width="0.7" height="0.7"/>
		<polygon fill="#4D2F67" points="-505.3,96.4 -505.3,96.1 -506,96.1 -506,96.9 -505.7,96.9 		"/>
		<polygon fill="#4D2F67" points="-505.2,96.3 -505.2,96.3 -505.1,96.1 -505.2,96.1 -505.2,96.3 		"/>
		<polygon fill="#4D2F67" points="-510,94.9 -511.1,94.9 -511.9,96.5 -510,96.5 		"/>
		<rect x="-510.5" y="94.2" fill="#4D2F67" width="0.2" height="0.6"/>
		<rect x="-510.8" y="94.5" fill="#4D2F67" width="0.2" height="0.3"/>
		<polygon fill="#4D2F67" points="-502.2,95.3 -502.2,96.1 -502.1,96.1 -502.1,94.7 -502.2,94.7 -502.2,95.1 -502.8,96.1 
			-502.7,96.1 		"/>
	</g>
</g>
<g id="MS">
	<path inkscape:connector-curvature="0" d="M-533,105.8l-0.1,0v0L-533,105.8L-533,105.8z M-531,105.5h-0.3H-531L-531,105.5
		L-531,105.5z M-533.5,105.7L-533.5,105.7l-0.1,0.1L-533.5,105.7L-533.5,105.7z M-531.5,105.6h-0.8H-531.5L-531.5,105.6z
		 M-540.5,85.4L-540.5,85.4l-0.9,1.5l0.1,1.1l-1.2,1.3l0.3,0.4l-0.8,3.4l0.4,0.7l-0.2,0.2l0,0.5v0.2l0.5,1.1l0,0.7l0.8,1l-1.7,2.7
		l-0.3,1.7l-0.4,0.6l0.3,0.8l-0.3,0.3l7.5-0.8l-0.3,1l1,1.8l0.5,0.6v0l0.8-0.9l1.7-0.4l1.6,0.2l0.2-0.3v0l-1.1-6.5l0-4.8l-0.1-8.7
		l-0.3-0.2l-0.1-0.2h0l-1.1,0.2l-1.9,0.2l-4.4,0.5L-540.5,85.4L-540.5,85.4z"/>
	<text transform="matrix(1.0285 0 0 1 -540.0451 96.0114)" font-family="'ArialMT'" font-size="2.6153">MS</text>
</g>
<g id="SC">
	<path inkscape:connector-curvature="0" d="M-514,81.3L-514,81.3l-0.6,1.1l0.1,0.4l2,0.8l1,1.3l4.2,3.4l1,0.4l1.8,2.5l1.3,1.2l0,0
		l0.2-1l-0.4-0.9l0.9,0.7l0.5-0.4l-0.9-0.7l1.1-0.1l1.7-1.4l-0.2-0.4l1-0.8l-0.1-0.4l0.8-0.5l0-1.1l1.2-2.2l0.8-1l0.1,0l-4.8-3
		l-1.8,0.3l-2.5-0.1l-1.2-0.6L-514,81.3L-514,81.3L-514,81.3z"/>
	<text transform="matrix(1.0285 0 0 1 -507.4289 86.2034)" font-family="'ArialMT'" font-size="2.6153">SC</text>
</g>
<g id="IL">
	<path inkscape:connector-curvature="0" d="M-545.4,52.5l0,0.1l0.8,0.5l0.3,0.5l0.9,0.8l0,0.7l-0.5,1.3l-1.1,0.8l-1,0.2l-0.2,1.1
		l0.3,0.2l-0.3,2.2l-0.8,0.5l0.2,0.8l-0.2,0.1l0,0l-0.2,0.9l0.7,1.9l2.5,2l0.2,1l0.5,0.5l1.6-0.1l-0.3,1.4l-0.1,1.5l0.9,0.7l1.5,0.6
		l0.8,0.6l0.4,1.2l-0.2,0.4l1.6,1.2l0.1,0l-0.1-0.1l0.4-1l1.7,0.4l0.4-0.5l-0.3-0.9l1.4-0.8l-0.4-0.5l0.3-0.7l0,0l-0.1,0l0-1.9
		l0.5-0.3l0.8-1.9l-0.2-0.8l-0.5-1l0.3-1.1l-1.5-10.4l-0.2-0.2l-0.6-1.3l-0.4-0.5l-0.2-1.2v0l-2.9,0.4l-1.8,0.2L-545.4,52.5
		L-545.4,52.5L-545.4,52.5z"/>
	<text transform="matrix(1.0285 0 0 1 -542.2856 63.9739)" font-family="'ArialMT'" font-size="2.6153">IL</text>
</g>
<g id="IN">
	<path inkscape:connector-curvature="0" d="M-525.5,52.9l-3.3,0.6l-0.8,0.2l-2.7,0.4l-0.6,0.4l-0.8,0.4l-0.3,0l-0.4-0.2l-0.1-0.1
		L-533,65l-0.3,1.1l0.5,1l0.2,0.8l-0.8,1.9l-0.5,0.3l0,1.9l0.1,0l0.1,0l0.3-0.6h0.8l1-0.3l1.2,0.4l0.1-0.5l0.7-0.5l1,0.2l0.6-1.1
		l1.6,0.1l0-0.6l1.4-1.8l-0.2-0.8l1,0l1.2-0.9l-0.3-1l0,0l0-0.4l-1.3-7.5l-0.6-3.2l-0.1-0.3L-525.5,52.9L-525.5,52.9z"/>
	<text transform="matrix(1.0285 0 0 1 -531.4146 63.3195)" font-family="'ArialMT'" font-size="2.6153">IN</text>
</g>
<g id="KY">
	<path inkscape:connector-curvature="0" d="M-538.3,78.4l-0.1-0.2l-0.1,0l-0.1,0.3l0,0L-538.3,78.4L-538.3,78.4L-538.3,78.4z
		 M-523.4,64.6L-523.4,64.6l0.2,1.1l-1.2,0.9l-1,0l0.2,0.8l-1.4,1.8l0,0.6l-1.6-0.1l-0.6,1.1l-1-0.2l-0.7,0.5l-0.1,0.5l-1.2-0.4
		l-1,0.3h-0.8l-0.3,0.6l-0.1,0v0.1l-0.3,0.7l0.4,0.5l-1.4,0.8l0.3,0.9l-0.4,0.5l-1.7-0.4l-0.4,1l0.1,0.1l0,0.1l-0.2,1.7l-0.1,0
		l-0.6,0.3l0,0.1l0.6-0.1l4.4-0.6l-0.2-0.8l0.7,0l8.9-1.1l6.2-1l0.1-0.1l0.2-0.2l1.6-0.8l1.3-1.6l0.2-0.5l0.8-0.6l1-1.3l0.2-0.2
		l-0.1,0h-0.5l-0.7-0.4l-1.2-1.5l-0.4-1.5v0l0,0l-0.9-0.5l-0.4-0.7l-0.8,0.8l-0.5,0.1l-0.6-0.3l-0.6,0.4l-1.2-0.5l-0.3,0.1l-1.1-0.9
		l-0.6-0.3l-1.1,0.1L-523.4,64.6L-523.4,64.6z"/>
	<text transform="matrix(1.0285 0 0 1 -525.4742 73.5636)" font-family="'ArialMT'" font-size="2.6153">KY</text>
</g>
<g id="NC">
	<path inkscape:connector-curvature="0" d="M-494.1,81.7l-0.2,0.2l0,0L-494.1,81.7L-494.1,81.7z M-494,80.5l-0.1,0.2l0,0.2
		L-494,80.5L-494,80.5z M-492.7,78.5l-0.3,0.2l-0.2,0.3L-492.7,78.5L-492.7,78.5z M-489.9,77.2l-0.1-0.1l-0.3,0L-489.9,77.2
		L-489.9,77.2z M-490.5,77h-0.2l-0.3,0.2L-490.5,77z M-489.8,77.3l0.6-1.5l-0.4,0.6L-489.8,77.3L-489.8,77.3z M-488.8,75.3l0.3-0.4
		h-0.2L-488.8,75.3z M-487,73.6l-0.5-2.4l0.4,1.2L-487,73.6L-487,73.6z M-489.7,68.3L-489.7,68.3l-0.1,0l0,0h0l1.2,2l0.9,0.9
		L-489.7,68.3L-489.7,68.3L-489.7,68.3z M-490.1,68.4l-0.2,0l0,0l0,0h0.4l0-0.1l0,0l-0.1,0L-490.1,68.4L-490.1,68.4L-490.1,68.4
		L-490.1,68.4L-490.1,68.4L-490.1,68.4L-490.1,68.4z M-510.2,73.2l-0.1,0.3l0,0.9l-0.2,0l-0.6,1.1l-0.6,0.1l-1.2,1.1l-0.5-0.2
		l-0.7,1l-1.8,1.6l-0.9,0.2l-0.9,0.8l0,0.5l-0.8,0.4l0,0.9v0.2l0.3-0.1l3-0.6l0.8-0.2l0.3-0.1h0.1l7.2-2.2l1.2,0.6l2.5,0.1l1.8-0.3
		l4.8,3l0.1-0.1l2.2-0.9l0-1.1l0.8-1.4l0.9-0.8l1.8-1.1l0.2-0.4l0.5,0.2l0.2-1.4l-0.3,0.5l-0.9,0.3l-0.9,0l1.1-0.8l-0.3-0.3l0.4-0.8
		l-2-0.3l-0.1-0.1l1.8-0.3l0.6,0.3l0.7-0.1l0.6-0.4l0.4-0.8l0.4-0.1l-0.1-1.1l-0.5-0.5l-0.5,0.4l0.1,1.1l-0.4-1.4l-0.3-0.1l-2.2,0.9
		l1-0.9l0-0.4l1-0.2l0.3-0.7l0.7,0.4l-0.7-1l-0.5-0.4l0,0l-8.7,2.4l-5.6,1.4L-510.2,73.2L-510.2,73.2L-510.2,73.2z"/>
	<text transform="matrix(1.0285 0 0 1 -502.0497 76.7228)" font-family="'ArialMT'" font-size="2.6153">NC</text>
</g>
<g id="OH">
	<path inkscape:connector-curvature="0" d="M-510.3,54.3l-0.5-2.3l-0.1-0.5l-0.6-2.6l-0.8,0.5l-1.7,1.3l-1.1,1.3l-0.8,0.1l-1.6,0.9
		l-0.9-0.5l-2.6-0.3l0,0l-1.4,0.3l-1.4,0.3l-1.4,0.3l-0.2,0.1l0.1,0.3l0.6,3.2l1.3,7.5l0,0.4l0.2-0.1l1.1-0.1l0.6,0.3l1.1,0.9
		l0.3-0.1l1.2,0.5l0.6-0.4l0.6,0.3l0.5-0.1l0.8-0.8l0.4,0.7l0.9,0.5l0,0l0,0l0.9-0.4l0.3-0.7l-0.3-0.7l0.7-1.1l0.5-0.1l-0.1-0.9
		l0.9-1.2l0.2,0.2l0.8-0.6l0.7-1l0.1-4.6l0,0L-510.3,54.3L-510.3,54.3z"/>
	<text transform="matrix(1.0285 0 0 1 -520.9915 59.9425)" font-family="'ArialMT'" font-size="2.6153">OH</text>
</g>
<g id="TN">
	<path inkscape:connector-curvature="0" d="M-517.4,74.8l-6.2,1l-8.9,1.1l-0.7,0l0.2,0.8l-4.4,0.6l-0.6,0.1v0l-0.2,0.2l-0.1,0v-0.2
		v0l-0.2,0l0,0l0.1,0.6l-0.4,0.5l0,1v0.2v0l-0.6,1.2l0.1,0.9l-0.6,0.9l0.2,0.8l-0.8,0.7l0,0l0.5,0l4.4-0.5l1.9-0.3l1.1-0.2h0l0,0
		l3.6-0.5l1.8-0.2l3.5-0.5l0.6-0.1l0.4,0l1.9-0.3l0.4-0.1l1.7-0.3l0.3,0V82l0-0.9l0.8-0.4l0-0.5l0.9-0.8l0.9-0.2l1.8-1.6l0.7-1
		l0.5,0.2l1.2-1.1l0.6-0.1l0.6-1.1l0.2,0l0-0.9l0.1-0.3l-0.4,0.1l-1.2,0.3l-1.5,0.3l-3.7,0.7l-0.4,0.1L-517.4,74.8L-517.4,74.8z"/>
	<text transform="matrix(1.0285 0 0 1 -529.2854 81.1911)" font-family="'ArialMT'" font-size="2.6153">TN</text>
</g>
<g id="VA">
	<path inkscape:connector-curvature="0" d="M-490,68.3L-490,68.3l0.1,0l0,0l0-0.1L-490,68.3L-490,68.3L-490,68.3z M-490.7,66v0.1
		l0.1-0.1L-490.7,66z M-490.3,65.2l0-0.2l0,0L-490.3,65.2z M-490.5,65.5l0,0.3l-0.1,0.1L-490.5,65.5L-490.5,65.5z M-490.3,64.9
		l0-0.1L-490.3,64.9L-490.3,64.9L-490.3,64.9z M-490.1,64.3l0.1-0.2l-0.1,0.4L-490.1,64.3z M-490.1,64l0.1-0.5l-0.1,0.1L-490.1,64
		L-490.1,64z M-489.7,61.9l0-0.2l0,0L-489.7,61.9L-489.7,61.9z M-489.8,61.4l-0.3,0.1l-0.4,0.2l-0.2,0.2l0.1,0l-0.5,3.2l0.2,0.5
		l0.3-1.3l0.6-1.7L-489.8,61.4L-489.8,61.4L-489.8,61.4z M-489.4,61.3L-489.4,61.3l-0.1,0.1l-0.1,0.6l0.1-0.2L-489.4,61.3
		L-489.4,61.3z M-512.1,69.4l-0.2,0.2l-1,1.3l-0.8,0.6l-0.2,0.5l-1.3,1.6l-1.6,0.8l-0.2,0.2l0.4-0.1l3.7-0.7l1.5-0.3l1.2-0.3
		l0.4-0.1l0,0l5.6-1l5.6-1.4l8.7-2.4l0,0l-0.1-0.1l0-0.1l0.2,0.2l0,0l0,0l0.2,0l0,0l-0.2-0.7l0.1,0l0.4,0.6l0,0l0,0l0.1,0l0,0
		l-0.1-0.2l-0.9-1.3l-1.1,0.2l-0.5,0.4l-0.5-0.4l-1.6-0.5l-1.1,0l2.2-0.2l1.2,0.8l0.4-0.5l-1-1.2l0.7,0l-0.4-1l-0.9,0l-2.1-1.6h-0.3
		l2.9,1.4l-0.2-1l0.2-0.3l-1.5-0.5l-1.3-0.1l-0.6-0.5l-0.5,0.3l-0.2-1.5l0.2,0l0-1.2l0,0l0,0l0,0l-0.1-0.1l-0.1-0.1l-0.7-0.3
		l-0.7-0.5l-1-0.3l-0.1,0v0l-0.1,0.9l-2-0.8l0,1.2l-1.1,2.1l-0.7,0.7l-0.4,1.3l-1.3-0.4l-0.6,2.9l-0.5,1l-0.1,1.3l-0.4,0.6l-1.5,0.4
		l-1.2,0.9l-0.6,0.1l-0.5,0.5l-1.4-0.5L-512.1,69.4L-512.1,69.4L-512.1,69.4z"/>
	<text transform="matrix(1.0285 0 0 1 -502.6094 67.897)" font-family="'ArialMT'" font-size="2.6153">VA</text>
</g>
<g id="WI">
	<path inkscape:connector-curvature="0" d="M-535.5,38.7l-0.5,0.6l-0.3,1l0.2,0.5L-535.5,38.7z M-548,33.7l0.3-0.4l-0.2,0.2
		L-548,33.7z M-547.5,33l-0.1-0.1l-0.2,0.2L-547.5,33L-547.5,33z M-552.2,34.2l-0.5,0.5l0.2,2.5l-1.4,1.2l-0.3,1.2l0.8,0.7l-0.2,2.9
		l0.8,0.6l0.5,0l1.7,1l1,1.1l1.3,0.6l0.3,1.6v0.1l0,0l0.6,0.7l-0.2,0.6l0.2,1.3l0.6,0.9l1.2,0.6l0,0.1l0,0l4.8-0.5l1.8-0.2l2.9-0.4
		L-536,51v-1l-0.6-1.1l-0.2-1.3l0.3-1.5l-0.2-1.1l0.5-1.4l-0.2-0.2l0-1.3l0.3-1l-0.3-0.3l-0.7,0.2l-0.4,0.9l-0.8,0.5l0.3-1.1l0.7-1
		l0-0.4l0,0l-1-1v-1.4l-1.2-0.9l-1.6-0.1l-1.7-0.4l-3.6-1.1l-0.7-0.4l-0.1,0.1l-1.1-0.2l-0.4,0.2l0.2-1.6l-1.8,0.9L-552.2,34.2
		L-552.2,34.2L-552.2,34.2z M-548,33.1l0-0.2l-0.2,0.1L-548,33.1z M-548.7,32.9l0.1-0.1l0,0L-548.7,32.9L-548.7,32.9z M-547.1,32.5
		l-0.1-0.3l-0.1,0.4L-547.1,32.5z"/>
	<text transform="matrix(1.0285 0 0 1 -547.4418 45.0125)" font-family="'ArialMT'" font-size="2.6153">WI</text>
</g>
<g id="WV">
	<path inkscape:connector-curvature="0" d="M-506.1,58l-3.1,0.7l-1-4l0,0l0,0l-0.1,4.6l-0.7,1l-0.8,0.6l-0.2-0.2l-0.9,1.2l0.1,0.9
		l-0.5,0.1l-0.7,1.1l0.3,0.7l-0.3,0.7l-0.9,0.4l0,0v0l0.4,1.5l1.2,1.5l0.7,0.4h0.5l0.1,0l0,0l0.2,0.6l1.4,0.5l0.5-0.5l0.6-0.1
		l1.2-0.9l1.5-0.4l0.4-0.6l0.1-1.3l0.5-1l0.6-2.9l1.3,0.4l0.4-1.3l0.7-0.7l1.1-2.1l0-1.2l2,0.8l0.1-0.9v0l0,0l-0.6-1.1l-1.3-0.2
		l-0.8,0.6v0.4l-0.6,0.2l-1,0.6l-0.5,0.1l-1,1.4l-0.5-2.2L-506.1,58L-506.1,58z"/>
	<text transform="matrix(1.0285 0 0 1 -513.4817 67.0241)" font-family="'ArialMT'" font-size="2.6153">WV</text>
</g>
<g id="DE">
	<path inkscape:connector-curvature="0" d="M-493.3,54.5l0.1,0.3l1.8,5l2.1-0.6l0,0h0l0.1,0l0,0l0,0l0-0.1l-0.5-1.4l-2.6-2.4
		l0.1-1.6l0,0h-0.5l-0.4,0.3L-493.3,54.5L-493.3,54.5L-493.3,54.5z"/>
	<text transform="matrix(1.0285 0 0 1 -487.7023 59.5423)" font-family="'ArialMT'" font-size="2.6153">DE</text>
	<polygon points="-489.9,58 -487.3,57.8 -487.3,57.8 -489.8,58.1 	"/>
</g>
<g id="DC">
	<path inkscape:connector-curvature="0" d="M-496.9,59.2l0.1,0.1l0,0l0,0l0,0l0.2,0.1l0,0.1v0.2l0,0.1l0.3-0.5l-0.3-0.2l-0.4,0
		L-496.9,59.2L-496.9,59.2z"/>
	<text transform="matrix(1.0285 0 0 1 -481.2397 70.8577)" font-family="'ArialMT'" font-size="2.6153">DC</text>
	<polygon points="-496.2,59.3 -481.4,69.2 -481.4,69.4 -496.3,59.4 	"/>
</g>
<g id="MD">
	<path inkscape:connector-curvature="0" d="M-489.3,61.2l0.2-1.1l-0.1,0.8L-489.3,61.2l-0.1,0.1l0.1,0L-489.3,61.2L-489.3,61.2z
		 M-489.2,59.2L-489.2,59.2v0.1v0.3V59.2L-489.2,59.2L-489.2,59.2z M-505.7,57.9l0.5,2.2l1-1.4l0.5-0.1l1-0.6l0.6-0.2v-0.4l0.8-0.6
		l1.3,0.2l0.6,1.1l0,0l0.1,0l1,0.3l0.7,0.5l0.7,0.3l0.1,0.1l0.1-0.2l0.4,0l0.3,0.2l-0.3,0.5v0l-0.4,1.2l1.4,0.8l1.4,0.1l0.9,0.4
		l-0.4-1l-1.1-0.4L-495,60l0.7,0.9l0.6,0.1l-0.5-0.5l-0.4-1.5l0.1-0.9l-0.4-1l0.5-0.4l0.4-1.2l-0.1,1.8l0.4,0.6l0.4-0.7l0.2,1.2
		l-0.4,0.9l1.1,0.4l-0.9,0.3l0.5,0.9l0.8,0.3l0.4-0.7l0,1l0.7,0l0.5,0.5h0l0.2-0.2l0.4-0.2l0.3-0.1l0,0l0.6-1.6v-0.1l-0.1-0.4v0
		l-2.1,0.6l-1.8-5l-0.1-0.3l-0.4,0.1l-1.6,0.5l-8.5,2.4l-1.6,0.4L-505.7,57.9L-505.7,57.9z"/>
	<text transform="matrix(1.0285 0 0 1 -488.0766 64.0465)" font-family="'ArialMT'" font-size="2.6153">MD</text>
	<polygon points="-489.7,60.9 -487.6,62.1 -487.7,62.2 -489.8,61 	"/>
</g>
<g id="NY">
	<path inkscape:connector-curvature="0" d="M-488.9,48.9l-0.3,0.4l-0.1,0.1L-488.9,48.9z M-485.9,47.9l1.1-0.9v0L-485.9,47.9
		L-485.9,47.9z M-488.8,48.5v-0.7l-0.1,0.4L-488.8,48.5z M-483.7,45.1l-0.3-0.1l0,0.2L-483.7,45.1z M-483.2,44.8l0,0.2l0-0.1
		L-483.2,44.8L-483.2,44.8z M-483.8,44.8l-1.5,1.3l-2.2,0.9l-0.6,0.5l0,0.5l-0.6,0.5l0.1,0.6l0.9-0.4l1.4-1.1l1.5-0.8l2.3-2.1
		l-1.6,1.2l-0.5,0.2L-483.8,44.8L-483.8,44.8z M-483.1,43.9l0.1-0.1l-0.3,0.3L-483.1,43.9z M-507.5,43.1l-0.3,0l0.3,0.3L-507.5,43.1
		L-507.5,43.1z M-500.3,36.6l0-0.2l-0.2,0.2L-500.3,36.6L-500.3,36.6z M-500.2,35.1L-500.2,35.1l-0.2,0.3L-500.2,35.1L-500.2,35.1z
		 M-509.4,47.1l0.2,0.6l1.1,0.3l6.6-1.8l6.7-1.9l1.2,0.9l0.2,0.5l1.4,0.6l0,0.1l0.4,0.1l0.4,0.1l2.3,0.5l0-0.1l0.2,0.9l0.4-0.1
		l0.2-1v0l-0.4-0.4l0.6-0.7l-0.3-0.3l-0.8-3.1l0-0.2l-0.1-0.1l-0.1-0.9l-0.1-1l-0.1-1.1v-0.1l0,0l-1.1-3.5l-1.1-1.8l-0.3-2.1l-1-2.2
		l-0.1,0.1l-4.5,1.6l-0.9,1l-1,1.9l0,0.4l-1.4,2l0.8,0.3l0.2,1.5l-1,1.2l-2.9,1.7l-0.5-0.2l-2.1,0.3l-2,1.1l0.1,0.6l0.7,0.6
		l-0.4,1.9L-509.4,47.1L-509.4,47.1L-509.4,47.1z"/>
	<text transform="matrix(1.0285 0 0 1 -498.687 41.4164)" font-family="'ArialMT'" font-size="2.6153">NY</text>
</g>
<g id="PA">
	<path inkscape:connector-curvature="0" d="M-492,46.3l-1.4-0.6l-0.2-0.5l-1.2-0.9l-6.7,1.9l-6.6,1.8l-1.1-0.3l-0.2-0.6l-0.4,0.3
		l-0.6,0.4l-1.1,1.1l-0.1,0.1l0.6,2.6l0.1,0.5l0.5,2.3l0.1,0.4l0,0l1,4l3.1-0.7l0.4-0.1l0.4-0.1l1.6-0.4l8.5-2.3l1.6-0.5l0.4-0.1
		l0,0l0.2-0.4l0.4-0.3h0.5l0.1-0.2l0.8-0.9l0.1-0.2l0.1,0l-0.8-2.2l-0.4-0.1l0-1.4l-0.4-0.5l0.9-2l0,0L-492,46.3L-492,46.3z"/>
	<text transform="matrix(1.0285 0 0 1 -505.0755 53.6226)" font-family="'ArialMT'" font-size="2.6153">PA</text>
</g>
<g id="ME">
	<path inkscape:connector-curvature="0" d="M-481.5,35.1L-481.5,35.1L-481.5,35.1L-481.5,35.1L-481.5,35.1z M-479.9,30.6l-0.2-0.3
		v0.1L-479.9,30.6z M-480.2,30.4v-0.2l0-0.1L-480.2,30.4z M-479.4,29.5L-479.4,29.5L-479.4,29.5L-479.4,29.5L-479.4,29.5z
		 M-477.2,28.4l0-0.3l-0.1,0.2L-477.2,28.4z M-477.8,28.5l0-0.2l-0.3,0L-477.8,28.5L-477.8,28.5z M-476.9,27.8L-476.9,27.8
		L-476.9,27.8L-476.9,27.8z M-478,28.2l-0.2,0l0,0.2L-478,28.2L-478,28.2z M-476.9,27.5l0.2,0.2l-0.1-0.2L-476.9,27.5z M-477.5,27.5
		l-0.2,0.4l0.3-0.1L-477.5,27.5L-477.5,27.5z M-478.4,27.5l-0.1,0.1l0.1,0.2L-478.4,27.5L-478.4,27.5z M-477.2,26.8l0-0.2
		L-477.2,26.8L-477.2,26.8L-477.2,26.8z M-477.3,26.9l-0.2-0.2v0.2L-477.3,26.9z M-478.5,27.4l0-0.2l-0.1,0.2L-478.5,27.4z
		 M-476.4,26.7l-0.3,0.5l0-0.3L-476.4,26.7z M-474.8,25.2L-475,25l-0.1,0L-474.8,25.2z M-474.2,24.3l-0.1-0.1l0,0.1H-474.2
		L-474.2,24.3z M-474,22.6h-0.2H-474L-474,22.6L-474,22.6z M-473.6,22.8l-0.1-0.4l-0.2,0C-473.9,22.5-473.6,22.8-473.6,22.8z
		 M-474,22.5l0-0.4l-0.2,0.3L-474,22.5L-474,22.5z M-486.6,25.8l3.2,7.2l0,0.2l1.4,1.6v0l0.2-0.1l0-1.2l0.4-0.4l0.2-1.1l-0.2-0.2
		l0.4-1.1l1.3-0.6l0.8-1l0.3-1.7l1.3-0.1l-0.2-0.9l1.7-0.6l0.1-1l0.4,0.1l1.1-0.9l0.5-1.1l-1.1-1.1l-1.2-0.2l-0.4-0.9v-0.5l-0.7,0.2
		l-0.8-0.3v-0.9l-2.2-4.6l-1.6-0.8l-1.8,1.4l-0.5-0.1l-0.4-0.7l-0.6,0.2l-0.8,3.9l0.3,1.3l0.2,2.6l-0.6,2l0.4,0.3l-0.5,1
		L-486.6,25.8L-486.6,25.8L-486.6,25.8z"/>
	<text transform="matrix(1.0285 0 0 1 -483.8919 24.9622)" font-family="'ArialMT'" font-size="2.6153">ME</text>
</g>
<g id="MI">
	<path inkscape:connector-curvature="0" d="M-532.3,39.4l-0.1-0.2l0,0.2L-532.3,39.4z M-532,39l-0.3-0.3l0,0.2L-532,39z
		 M-531.8,37.5l-0.2-0.2v0L-531.8,37.5z M-532.3,54.1l2.7-0.4l0.8-0.2l3.3-0.6l0.1,0.3l0.2-0.1l1.4-0.3l1.4-0.3l1.4-0.3l0-0.1
		l0.7-1.4l-0.1-1.1l0.8-2l0.6,0.4l0.2-0.4l-0.1-1.7l-0.6-1.1l-0.9-2.2l-0.8-0.8l-0.4-0.1l-1.4,1l0.2,0.2l-0.7,1.4l-0.7-0.1l-0.2-1.4
		l0.3-0.1l0.6-1.4l0.1-2.5l-1-2.2l-2.2-0.3l-0.2-0.3l-2-0.6l-0.9,1.1l0.1,1l-0.7,0.8l0.2,1.3l-0.7,0.5v-1.7l-0.6,1.3l-0.7,1.1
		l-0.5,0.4l0.2,1.1l-0.3,1.2l0.2,1.5l-0.2,0.7l1.6,2.9l0.2,1.1l-0.2,2.1l-1,2.3L-532.3,54.1L-532.3,54.1z M-527.6,35l-0.6,0l0.4,0.3
		L-527.6,35L-527.6,35z M-530.9,35.5h-0.2H-530.9L-530.9,35.5z M-527.1,32.9l-0.2-0.3l-0.1,0L-527.1,32.9L-527.1,32.9z M-546.9,34.4
		l0.7,0.4l3.6,1.1l1.7,0.4l1.6,0.1l1.2,0.9v1.4l1,1v0l0.8-2.4l1-0.7l0.8-0.8l0.1,0.8l0.8-1.2l1.9-0.7l0.2-0.3l2,0.2l0.8,0.4l0.4-0.9
		l0.4,0.2l1.5-0.2l-0.4-0.6l-0.7-0.4l0.1-1.4l-1.3,0.7l-1.2-0.2l-0.4-0.9l0.1-0.3l-1.7,0.8l-1.1,0.1l-1.9,1.1l-0.2,0.4l-1.2-0.3
		l-0.7,0.3l-1.5-1.3l-3.3-1l-0.1-0.4l-2.1,2l-1.2,0.3l-1.7,1.3L-546.9,34.4L-546.9,34.4z M-539.1,29.6l-2.6,1.2l0.8,0.8l0.3-0.8
		l0.9-1L-539.1,29.6L-539.1,29.6z M-542,26.7l-1.8,1.1l-0.1,0.6l1.4-1L-542,26.7z"/>
	<text transform="matrix(1.0285 0 0 1 -528.9486 48.3913)" font-family="'ArialMT'" font-size="2.6153">MI</text>
</g>
<g id="AK">
	<path inkscape:connector-curvature="0" d="M-671,127.6l-0.1,0L-671,127.6L-671,127.6L-671,127.6z M-670.2,127.7L-670.2,127.7
		L-670.2,127.7L-670.2,127.7z M-670.6,127.4L-670.6,127.4L-670.6,127.4L-670.6,127.4L-670.6,127.4z M-670.8,127.3L-670.8,127.3
		L-670.8,127.3L-670.8,127.3z M-670.4,127.5L-670.4,127.5L-670.4,127.5L-670.4,127.5L-670.4,127.5z M-670.4,127.4L-670.4,127.4
		L-670.4,127.4L-670.4,127.4z M-670.4,127.2l0-0.1L-670.4,127.2L-670.4,127.2L-670.4,127.2z M-667.9,128.2L-667.9,128.2
		L-667.9,128.2L-667.9,128.2L-667.9,128.2z M-669.5,127.5l-0.2-0.2v0.5L-669.5,127.5z M-669,128l0-0.2l-0.4,0L-669,128L-669,128z
		 M-667.7,128.3L-667.7,128.3L-667.7,128.3L-667.7,128.3L-667.7,128.3z M-667.6,128.3L-667.6,128.3L-667.6,128.3L-667.6,128.3z
		 M-667.3,128.4L-667.3,128.4L-667.3,128.4L-667.3,128.4L-667.3,128.4z M-667.8,128.1l-0.2,0l0.1,0.1L-667.8,128.1L-667.8,128.1z
		 M-667.3,128.1L-667.3,128.1L-667.3,128.1L-667.3,128.1z M-666,128.4l-0.8,0.1l-0.2,0.1L-666,128.4z M-663.3,129.3L-663.3,129.3
		L-663.3,129.3L-663.3,129.3z M-662.2,129.3L-662.2,129.3L-662.2,129.3L-662.2,129.3z M-661.3,129.6L-661.3,129.6L-661.3,129.6
		L-661.3,129.6L-661.3,129.6z M-662,129.2L-662,129.2L-662,129.2L-662,129.2L-662,129.2z M-660.6,129.5L-660.6,129.5L-660.6,129.5
		L-660.6,129.5z M-661.7,129.2l0-0.1h0L-661.7,129.2L-661.7,129.2z M-658.1,128.9L-658.1,128.9L-658.1,128.9L-658.1,128.9
		L-658.1,128.9z M-658.6,128.7l-0.8,0.6l0.5,0l0.6-0.5L-658.6,128.7L-658.6,128.7z M-657.2,128.9l-0.2,0L-657.2,128.9L-657.2,128.9
		L-657.2,128.9z M-656.9,129l-0.2-0.1l0,0L-656.9,129z M-657.8,128.6h-0.2l0.4,0.1L-657.8,128.6z M-656.7,128.9L-656.7,128.9l-0.1,0
		L-656.7,128.9L-656.7,128.9z M-657.4,128.6L-657.4,128.6l-0.1,0.2L-657.4,128.6z M-654.6,129.1L-654.6,129.1L-654.6,129.1
		L-654.6,129.1L-654.6,129.1z M-654.6,129.1L-654.6,129.1L-654.6,129.1L-654.6,129.1L-654.6,129.1z M-654.9,129L-654.9,129
		L-654.9,129L-654.9,129L-654.9,129z M-654.7,129l-0.2-0.1l0.2,0.2L-654.7,129z M-654.4,128.8L-654.4,128.8L-654.4,128.8
		L-654.4,128.8z M-651.9,129.1L-651.9,129.1L-651.9,129.1L-651.9,129.1L-651.9,129.1z M-628.5,127.7L-628.5,127.7L-628.5,127.7
		L-628.5,127.7L-628.5,127.7z M-654.8,128.3L-654.8,128.3L-654.8,128.3L-654.8,128.3z M-627.8,127.3L-627.8,127.3l0.1,0.1
		L-627.8,127.3z M-651.6,128.9L-651.6,128.9L-651.6,128.9L-651.6,128.9L-651.6,128.9z M-654.3,128.5l0-0.2h0L-654.3,128.5
		L-654.3,128.5z M-626.6,126.8l-0.2,0.1l0.2,0.1L-626.6,126.8L-626.6,126.8z M-653.9,128.4L-653.9,128.4L-653.9,128.4L-653.9,128.4z
		 M-655.6,127.9l-0.5,0.1l-0.5,0.6L-655.6,127.9L-655.6,127.9z M-651.7,128.7l-0.1,0.1L-651.7,128.7L-651.7,128.7L-651.7,128.7z
		 M-626.6,126.7L-626.6,126.7L-626.6,126.7L-626.6,126.7L-626.6,126.7z M-653.7,128.2l-0.2,0l0.2,0.2V128.2L-653.7,128.2z M-628,127
		L-628,127v0.2V127z M-653.4,128.2L-653.4,128.2L-653.4,128.2L-653.4,128.2L-653.4,128.2z M-651.8,128.6L-651.8,128.6l-0.1,0
		L-651.8,128.6z M-653.6,128.2l-0.1-0.1L-653.6,128.2L-653.6,128.2z M-652.1,128.4l-0.2,0.1l-0.1,0.3L-652.1,128.4L-652.1,128.4z
		 M-628.5,126.9v0.2V126.9L-628.5,126.9L-628.5,126.9z M-654.7,127.7l0.2,0h0L-654.7,127.7L-654.7,127.7z M-654.9,127.6
		L-654.9,127.6L-654.9,127.6L-654.9,127.6L-654.9,127.6z M-628.5,126.8L-628.5,126.8L-628.5,126.8L-628.5,126.8L-628.5,126.8z
		 M-652.3,128L-652.3,128L-652.3,128L-652.3,128L-652.3,128z M-628.7,126.8l0-0.1l0,0L-628.7,126.8L-628.7,126.8z M-628.9,126.7
		L-628.9,126.7l0.1,0.1L-628.9,126.7L-628.9,126.7z M-651.5,127.7L-651.5,127.7L-651.5,127.7L-651.5,127.7L-651.5,127.7z
		 M-628.9,126.3l0.2,0.1l0.1-0.1L-628.9,126.3L-628.9,126.3z M-628.7,126.2L-628.7,126.2l0.1,0.1L-628.7,126.2z M-629.2,126.3
		L-629.2,126.3L-629.2,126.3L-629.2,126.3L-629.2,126.3z M-627,125.5l-0.3,0.8l0.3-0.2V125.5z M-652.8,127.1L-652.8,127.1
		L-652.8,127.1L-652.8,127.1z M-628.9,125.8l-0.2,0.2l0,0.2L-628.9,125.8L-628.9,125.8z M-649.2,127.5L-649.2,127.5L-649.2,127.5
		L-649.2,127.5z M-629.2,125.6l0.6,0.9l1.4,0.9l-0.3-0.7l-1.4-1.1L-629.2,125.6L-629.2,125.6z M-650,127.2L-650,127.2L-650,127.2
		L-650,127.2L-650,127.2z M-628.4,125.2l-0.1,0.3l0.2-0.1L-628.4,125.2L-628.4,125.2z M-628,125.2l0,0.2l0.2,0.1L-628,125.2
		L-628,125.2z M-649.3,126.9l-0.1,0l-0.1,0L-649.3,126.9L-649.3,126.9z M-647.1,127.1l-0.1,0.2L-647.1,127.1L-647.1,127.1
		L-647.1,127.1z M-646.8,127.1l-0.2,0l0.1,0.1L-646.8,127.1L-646.8,127.1z M-660,124.4l0.2,0.1l0,0L-660,124.4L-660,124.4z
		 M-651.3,126.5L-651.3,126.5L-651.3,126.5L-651.3,126.5z M-651.3,126.4L-651.3,126.4L-651.3,126.4L-651.3,126.4z M-628.8,124.8
		l0.1,0.4l0.2-0.1L-628.8,124.8L-628.8,124.8z M-650.7,126.2L-650.7,126.2L-650.7,126.2L-650.7,126.2z M-629.7,125l0.1,1l0.2-0.2
		L-629.7,125z M-629.6,124.7l0.5,0.7l-0.1-0.4L-629.6,124.7z M-631.1,124.8l-0.1,0.4l0.2-0.3L-631.1,124.8L-631.1,124.8z
		 M-648.5,125.9L-648.5,125.9L-648.5,125.9L-648.5,125.9z M-646.5,125.9L-646.5,125.9L-646.5,125.9L-646.5,125.9L-646.5,125.9z
		 M-631.1,124.5l0.9,1.4l-0.1-1L-631.1,124.5L-631.1,124.5z M-645.3,125.3L-645.3,125.3l0.1,0.1L-645.3,125.3L-645.3,125.3z
		 M-645.6,125.3L-645.6,125.3L-645.6,125.3L-645.6,125.3L-645.6,125.3z M-645.8,125.3l-0.6,0.4l-0.7,0.9l0.4,0.4l1.6-1.1
		L-645.8,125.3z M-632,123.9l-0.2-0.1v0.1L-632,123.9L-632,123.9z M-645.9,125L-645.9,125l0.2,0.2L-645.9,125L-645.9,125z
		 M-631.6,123.5l-0.4,0.2l0.4,0.1L-631.6,123.5L-631.6,123.5z M-631.9,123.5L-631.9,123.5L-631.9,123.5L-631.9,123.5L-631.9,123.5z
		 M-630.6,123.2l-0.2-0.1l0,0.1L-630.6,123.2z M-631.5,123.3l-0.2,0v0L-631.5,123.3L-631.5,123.3z M-631,123.2l0.9,1.3l-0.2-1.1
		L-631,123.2L-631,123.2z M-645.4,124.5l-0.5,0.4l0.2,0.3l0.7-0.5L-645.4,124.5L-645.4,124.5z M-651.3,123.7L-651.3,123.7
		L-651.3,123.7L-651.3,123.7z M-651.5,123.6l0-0.1L-651.5,123.6L-651.5,123.6z M-644.9,123.9L-644.9,123.9L-644.9,123.9
		L-644.9,123.9L-644.9,123.9z M-645.1,123.9L-645.1,123.9L-645.1,123.9L-645.1,123.9L-645.1,123.9z M-644.6,123.7L-644.6,123.7
		L-644.6,123.7L-644.6,123.7L-644.6,123.7z M-644.4,123.7L-644.4,123.7L-644.4,123.7L-644.4,123.7L-644.4,123.7z M-644.7,123.6
		L-644.7,123.6L-644.7,123.6L-644.7,123.6z M-640.3,123.2L-640.3,123.2L-640.3,123.2L-640.3,123.2L-640.3,123.2z M-639,122.5
		l0.3-0.3l-0.1,0.1L-639,122.5z M-641.7,122.5L-641.7,122.5l0.1-0.1L-641.7,122.5L-641.7,122.5z M-641.7,122.2L-641.7,122.2
		L-641.7,122.2L-641.7,122.2z M-645.2,122.2L-645.2,122.2L-645.2,122.2L-645.2,122.2L-645.2,122.2z M-641.8,122.2L-641.8,122.2
		l-0.1,0.2L-641.8,122.2z M-639.4,122L-639.4,122L-639.4,122L-639.4,122L-639.4,122z M-639.3,122L-639.3,122L-639.3,122L-639.3,122z
		 M-639.5,121.9L-639.5,121.9L-639.5,121.9L-639.5,121.9z M-641.3,122.1L-641.3,122.1L-641.3,122.1L-641.3,122.1L-641.3,122.1z
		 M-640,121.8L-640,121.8L-640,121.8L-640,121.8z M-641.1,121.9l-0.5,0.8l0.7-0.8L-641.1,121.9z M-641.7,122L-641.7,122L-641.7,122
		L-641.7,122L-641.7,122z M-640.1,121.8L-640.1,121.8L-640.1,121.8L-640.1,121.8L-640.1,121.8z M-639.5,121.8v-0.2l0,0.1
		L-639.5,121.8z M-655.5,120.2l-1,0l0.7,0.7L-655.5,120.2z M-640.6,121.7l0,0.2l0.1-0.2L-640.6,121.7L-640.6,121.7z M-641.5,121.7
		l-0.1,0.5l0.1-0.3L-641.5,121.7z M-660.4,118.2L-660.4,118.2L-660.4,118.2L-660.4,118.2z M-641.7,121.4L-641.7,121.4L-641.7,121.4
		L-641.7,121.4L-641.7,121.4z M-641.8,121.5l0-0.1l-0.1,0L-641.8,121.5z M-640.8,121.2L-640.8,121.2L-640.8,121.2L-640.8,121.2
		L-640.8,121.2z M-641.8,121.1v0.2V121.1L-641.8,121.1z M-643.4,120.8L-643.4,120.8L-643.4,120.8L-643.4,120.8z M-654.8,118.2l0-0.1
		l0,0L-654.8,118.2L-654.8,118.2z M-654.7,118L-654.7,118L-654.7,118L-654.7,118L-654.7,118z M-653.7,117.5L-653.7,117.5
		L-653.7,117.5L-653.7,117.5z M-653.7,117.4L-653.7,117.4L-653.7,117.4L-653.7,117.4z M-653.4,116.9L-653.4,116.9L-653.4,116.9
		L-653.4,116.9z M-653.2,116.9L-653.2,116.9L-653.2,116.9L-653.2,116.9L-653.2,116.9z M-653.4,116.8L-653.4,116.8L-653.4,116.8
		L-653.4,116.8z M-656.8,115.8l0-0.1l0-0.1L-656.8,115.8L-656.8,115.8z M-656.5,115.4L-656.5,115.4L-656.5,115.4L-656.5,115.4
		L-656.5,115.4z M-657.1,115.3l-0.2-0.2L-657.1,115.3L-657.1,115.3L-657.1,115.3z M-657.4,115L-657.4,115L-657.4,115L-657.4,115
		L-657.4,115z M-657.4,114.8L-657.4,114.8L-657.4,114.8L-657.4,114.8z M-657.4,114.7L-657.4,114.7L-657.4,114.7L-657.4,114.7z
		 M-651.7,116.4l-0.2,0l0.1,0.1L-651.7,116.4L-651.7,116.4z M-657.7,114.4l-0.2,0.6l0.5,0.1l0.7,0.7l0.4-0.2L-657.7,114.4z
		 M-653.9,114.6L-653.9,114.6L-653.9,114.6L-653.9,114.6L-653.9,114.6z M-655,112.4L-655,112.4L-655,112.4L-655,112.4L-655,112.4z
		 M-654.3,112.6L-654.3,112.6L-654.3,112.6L-654.3,112.6L-654.3,112.6z M-653.9,112.5L-653.9,112.5l0.3-0.1L-653.9,112.5
		L-653.9,112.5z M-653.1,112.2L-653.1,112.2L-653.1,112.2L-653.1,112.2L-653.1,112.2z M-653,112.2l0.1-0.1L-653,112.2L-653,112.2
		L-653,112.2z M-652.7,112.1l-0.1,0v0L-652.7,112.1L-652.7,112.1z M-652.5,112.1L-652.5,112.1L-652.5,112.1L-652.5,112.1z
		 M-638.7,108.2L-638.7,108.2l-0.2-0.1L-638.7,108.2L-638.7,108.2z M-650.1,107.8l0.2-0.3l-0.1,0.1L-650.1,107.8L-650.1,107.8z
		 M-649.9,107.5l0.1-0.1L-649.9,107.5L-649.9,107.5L-649.9,107.5z M-649.7,107.3l0.2-0.1L-649.7,107.3L-649.7,107.3L-649.7,107.3z
		 M-642.9,107.4l0.1,0.1h0.1L-642.9,107.4z M-646.4,106l-0.9,0.7l-0.5-0.2l-1.3,0.7l-0.2-0.2l-1.4,1.6l-1.5,0.3l0.1,0.8l0.6,0.9
		l1.2,1.1l-0.2,0.4l0.9,0.4l-0.5,0.1l-0.6-0.4l0.3,0.6l-0.4,0.2l-1.2-1.1l-1,0.2l-1.7,0.6l0.8,0.8l-0.1,0.5l0.5,0.6l1.7,0.6l1.2-0.6
		l0.2,0.4l-0.3,1.3h-1l-1.2,0.5l-0.1-0.4l-0.6,0.2l-0.3,0.6l-1,0.7v1.1l0.4,0.2l-0.3,0.9l1.3,1.1l0.8-0.3l-0.2,1.4l0.2,0.3l1,0.2
		l0.4,0.4l0.9,0.1l0.4,0.4l0.9-0.3l-0.4,0.5l-0.3,1.1l-2.7,1.7l-0.4,0.3l-0.5-0.2l-0.8,0.2l-1.1,0.7l1.8-0.5l0.3,0.4l2.3-0.7
		l0.1,0.3l0.9-0.9l1.9-1.3l0.2,0.1l1.7-1.3l-0.4-0.5l0.6-0.9l1.5-1.7l1.1-0.2l0.4,0.2l-1.4,0.4l-0.4,1.4l0,0.8l0.5,0l2.3-1.4
		l0.2-0.5l-0.2-0.8l0.7,0.2l0.5-0.3l1.4,0.8l-0.1,0.2l3.3,0.4l0.8-0.2l0.2,0.3l2.8,1.3l0.5-0.3l0-1.6l0.4,0.7l1.8,1.3l0.2,0.5
		l1.6,0.9l0.4,1.1l0.4-0.9l0.8,1.5l0.5-0.9l-0.4-1.1l-1.7-0.2l-2.6-2.4l-1.4-1l-1.1,1h-0.6l-1.5-0.9l-1.4-0.1l-2-12.6l-0.4-0.6
		l-0.8-0.5l-1.2,0.2l-1-0.2l-1.2-0.5l-1.3,0.1l-0.3-0.6l-1-0.2l-0.2-0.4l-0.4,0.5L-646.4,106L-646.4,106z"/>
	<text transform="matrix(1.0285 0 0 1 -647.1341 116.2794)" font-family="'ArialMT'" font-size="2.6153">AK</text>
</g>
<g id="SD">
	<path d="M-566.4,38.8l-3.7,0.1L-579,39l-9.6-0.3l-0.8,0l0,0.5l-0.1,1.9l-0.1,1.5l0,0.3h-0.1l0,0.5l-0.2,4.4l-0.2,3.3l0,0.6l0.6,0
		l7.4,0.2l6.3,0.1l4.3,0l1.4,0.8l1.1-0.3l0.8,0l2.4,0.7l0.7,0.6l0.4,0v-0.2l-0.4-0.7l0.3-1.1l-0.4-2.4l0.4,0l0-1l-1.1-7.5l-0.6-0.9
		l0.9-1.4l0-0.1L-566.4,38.8L-566.4,38.8z"/>
	<text transform="matrix(1.0285 0 0 1 -582.0718 46.6848)" font-family="'ArialMT'" font-size="2.6153">SD</text>
</g>
<g id="NJ">
	<path inkscape:connector-curvature="0" d="M-488.2,54.4l-0.1-0.3v0.3H-488.2z M-488,53.7l0.1-0.6L-488,53.7L-488,53.7L-488,53.7z
		 M-488.9,47.2l-2.3-0.5l-0.4-0.1l-0.4-0.1l0,0l-0.9,2l0.4,0.5l0,1.4l0.4,0.1l0.8,2.2l0,0.1l-1.1,1.5l0.1,1.1l2.6,0.8l0,1l0.6-0.8
		l0.1-1.1l0.6-0.4l-0.2-0.9l0.4-1v-2.3l-0.2-0.7l-1,0l0.3-1L-488.9,47.2L-488.9,47.2L-488.9,47.2z"/>
	<text transform="matrix(1.0285 0 0 1 -486.3811 54.0645)" font-family="'ArialMT'" font-size="2.6153">NJ</text>
	<polygon points="-489.6,52.6 -486.5,52.9 -486.5,53 -489.6,52.8 	"/>
	<g id="port_3_">
		<path fill="#4D2F67" d="M-479.4,49.3l-0.8,0.8h-6.6c0.6,0.9,0.9,1,0.9,1h9c1.5-0.9,1.6-1.9,1.6-1.9H-479.4z M-476.4,50.7h-10
			l-0.2-0.3h10.5L-476.4,50.7z M-476.2,50.1c-0.1,0-0.2-0.1-0.2-0.2c0-0.1,0.1-0.2,0.2-0.2c0.1,0,0.2,0.1,0.2,0.2
			C-476,50.1-476.1,50.1-476.2,50.1z"/>
		<rect x="-486.7" y="49.8" fill="#4D2F67" width="2.5" height="0.3"/>
		<rect x="-481.3" y="49.3" fill="#4D2F67" width="0.7" height="0.7"/>
		<rect x="-482.2" y="49.3" fill="#4D2F67" width="0.7" height="0.7"/>
		<rect x="-482.9" y="47.6" fill="#4D2F67" width="0.7" height="0.7"/>
		<rect x="-483" y="49.3" fill="#4D2F67" width="0.7" height="0.7"/>
		<rect x="-483.8" y="49.3" fill="#4D2F67" width="0.7" height="0.7"/>
		<rect x="-478.7" y="47.6" fill="#4D2F67" width="0.7" height="0.7"/>
		<rect x="-479.6" y="47.6" fill="#4D2F67" width="0.7" height="0.7"/>
		<rect x="-480.4" y="47.6" fill="#4D2F67" width="0.7" height="0.7"/>
		<rect x="-481.2" y="47.6" fill="#4D2F67" width="0.7" height="0.7"/>
		<rect x="-482.1" y="47.6" fill="#4D2F67" width="0.7" height="0.7"/>
		<rect x="-483.4" y="48.5" fill="#4D2F67" width="0.7" height="0.7"/>
		<rect x="-480.1" y="48.5" fill="#4D2F67" width="0.7" height="0.7"/>
		<rect x="-480.9" y="48.5" fill="#4D2F67" width="0.7" height="0.7"/>
		<rect x="-481.7" y="48.5" fill="#4D2F67" width="0.7" height="0.7"/>
		<rect x="-482.6" y="48.5" fill="#4D2F67" width="0.7" height="0.7"/>
		<rect x="-479.2" y="48.5" fill="#4D2F67" width="0.7" height="0.7"/>
		<rect x="-478.4" y="48.5" fill="#4D2F67" width="0.7" height="0.7"/>
		<polygon fill="#4D2F67" points="-479.8,49.6 -479.8,49.3 -480.5,49.3 -480.5,50 -480.2,50 		"/>
		<polygon fill="#4D2F67" points="-479.7,49.5 -479.7,49.5 -479.5,49.3 -479.7,49.3 -479.7,49.5 		"/>
		<polygon fill="#4D2F67" points="-484.5,48 -485.5,48 -486.4,49.6 -484.5,49.6 		"/>
		<rect x="-484.9" y="47.4" fill="#4D2F67" width="0.2" height="0.6"/>
		<rect x="-485.3" y="47.7" fill="#4D2F67" width="0.2" height="0.3"/>
		<polygon fill="#4D2F67" points="-476.6,48.5 -476.6,49.3 -476.5,49.3 -476.5,47.9 -476.6,47.9 -476.6,48.3 -477.2,49.3 
			-477.1,49.3 		"/>
	</g>
</g>
</svg>
