<?xml version="1.0" encoding="utf-8"?>
<!-- Generator: Adobe Illustrator 18.0.0, SVG Export Plug-In . SVG Version: 6.00 Build 0)  -->
<!DOCTYPE svg PUBLIC "-//W3C//DTD SVG 1.1//EN" "http://www.w3.org/Graphics/SVG/1.1/DTD/svg11.dtd">
<svg version="1.1"
	 id="svg" xmlns:sodipodi="http://sodipodi.sourceforge.net/DTD/sodipodi-0.dtd" xmlns:rdf="http://www.w3.org/1999/02/22-rdf-syntax-ns#" xmlns:svg="http://www.w3.org/2000/svg" xmlns:dc="http://purl.org/dc/elements/1.1/" xmlns:inkscape="http://www.inkscape.org/namespaces/inkscape" xmlns:cc="http://creativecommons.org/ns#" sodipodi:docname="us.svg" inkscape:version="0.48.4 r9939"
	 xmlns="http://www.w3.org/2000/svg" xmlns:xlink="http://www.w3.org/1999/xlink" x="0px" y="0px"
	 viewBox="-671.1 -575.4 1220 704.9" enable-background="new -671.1 -575.4 1220 704.9" xml:space="preserve">
<sodipodi:namedview  bordercolor="#666666" id="namedview69" inkscape:cx="817.66365" guidetolerance="10" gridtolerance="10" borderopacity="1" showgrid="false" objecttolerance="10" inkscape:zoom="0.80893016" pagecolor="#ffffff" inkscape:cy="409.3738" inkscape:window-maximized="1" inkscape:window-height="1137" inkscape:current-layer="svg2" inkscape:window-y="118" inkscape:pageshadow="2" inkscape:pageopacity="0" inkscape:window-x="1192" inkscape:window-width="1920">
	</sodipodi:namedview>
<g id="MA">
	<path inkscape:connector-curvature="0" d="M498.7-400.7l-0.4-0.2v0.4L498.7-400.7L498.7-400.7z M494.7-404.4l1-0.4v-0.5
		L494.7-404.4L494.7-404.4z M511.2-414.3l-0.1-1.8l-0.2-1.1L511.2-414.3z M453.2-427.6l-1,0.4l-7.5,2.2l-2.6,1l-3,1l-1.1,0.4v0.4
		l0.4,6.6l0.4,6.3l0.4,5.7l0.7,0.4l2.3-0.6l10.8-3.1l0.2,0.6l19.2-7l0.1,0.2l1.7-0.6l6.2-2.2l5.9,6.8l0,0l0.9-0.6l0.4-2l-0.1,3.1
		l0,0h1.4l0.4,1.6l1.2,2.2l0,0l6.3-7.3l5.2,1.7l1.2-2.6l8.5-4.4l-3.6-6.8l1,4.4l-4.4,3.2l-4.9,0.4l-9.8-10.2l-4.4-6.5l4.4-4.6
		l-4.6-0.2l-2-4.3l-0.1-0.2l-7.5,8l-16.7,5.4L453.2-427.6L453.2-427.6z"/>
	<text transform="matrix(1.0285 0 0 1 520.8611 -436.5854)" font-family="'ArialMT'" font-size="15.953">MA</text>
	<polygon points="490.1,-428.1 519.7,-442.4 520.3,-441.2 490.7,-426.9 	"/>
</g>
<g id="MN">
	<path inkscape:connector-curvature="0" d="M-45.3-506.1l2.6,9.2l5.7,33l2.6,13.2l0.9,11.6l3,6.9l0.7,6l0.5,2l-0.1,0.4l-5.3,8.5
		l3.4,5.7l6.6,45.5l0.2,6l6.6-0.4l26.1-1.5l65.3-5.3l6.5-0.6v-0.6l-2-10l-8.1-3.9l-6.4-6.5l-10.1-6l-3.2-0.2l-4.9-3.3l1.4-17.8
		l-4.7-4.2l1.6-7.1l8.5-7.5l-1.5-15.4l3-3.3l0,0L64-462.6l11.8-14.8l4.6-3.1l7.9-3.7l8.4-6.2l-5.7,1.1l-3.3-2.3l-12.7,1.7l-2.1-2.2
		l-11.3,4.6l-9.1-3.7l-2.5-3l-7.3,0.5l-4.9-2.3l1.6-1.8l-6.3-2h-5.7l-8.9,3.7l-1.7-2.6L3-500.9l-4.8-11.6l-0.5-3.4l-6.2-1.7l0.5,10
		l-16.1,1.2l-20.1,0.7L-45.3-506.1L-45.3-506.1z"/>
	<text transform="matrix(1.0285 0 0 1 -15.1428 -415.5298)" font-family="'ArialMT'" font-size="15.953">MN</text>
</g>
<g id="MT">
	<path inkscape:connector-curvature="0" d="M-172.1-507.2L-216-510l-32-3l-31.9-3.6l-19.8-2.6l-31.6-4.8l-15.9-2.6l-35.3-6.6
		l-3.7-0.7l-5.8,26.2l2.5,4.8l2.1,7.3l-1.2,1.1l2.5,6.6l3.4,2.8l9.8,16l1,2.7l3.9-0.2l-4.7,21.2l-2,0.5l-2.5,7l13.2,1l1.1,6
		l7.4,17.7l1.4,1.1l5.2,10.3l1.4-1.1l11.1-0.1l13.9,1.5l3.4-4.4l4.1,7.1l0.9,0.4l0.1-0.7l2-12.7l45.4,5.4l36.3,3.3l19.2,1.6l34.1,2
		l1.7,0.1h0.4l0.1-1.8l0.4-8.9l0.5-11.7l0.1-3l0.2-5.2l2.2-40.6l1.7-31.5l0.1-5.2L-172.1-507.2L-172.1-507.2z"/>
	<text transform="matrix(1.0285 0 0 1 -284.2678 -455.8579)" font-family="'ArialMT'" font-size="15.953">MT</text>
</g>
<g id="ND">
	<path inkscape:connector-curvature="0" d="M-48-506.1l-40.1,0.7l-28-0.1l-24.1-0.5l-28.2-1.1l-1.5-0.1l-0.1,5.2l-1.7,31.5
		l-2.2,40.6l-0.2,5.2l5.2,0.2l58.6,1.6l54-0.4l22.4-0.6l4.6-0.2l-0.5-2.1l-0.7-6l-3-6.9l-0.9-11.6l-2.6-13.2l-5.7-33l-2.6-9.2H-48
		L-48-506.1z"/>
	<text transform="matrix(1.0285 0 0 1 -125.1975 -453.1978)" font-family="'ArialMT'" font-size="15.953">ND</text>
</g>
<g id="HI">
	<path inkscape:connector-curvature="0" d="M-239.6,80.4l-4.1-3l-3.6,1l0.9,7.1l-4.9,6l4.2,9.5l1.2,9.7l4.9,3.1l3-4.8l5.4-3.8
		l6.6-1.7l7.3-6.2l-7.1-6l-0.1-3.6L-239.6,80.4L-239.6,80.4z M-263.7,69.9l-2.1-1.7l-2,2.3L-263.7,69.9L-263.7,69.9z M-273.7,64.4
		l0.5-4.8l-2.5-0.4L-273.7,64.4L-273.7,64.4z M-265.3,56.4l-2.3,1.1l1.6,4.9l3.4,0.2l1.1,4.3l3.7,1.6l8.2-3.7l-7.6-6.3L-265.3,56.4
		L-265.3,56.4z M-282.3,51.2l-1.2,3.4l5.8-0.1l5.3,1.4l-2.7-4.3L-282.3,51.2L-282.3,51.2z M-299,41l-3-2.8l-5.9,4.4l3.7,6.6l2.6-2.7
		l7.5,1.6l-0.7-3.1L-299,41L-299,41z M-358.4,35.4l0.9-1.8l2.3-1.2L-358.4,35.4L-358.4,35.4z M-337.4,23.6l-9.3,3.3l-1,2.3l3.7,2.6
		l5.2,1.4l3.7-7L-337.4,23.6L-337.4,23.6z"/>
	<text transform="matrix(1.0285 0 0 1 -296.1194 104.7076)" font-family="'ArialMT'" font-size="15.953">HI</text>
</g>
<g id="ID">
	<path inkscape:connector-curvature="0" d="M-386.2-533.9l-11.8-2.2l-3.8-1l-1.7-0.4l-15.5,67.4l0.7,5.5l-0.5,5.9l0.2,1.4v0.1
		l0.1,2.3l4.6,4.8l-6.5,15.9l-13.7,17.5l-0.4,3.2l3.6,8.2l-12.5,50.8l-0.5,2.7l3.7,0.7l37.6,7.1l15,2.7l3.8,0.6l3.7,0.6l19.2,3
		l34.2,5l3.8,0.5l0.5-4.3l1.2-8.4l4.6-33.5l2.3-16.6l0.5-4.3l-0.9-0.4l-4.1-7.1l-3.4,4.4l-13.9-1.5l-11.1,0.1l-1.4,1.1l-5.2-10.3
		l-1.4-1.1l-7.4-17.7l-1.1-6l-13.2-1l2.5-7l2-0.5l4.7-21.2l-3.9,0.2l-1-2.7l-9.8-16l-3.4-2.8l-2.5-6.6l1.2-1.1l-2.1-7.3l-2.5-4.8
		L-386.2-533.9L-386.2-533.9L-386.2-533.9z"/>
	<text transform="matrix(1.0285 0 0 1 -397.76 -381.8501)" font-family="'ArialMT'" font-size="15.953">ID</text>
</g>
<g id="WA">
	<path inkscape:connector-curvature="0" d="M-546.1-501.8l0.1-2.2l-0.2,0.1L-546.1-501.8L-546.1-501.8z M-517.9-513.6l0.9-1.4
		l-1-0.1L-517.9-513.6L-517.9-513.6z M-520.3-515.8l0.9-2.6l-0.9-0.2V-515.8z M-510.8-519.6l-0.1-2.6l-2.3,3.3L-510.8-519.6
		L-510.8-519.6z M-510.5-525.1l0.4-2.6l-0.2-0.6L-510.5-525.1L-510.5-525.1z M-510.1-537.7l-0.1-1.5l-0.5-0.1L-510.1-537.7
		L-510.1-537.7z M-505.9-546.2l-1.2-0.1l-2.3,3.6L-505.9-546.2z M-509.1-549.8l0.7-0.5l0.1-0.4L-509.1-549.8L-509.1-549.8z
		 M-509.9-549.4l-0.4-2.6l-1.2,2.2L-509.9-549.4L-509.9-549.4z M-510.5-553l-1.2-0.5l1,1.4L-510.5-553L-510.5-553z M-506.4-550.6
		v-1.7l-0.4,0.6L-506.4-550.6z M-505.3-552.4l-0.5-0.4h-0.1L-505.3-552.4L-505.3-552.4z M-512.8-555.2l-0.7-0.5l-0.2-0.1
		L-512.8-555.2z M-507.9-555.8l-3.6,1l1,0.2L-507.9-555.8z M-510.8-556.1l-0.7-0.7l-0.1,0.1L-510.8-556.1L-510.8-556.1z M-508-557.7
		h-0.5l0.7,0.2L-508-557.7L-508-557.7z M-534.1-491.4l4.8,5l-0.9,9.7l1,2.3l7.1,3.7l20.3,1.8l0.9,2.2l9.6,0.1l9,1.2l14.8-1.6
		l7.3,1.2l2.1-1l37.3,8.2l2.5,0.5l-0.2-1.4l0.5-5.9l-0.7-5.5l15.5-67.4l-2.2-0.4l-31-7l-27.1-6.6l-30.6-8.2l-9.1-2.2l2.2,11.2
		l-2.1,3.6l-3.6-1.8l3.4,15.5l-3.7,5.2l-1.7,4.8v4.9l-7.7,5.3l-3.3-2.1l-3.2,1.6l5.9-7.3l-1.5,5l3.3-3.4l2.6,0.5l-0.9-6.5l1.7,0.2
		l3.6-7.7l-1.2-1.2l-4.7,5.9l-3,0.1l3.3-3.6l3.7-1l-1.4-6.6l-3.7-1l-2-3.1l-2.3,1.2l-12.2-5.2l-10.8-8.1l-2.8,7.9l-0.2,3.3l2.3,6
		l-1.5,19.4l-1.1,3l6,0.5l-6,4.2l3.2,1.6l-2.5,8.2l-1.2-6.5l-2.3,7.5l3,3.6l3.3-0.2l3.9,2.2l2.1,3.7L-534.1-491.4L-534.1-491.4
		L-534.1-491.4z"/>
	<text transform="matrix(1.0285 0 0 1 -491.6506 -499.2885)" font-family="'ArialMT'" font-size="15.953">WA</text>
</g>
<g id="AZ">
	<path inkscape:connector-curvature="0" d="M-299.9-192.3l-44.7-5.4l-24.1-3.3l-34.2-5.3l-3.4-0.5v0.2l-5.9,25l-3-0.1l-4.7-3.9
		l-5.9,4.8l-0.1,20.4l-2.2,4.4v0.4v0.1l-0.2,3.2l4.7,12.1l4.1,5.4l-7.4,4.3l-2.8,5.3l-4.8,11.3l-2.3,0.5l-0.1,9.5l4.1,3l-2.2,5.7
		l-4.8,0.2l0,0l-2.7,5l9.6,5.9l18.1,9.8l55.8,28.7l47.4,5.7h0.5l3.7-38l1-9.5l10-99.9l0.5-4.7L-299.9-192.3L-299.9-192.3z"/>
	<text transform="matrix(1.0285 0 0 1 -377.7014 -114.6401)" font-family="'ArialMT'" font-size="15.953">AZ</text>
</g>
<g id="CA">
	<path inkscape:connector-curvature="0" d="M-527.2-120.6l0.5,2.8v0.5L-527.2-120.6L-527.2-120.6z M-546.8-131.8l1,2l0.5-0.1
		L-546.8-131.8L-546.8-131.8z M-523.5-132.2l0.4,3.3l2.3,1.7L-523.5-132.2z M-539.5-150.4l-1.5-0.4l1.2,0.5L-539.5-150.4
		L-539.5-150.4z M-554.3-154.4l-3.6,2.1l1,1L-554.3-154.4z M-561.2-156.8l-0.2,1.1l1.2,0.2L-561.2-156.8L-561.2-156.8z
		 M-549.5-154.3l5.9,3.2l1.1-1L-549.5-154.3z M-594.7-268L-594.7-268L-594.7-268L-594.7-268z M-580.6-267.2l-0.1-0.4L-580.6-267.2
		L-580.6-267.2L-580.6-267.2z M-504-365.3l-5.2-1.4l-56.7-15.3l-21-6.3v0.5l-1.2,12.8l-5.7,15.1l-9.3,11.2l-0.2,5.7l4.6,7.9
		l2.3,10.3l-3.2,8.4l0.5,8.4l-1.6,3.4l5.4,11.4l3.4,4.4l-0.2,12.5l8.2,7.6l4.8-7.7l5.2,3.9l2.1-1.8l-7.1,1.4l-0.1,6.6l1.5,8.2
		l-4.2-3.4l-2.3-5l-0.7,6.9l2,13.8l7.4,8.9l-4.9,6.3l0.9,7.9l5.3,8l9.3,24.7l2.8,1.6l-1,17.1l1.5,2.1l19.9,6.9l6.2,6.4l2.2,4.2
		l5.9,3.2l6.4,1.2l2.6,7l5.3,2.3l7.9,9.2l7.4,11.9l-0.5,11.1l4.1,5.3l54.2,5.2l0,0l4.8-0.2l2.2-5.7l-4.1-3l0.1-9.5l2.3-0.5l4.8-11.3
		l2.8-5.3l7.4-4.3l-4.1-5.4l-4.7-12.1l0.2-3.2v0l-3.4-4.6l-10.7-13.8l-20.5-28.2l-28.7-40l-16.1-21.6l-15.7-21.9l18.1-74.4
		L-504-365.3L-504-365.3z"/>
	
		<text transform="matrix(1.0285 0 0 1 -555.9123 -233.4018)" display="none" enable-background="new    " font-family="'ArialMT'" font-size="15.953">CA</text>
	<g id="port_4_">
		<path fill="#4D2F67" d="M-533.6-115.7l-4.9,5.2H-579c3.4,5.3,5.5,6.2,5.5,6.2h54.6c9.3-5.5,9.6-11.3,9.6-11.3H-533.6z M-515-107.4
			h-61l-1.2-1.6h64.1L-515-107.4z M-514-110.6c-0.6,0-1.2-0.5-1.2-1c0-0.5,0.5-1,1.2-1s1.2,0.5,1.2,1
			C-512.8-111.1-513.4-110.6-514-110.6z"/>
		<rect x="-577.9" y="-113.1" fill="#4D2F67" width="15.1" height="1.7"/>
		<rect x="-545.3" y="-115.5" fill="#4D2F67" width="4.4" height="4.3"/>
		<rect x="-550.3" y="-115.5" fill="#4D2F67" width="4.4" height="4.3"/>
		<rect x="-555" y="-126" fill="#4D2F67" width="4.4" height="4.3"/>
		<rect x="-555.5" y="-115.5" fill="#4D2F67" width="4.4" height="4.3"/>
		<rect x="-560.6" y="-115.5" fill="#4D2F67" width="4.4" height="4.3"/>
		<rect x="-529.7" y="-126" fill="#4D2F67" width="4.4" height="4.3"/>
		<rect x="-534.6" y="-126" fill="#4D2F67" width="4.4" height="4.3"/>
		<rect x="-539.7" y="-126" fill="#4D2F67" width="4.4" height="4.3"/>
		<rect x="-544.8" y="-126" fill="#4D2F67" width="4.4" height="4.3"/>
		<rect x="-549.9" y="-126" fill="#4D2F67" width="4.4" height="4.3"/>
		<rect x="-557.9" y="-120.8" fill="#4D2F67" width="4.4" height="4.3"/>
		<rect x="-537.5" y="-120.8" fill="#4D2F67" width="4.4" height="4.3"/>
		<rect x="-542.7" y="-120.8" fill="#4D2F67" width="4.4" height="4.3"/>
		<rect x="-547.7" y="-120.8" fill="#4D2F67" width="4.4" height="4.3"/>
		<rect x="-552.9" y="-120.8" fill="#4D2F67" width="4.4" height="4.3"/>
		<rect x="-532.4" y="-120.8" fill="#4D2F67" width="4.4" height="4.3"/>
		<rect x="-527.4" y="-120.8" fill="#4D2F67" width="4.4" height="4.3"/>
		<polygon fill="#4D2F67" points="-535.7,-114.2 -535.7,-115.5 -540.1,-115.5 -540.1,-111.2 -538.3,-111.2 		"/>
		<polygon fill="#4D2F67" points="-535.3,-114.6 -535.1,-114.7 -534.3,-115.5 -535.3,-115.5 -535.3,-114.7 		"/>
		<polygon fill="#4D2F67" points="-564.5,-123.4 -571,-123.4 -576.3,-113.8 -564.5,-113.8 		"/>
		<rect x="-567.4" y="-127.5" fill="#4D2F67" width="1" height="3.9"/>
		<rect x="-569.5" y="-125.8" fill="#4D2F67" width="1.2" height="2"/>
		<polygon fill="#4D2F67" points="-516.6,-120.8 -516.6,-116.2 -516,-116.2 -516,-124.4 -516.6,-124.4 -516.6,-122.1 -520.3,-116.2 
			-519.7,-116.2 		"/>
	</g>
</g>
<g id="CO">
	<path inkscape:connector-curvature="0" d="M-139.4-264.7l0.5-25.2l-6.4-0.2l-32.4-1.2l-3.2-0.1l-2.6-0.1l-39.4-2.3L-249-296
		l-32.8-3.1l-3.2-0.4l-0.4,3.3l-7.1,67.3l-2.5,23.5l-1.1,10.2l-0.2,3.3l4.1,0.4l66.9,5.7l29.4,1.8l29.4,1.4l4.2,0.1l2.6,0.1l5.7,0.1
		l2.6,0.1l8.4,0.2h2.2v-2.6l1.5-68.1l0.1-7.6v-2.3L-139.4-264.7L-139.4-264.7z"/>
	<text transform="matrix(1.0285 0 0 1 -238.2365 -231.1821)" font-family="'ArialMT'" font-size="15.953">CO</text>
</g>
<g id="NV">
	<path inkscape:connector-curvature="0" d="M-405.8-211l13.8-83.5l7-41.7l0.9-4.2l-3.8-0.6l-15-2.7l-37.6-7.1l-3.7-0.7l-3.7-0.7
		l-18.7-3.9l-33.6-7.7l-3.7-1l-1.2,4.9l-18.1,74.4l15.7,21.9l16.1,21.8l28.7,40l20.5,28.2l10.7,13.8l3.4,4.6v-0.4l2.2-4.4l0.1-20.4
		l5.9-4.8l4.7,3.9l3,0.1l5.9-25v-0.2L-405.8-211L-405.8-211z"/>
	<text transform="matrix(1.0285 0 0 1 -467.0334 -267.9682)" font-family="'ArialMT'" font-size="15.953">NV</text>
</g>
<g id="NM">
	<path inkscape:connector-curvature="0" d="M-162.9-172.5l0.1-3.3l0.1-3.3l0.1-3.3l-4.2-0.1l-29.4-1.4l-29.4-1.8l-66.9-5.7l-4.1-0.4
		l-0.5,4.7l-10,99.9l-1,9.5l-3.7,38l0.5,0.1l18.3,1.7l1.7-9l3.3-2.6l37.1,3.2h0.2l-3.3-6.4l16.9,1.2l42.1,2.2l26.2,1.2l4.6-121
		l1,0.1v-3.6H-162.9z"/>
	<text transform="matrix(1.0285 0 0 1 -256.4631 -110.6518)" font-family="'ArialMT'" font-size="15.953">NM</text>
</g>
<g id="OR">
	<path inkscape:connector-curvature="0" d="M-587.1-387.8l21,6.3l56.7,15.3l5.2,1.4l3.7,1l33.6,7.7l18.7,3.9l3.7,0.7l0.5-2.7
		l12.5-50.8l-3.6-8.2l0.4-3.2l13.8-17.6l6.5-15.9l-4.6-4.8l-0.1-2.3v-0.1l-2.5-0.5l-37.3-8.2l-2.1,1l-7.3-1.2l-14.8,1.6l-9-1.2
		l-9.6-0.1l-0.9-2.2l-20.3-1.8l-7.1-3.7l-1-2.3l0.9-9.7l-4.8-5l-0.4,0.1l-1,0.6l-6.6-3.3l-3.9,1.2l-2.6-1.4l-2.7,11.1l-2,3.1
		l-8.2,19.6l-2.3,10.8l-1.5,0.1l-7.6,17.8l-5.2,7.6l-2,1.4l-4.8,9l-1,9.6l-2.8,8.5L-587.1-387.8L-587.1-387.8L-587.1-387.8z
		 M-538.4-493.8l-0.4-1.2l-0.1,1L-538.4-493.8L-538.4-493.8z"/>
	<text transform="matrix(1.0285 0 0 1 -529.9396 -408.8853)" font-family="'ArialMT'" font-size="15.953">OR</text>
</g>
<g id="UT">
	<path inkscape:connector-curvature="0" d="M-327.1-331.7l-34.2-5l-19.2-3l-3.7-0.6l-0.9,4.2l-7,41.7l-13.8,83.5l-0.7,4.2l3.4,0.5
		l34.2,5.3l24.1,3.3l44.7,5.4l3.4,0.4l0.2-3.3l1.1-10.2l2.5-23.5l7.1-67.3l0.4-3.3l-2.6-0.2l-33.9-3.9l-5.2-0.6l3.3-25.1l0.2-1.7
		L-327.1-331.7L-327.1-331.7z"/>
	<text transform="matrix(1.0285 0 0 1 -357.1897 -257.7681)" font-family="'ArialMT'" font-size="15.953">UT</text>
</g>
<g id="WY">
	<path inkscape:connector-curvature="0" d="M-178-348.8l1.1-20.1l1.4-27.1l0.1-3.3l-1.7-0.2l-34.1-2l-19.2-1.6l-36.3-3.3l-45.4-5.4
		l-2,12.7l-0.1,0.7l-0.5,4.3l-2.3,16.6l-4.6,33.5l-1.2,8.4l-0.5,4.3l-0.2,1.7l-3.3,25.1l5.2,0.6l33.9,3.9l2.6,0.2l3.2,0.4l32.8,3.1
		l26.2,2.1l39.4,2.3l2.6,0.1l0.1-3.3l0.7-13.5l1.2-23.6l0.5-10.1l0.1-3.3L-178-348.8L-178-348.8z"/>
	<text transform="matrix(1.0285 0 0 1 -268.7717 -343.3002)" font-family="'ArialMT'" font-size="15.953">WY</text>
</g>
<g id="AR">
	<path inkscape:connector-curvature="0" d="M135.3-168.1l-14.4,2.1l5.9-9l-2.5-5l-50.6,4.8L31-171.9l-6.3,0.4l0.9,3.6l5.2,26.1
		l0.1,5.9l1.5,35.1l0.1,5.9l0.4,0.1l2.1,2.1l7.9-0.2l0.9,11.3l0.2,3.2l4.1-0.4l12.5-1l50.1-4.6h0.2l-0.1-2.8l1.4-1l-2.3-4.4l5-20.7
		l-2.1-2.2l7.5-8.1l-0.5-6.9l5.7-9v-0.1l-0.2-0.2l4.8-4.3l-1.4-5.2l3.7-5.7l-0.9-5.3L135.3-168.1L135.3-168.1L135.3-168.1
		L135.3-168.1z"/>
	<text transform="matrix(1.0285 0 0 1 55.9588 -119.0737)" font-family="'ArialMT'" font-size="15.953">AR</text>
</g>
<g id="IA">
	<path inkscape:connector-curvature="0" d="M95.6-341.4l-7.3-3.7l-3.9-5.3L83-358l1.1-3.4l-3.8-4.6l0,0l-6.5,0.6l-65.3,5.3
		l-26.2,1.5l-6.6,0.4l-2.7,0.1l2.3,14.4l-2,6.6l2.8,4.3v1l1,0.1l4.2,12.1l4.1,6.4l0.2,7.1l4.6,6.2l-0.9,2.6l4.1,16.2v0.4l0,0
		l27.2-0.7l29.2-2.3l28.5-3.4l6.5,5.5l0.2,0.2l1.2-0.5l-1-5l4.9-3l2.1-13.2l-2.1-1l1.2-6.6l6-1.2l6.6-4.7l2.8-8.1l0.1-4.2l-5.3-4.9
		l-1.6-3.1l-5-3.1l0.2-0.6L95.6-341.4L95.6-341.4z"/>
	<text transform="matrix(1.0285 0 0 1 22.6814 -311.8393)" font-family="'ArialMT'" font-size="15.953">IA</text>
</g>
<g id="KS">
	<path inkscape:connector-curvature="0" d="M23.7-188.5l-3.3-54.6l-6-3.3l-0.5-2.6l-4.8-4.2l4.7-5.5l-2-3.2l-3.4,0.1L5.2-264
		l-1.4-1.1l-4.6,0.2l-49,1.8l-22.4,0.5h-44.5l-18-0.2l-5-0.1v2.3l-0.1,7.6l-1.5,68.1v2.6l5.8,0.1l30.8,0.4l72.1-1.1l51.4-2.2l5-0.4
		L23.7-188.5L23.7-188.5z"/>
	<text transform="matrix(1.0285 0 0 1 -87.8225 -212.5737)" font-family="'ArialMT'" font-size="15.953">KS</text>
</g>
<g id="MO">
	<path inkscape:connector-curvature="0" d="M85-282l-6.5-5.5l-28.5,3.4l-29.2,2.3L-6.4-281l0,0l-0.1,0.7l3.3,6.3l3,2.1l3.6,6.3
		l0.5,0.5l1.4,1.1l3.2,2.2l3.4-0.1l2,3.2l-4.7,5.5l4.8,4.2l0.5,2.6l6,3.3l3.3,54.6l0.1,3.3l0.2,3.3l0.1,3.3l0.2,3.4l0.1,3.3l6.3-0.4
		l42.8-3.3l50.6-4.8l2.5,5l-5.9,9l14.4-2.1h0.1v-1.1l0.2-6l2.6-3.2l-0.9-3.6l-0.1-0.1l-0.1-0.1l0.5-1.7l0.9,0.2l0.4,1.1l-0.1,0.4
		v0.1v1.1l0.5,0.1l1.1-1.4v-0.1l0.1-0.4l3.4-2.1l0.5-0.2l1.2-10.6l-0.2-0.5l-0.4-0.1l-9.5-7.5l1.5-2.7l-2.6-7.3l-4.8-3.6l-9-3.8
		l-5.8-4.6l0.7-9.3l1.7-8.6l-9.6,0.5l-2.8-3l-1.4-6l-15.1-12.4l-4.2-11.4l1.1-5.7l0,0L85-282L85-282z"/>
	<text transform="matrix(1.0285 0 0 1 45.0135 -216.1245)" font-family="'ArialMT'" font-size="15.953">MO</text>
</g>
<g id="NE">
	<path inkscape:connector-curvature="0" d="M-26.3-332.2l-4.1-3.9l-14.5-4.2l-4.7-0.1l-7,2l-8.4-5.2l-26.1,0.2l-38.1-0.4l-45-1.5
		l-3.9-0.1l-0.1,3.3l-0.5,10.1l-1.2,23.6l-0.7,13.5l-0.1,3.3l3.2,0.1l32.4,1.2l6.4,0.2l-0.5,25.2l-0.1,1.7l5,0.1l18,0.2H-72
		l22.4-0.5l49-1.8l4.6-0.2l-0.5-0.5l-3.6-6.3l-3-2.1l-3.3-6.3l0.1-0.7v-0.2l-4.1-16.2l0.9-2.6l-4.6-6.2l-0.2-7.1l-4.1-6.4l-4.2-12.1
		l-1-0.1L-26.3-332.2L-26.3-332.2z"/>
	<text transform="matrix(1.0285 0 0 1 -111.5256 -294.5532)" font-family="'ArialMT'" font-size="15.953">NE</text>
</g>
<g id="OK">
	<path inkscape:connector-curvature="0" d="M24.5-175l-0.2-3.4l-0.1-3.3l-0.2-3.3l-5,0.4l-51.4,2.2l-72.1,1.1l-30.8-0.4l-5.8-0.1
		h-2.2l-8.4-0.2l-2.6-0.1l-5.7-0.1l-2.6-0.1l-0.1,3.3l-0.1,3.3l-0.1,3.3l-0.1,3.4h0.9l32.1,0.7l33.9,0.4l0.4,44.2l2.3,7.7l5.3,4.9
		l5.8,0.2l1.2-2.2l7.7,6.9l10.2,1.1l2,2.1l3.7-1.7l9.3,4.3v2.3l3.4-0.1l3.6-3l6.6,4.2l6.3,2.2l4.2-5.7l13.5,6.3l5-3.9l4.1-1.6
		L1.8-99l12.4-3.4l6.6,2.7l6,3.7l5.2,1h0.1l-0.1-5.9L30.6-136l-0.1-5.9L25.3-168l-0.9-3.6L24.5-175L24.5-175z"/>
	<text transform="matrix(1.0285 0 0 1 -60.4709 -139.4565)" font-family="'ArialMT'" font-size="15.953">OK</text>
</g>
<g id="LA">
	<path inkscape:connector-curvature="0" d="M133.2,19.6l-1.7,0.4l-0.9,0.7L133.2,19.6L133.2,19.6z M138.9,19.6l-1-0.4l-0.2,0.4
		H138.9z M142,18.5h-1l-0.5,0.6L142,18.5z M140.4,17.6l-0.2-0.4l-0.1,0.4H140.4L140.4,17.6z M151.1,10.9l-0.4,0.2h0.7L151.1,10.9
		L151.1,10.9z M169.6,3.3l0.9-1.1L169.6,3.3L169.6,3.3L169.6,3.3z M172.2-0.2L172-0.1v0.1L172.2-0.2L172.2-0.2z M103.9,11.3l2.1-2.3
		l-5.4-1.5l-2.3,2L103.9,11.3L103.9,11.3z M159-0.1l-0.5-0.5l-0.1,0.2L159-0.1L159-0.1z M160.5-2.3l-1.4-0.4l0.4,1.4L160.5-2.3z
		 M171.5-4.6V-5v0.1V-4.6L171.5-4.6z M174.1-6.2L174.1-6.2L174.1-6.2L174.1-6.2L174.1-6.2z M173.1-6.5l-0.2-0.1l-0.1,0.4L173.1-6.5
		L173.1-6.5z M163.7-6.8l1.2-0.4v-0.4L163.7-6.8L163.7-6.8z M164.5-7.4l0.7-0.6l-0.1-0.1L164.5-7.4L164.5-7.4z M159.8-12.2l-0.2,0.2
		h0.1L159.8-12.2L159.8-12.2z M110.8-84.4h-0.2l-50.1,4.6l-12.5,1l-4.1,0.4l0.1,3.1l2.6,24.8l4.4,6l0.1,3.4l4.2,7.1l3.4,10.6l-1.2,6
		l-1,14.8l-2.1,4.8h0.2l0.4,3.3l-2.3,3.1l16.4-1.8l12.8,3.4l9.1,1.2l4.7-3.2L93.2,5l8.5-2.6l-0.2,2.8l4.4-1.1l3.6,5.4l3-1.1l7.9,5.3
		l-4.9,1.7l11.3,3.2h4.2l2.5-3l5.4-2.8l3.8,5.4l2.6-4.9l-0.9-7.7l7.1,2.7l0.9,2.2l8.5,1.1l4.2,3.3l-0.1,2.8l6-5.4l-2.3-2.8l-10-2.3
		l-3.7-2.1l-0.1-3.8l4.1,0.5l3.2-6.4l-4.1-5.5l-2.3,5.3l-5.2-1l3.6-5.7l-2.3-0.6l-5.9,3.9l-8.4,0.5l-2.3-1.8l3.8-6.6l4.6-0.1
		l7.6,2.3l5.7,0.5l0,0l-3-3.7l-5.9-11.1l1.6-6.3l-45.8,4.9l1.7-1.7l-2-4.7l2.7-3.9l1.6-10.1l10.1-16.7l-4.9-5.9l0.2-4.3l-3-6.9
		L110.8-84.4L110.8-84.4z"/>
	<text transform="matrix(1.0285 0 0 1 64.1658 -28.6713)" font-family="'ArialMT'" font-size="15.953">LA</text>
</g>
<g id="TX">
	<path inkscape:connector-curvature="0" d="M-24,109.5l-6.4-23.4v4.4L-24,109.5z M-25.5,68.6l-4.6,8.2l-0.5,2.7L-25.5,68.6
		L-25.5,68.6z M-22,62.4l4.2-5.4l-3,1.8L-22,62.4z M-6.9,49.3l-10,5l2.7-0.5L-6.9,49.3z M-5.5,47.4l2.7-2.2l-1.1,0.2L-5.5,47.4z
		 M-163-169.1l-1-0.1l-4.6,121l-26.2-1.2l-42.1-2.2l-16.9-1.2l3.3,6.4l0.1,0.1l14.4,13.9l8.2,9.5l10.9,7.9l7.6,13.7l2.8,14.4
		l6.3,3.9l4.9,5.3l7,2.3l10.2,6.4l4.7,1.7l6.4-6.3l2.1-6.6l3.3-6.4l10.3-3.9l3.9,2l11.4,1l10.6,6.4l7.1,1.4l-2.1,3.6l4.1,2.6
		l3.8,4.6l0.9,4.8l2.5,3.2l5.9,13.7l5.9,4.8l4.6,7.1l5.8,5.7l2.5,0.7l2.2,14.8l6.3,3.3l0.2,4.7l1.6-0.4l10.9,12.9l5.4,1.2l6.9,3.9
		h10.7l7.6,4.2l9.1-2l-4.1-3.7l-3.7-10.9l-1.5-9.5l-2.2-3.1l1-6.4l-2.7-0.2l-3.7-6l4.2,4.4l4.9-1.7l2.6-6.8l-5.3-6.9l7.9,1l3.7-5.5
		l-0.5-2l3.3-4.3l-0.9,3.7l3.7-2.8l-1.5-5L-13,50l6.2-3.3l-6-6.2l3.7,1.5l6.9,0.4l9-2l10.1-6.6l6.2-4.9l1-3.6l3.7-3.7l-2.1-6.3
		l0.4-3.8l6.6-2.8L32,15.4h3.9L31.5,19l17.6-9l2.8-0.1l2-8.2h0.5l2.1-4.8l1-14.8l1.2-6l-3.4-10.6L51-41.6l-0.1-3.4l-4.4-6L43.9-76
		L43.8-79l-0.2-3.2l-0.9-11.3l-7.9,0.2l-2.1-2.1l-0.4-0.1h-0.1l-5.2-1l-6-3.7l-6.6-2.7L2-99.2l-3.3-0.7l-4.1,1.6l-5,3.9l-13.5-6.3
		l-4.2,5.7l-6.3-2.2l-6.6-4.2l-3.6,3l-3.4,0.1v-2.3l-9.3-4.3l-3.7,1.7l-2-2.1l-10.2-1.1l-7.7-6.9l-1.2,2.2l-5.8-0.2l-5.3-4.9
		l-2.3-7.7l-0.4-44.2l-33.9-0.4l-32.1-0.7L-163-169.1L-163-169.1z"/>
	<text transform="matrix(1.0285 0 0 1 -92.385 -23.354)" font-family="'ArialMT'" font-size="15.953">TX</text>
	<g id="port">
		<path fill="#4D2F67" d="M69.1,34.4l-4.9,5.2H23.7c3.4,5.3,5.5,6.2,5.5,6.2h54.6c9.3-5.5,9.6-11.3,9.6-11.3H69.1z M87.5,42.6h-61
			L25.3,41h64.1L87.5,42.6z M88.5,39.4c-0.6,0-1.2-0.5-1.2-1c0-0.6,0.5-1,1.2-1c0.6,0,1.2,0.5,1.2,1C89.8,38.9,89.3,39.4,88.5,39.4z
			"/>
		<rect x="24.8" y="37" fill="#4D2F67" width="15.1" height="1.7"/>
		<rect x="57.4" y="34.4" fill="#4D2F67" width="4.4" height="4.3"/>
		<rect x="52.4" y="34.4" fill="#4D2F67" width="4.4" height="4.3"/>
		<rect x="47.7" y="24" fill="#4D2F67" width="4.4" height="4.3"/>
		<rect x="47.2" y="34.4" fill="#4D2F67" width="4.4" height="4.3"/>
		<rect x="42" y="34.4" fill="#4D2F67" width="4.4" height="4.3"/>
		<rect x="73" y="24" fill="#4D2F67" width="4.4" height="4.3"/>
		<rect x="68.1" y="24" fill="#4D2F67" width="4.4" height="4.3"/>
		<rect x="62.9" y="24" fill="#4D2F67" width="4.4" height="4.3"/>
		<rect x="57.9" y="24" fill="#4D2F67" width="4.4" height="4.3"/>
		<rect x="52.7" y="24" fill="#4D2F67" width="4.4" height="4.3"/>
		<rect x="44.7" y="29.1" fill="#4D2F67" width="4.4" height="4.3"/>
		<rect x="65" y="29.1" fill="#4D2F67" width="4.4" height="4.3"/>
		<rect x="60" y="29.1" fill="#4D2F67" width="4.4" height="4.3"/>
		<rect x="54.8" y="29.1" fill="#4D2F67" width="4.4" height="4.3"/>
		<rect x="49.7" y="29.1" fill="#4D2F67" width="4.4" height="4.3"/>
		<rect x="70.2" y="29.1" fill="#4D2F67" width="4.4" height="4.3"/>
		<rect x="75.2" y="29.1" fill="#4D2F67" width="4.4" height="4.3"/>
		<polygon fill="#4D2F67" points="67,35.9 67,34.4 62.5,34.4 62.5,38.7 64.4,38.7 		"/>
		<polygon fill="#4D2F67" points="67.2,35.5 67.5,35.3 68.4,34.4 67.2,34.4 67.2,35.3 		"/>
		<polygon fill="#4D2F67" points="38.2,26.6 31.7,26.6 26.4,36.3 38.2,36.3 		"/>
		<rect x="35.3" y="22.5" fill="#4D2F67" width="1" height="3.9"/>
		<rect x="33.2" y="24.2" fill="#4D2F67" width="1.2" height="2"/>
		<polygon fill="#4D2F67" points="86.1,29.1 86.1,33.8 86.7,33.8 86.7,25.6 86.1,25.6 86.1,28 82.3,33.8 83,33.8 		"/>
	</g>
</g>
<g id="CT">
	<path inkscape:connector-curvature="0" d="M472.3-413.7l-19.2,7l-0.2-0.6l-10.8,3.1l-2.3,0.6l0.2,1.4l5,19.1l1.6,2l-3.4,4.2
		l2.3,2.2l0,0l7.6-7.1l4.1-5.5l0.9,1.6l19.4-8.4l0.4-0.4l-0.1-3.1l-0.9-2.7l-4.1-11.2l-0.5-1.5L472.3-413.7L472.3-413.7z"/>
	<text transform="matrix(1.0285 0 0 1 505.8103 -369.4487)" font-family="'ArialMT'" font-size="15.953">CT</text>
	<polygon points="472.8,-392.7 473.5,-393.8 503.1,-379.5 502.5,-378.4 	"/>
</g>
<g id="NH">
	<path inkscape:connector-curvature="0" d="M454.4-503.3l-1.7,2.1l-2.1-0.4l-1.1,8.5v0.1l3.2,11.6l-0.2,2.2l-5.8,7.3l1.5,6.6v8.4
		l-1.1,7.7l6,21.2l0,0l0,0l5.4-1.7l16.7-5.4l7.5-8l0,0v-1.6l0.4-3.3l-1,0.4l-0.1-0.7l-8.4-10v-1L454.4-503.3L454.4-503.3z"/>
	<text transform="matrix(1.0285 0 0 1 416.7127 -534.519)" font-family="'ArialMT'" font-size="15.953">NH</text>
	<polygon points="444.2,-531.8 445.5,-532.1 452.7,-500.7 451.3,-500.5 	"/>
</g>
<g id="RI">
	<path inkscape:connector-curvature="0" d="M485.4-402l-0.1-2.7l-0.4,1.1L485.4-402L485.4-402z M488-404.1l-1.7-3.2l-0.1,3.3
		L488-404.1L488-404.1z M487.2-408.2l1,2.2l1.2,2.1l0.9-1.6l-1.2-2.2l-0.4-1.6h-1.4v1.1H487.2z M472.5-413.5l0.5,1.5l4.1,11.2
		l0.9,2.7l0.1,3.1l0.2-0.4l6.4-4.9l-1.2-8.7l2.6-0.5l0,0l-5.9-6.8l-6.2,2.2L472.5-413.5L472.5-413.5z"/>
	<text transform="matrix(1.0285 0 0 1 532.4783 -400.6909)" font-family="'ArialMT'" font-size="15.953">RI</text>
	<polygon points="479.8,-398.5 527.2,-410.2 528.4,-408.8 481.1,-397.1 	"/>
</g>
<g id="VT">
	<path inkscape:connector-curvature="0" d="M453.2-427.6l-6-21.2l1.1-7.7v-8.4l-1.5-6.6l5.8-7.3l0.2-2.2l-3.2-11.6l-1.7,0.6
		l-7.3,2.6l-7.1,2.7l-16.4,5.9l-1,0.2l6,13.5l2.1,12.8l7,10.8l6.6,21.2l0.2-0.1l1.1-0.4l3-1l2.6-1l7.5-2.2L453.2-427.6L453.2-427.6
		L453.2-427.6z"/>
	<text transform="matrix(1.0285 0 0 1 375.2283 -500.3931)" font-family="'ArialMT'" font-size="15.953">VT</text>
	<polygon points="406,-509.8 407.2,-510.7 427.6,-485.4 426.6,-484.6 	"/>
</g>
<g id="AL">
	<path inkscape:connector-curvature="0" d="M173.3-145.8l0.5,1.1l2,1.2l0.9,52.9l0.2,29l6.9,39.7l0.5-0.1l6,1.2l1.6-11.4l2.6,6.5
		l4.6,3.9l8.6-4.9l-1-0.7l0.2,0.1l-6-13.3l57.3-9l3.8-0.6v-0.1l-3.6-6.6l-0.2-9.5l-2.8-5.2l1.5-10.1l2.3-2.6l-9.8-17l-17.8-52.6
		l-0.1-0.2l-3.9,0.6l-21.2,3.3l-10.7,1.4L173.3-145.8L173.3-145.8L173.3-145.8z"/>
	<text transform="matrix(1.0285 0 0 1 199.533 -81.8549)" font-family="'ArialMT'" font-size="15.953">AL</text>
</g>
<g id="FL">
	<path inkscape:connector-curvature="0" d="M359.8,107.3h-0.2H359.8L359.8,107.3L359.8,107.3z M358.6,107.2L358.6,107.2L358.6,107.2
		L358.6,107.2z M358.8,107.1L358.8,107.1L358.8,107.1L358.8,107.1z M340.9,108.9L340.9,108.9L340.9,108.9L340.9,108.9z M340.5,109
		L340.5,109L340.5,109L340.5,109z M340.6,108.9L340.6,108.9L340.6,108.9L340.6,108.9z M339.3,109L339.3,109L339.3,109L339.3,109z
		 M377,101L377,101v0.2V101z M380.6,100.1v-0.2l-0.2,0.4L380.6,100.1L380.6,100.1z M379.4,99.9l-0.5-0.5l-0.1,0.1L379.4,99.9
		L379.4,99.9z M379,100.8l-1.6-2l1,1.7L379,100.8L379,100.8z M391.5,93.3v0.5l0.2-0.2L391.5,93.3z M393.3,91.9l0.4-0.6L393.3,91.9
		L393.3,91.9L393.3,91.9z M393.7,90.7L393.7,90.7L393.7,90.7L393.7,90.7z M391.4,90.3L391.4,90.3L391.4,90.3L391.4,90.3z
		 M392.6,88.4L392.6,88.4L392.6,88.4L392.6,88.4L392.6,88.4z M388.9,88.3L388.9,88.3L388.9,88.3L388.9,88.3z M393.5,85.3l-0.4,0.1
		l0.4,0.1V85.3L393.5,85.3z M394,85.3l-0.2-0.2L394,85.3L394,85.3L394,85.3z M393,85.1L393,85.1L393,85.1L393,85.1L393,85.1z
		 M397.9,84.1L397.9,84.1l-0.2,0.4L397.9,84.1L397.9,84.1z M392.5,84.7h-0.2H392.5L392.5,84.7z M395.2,83.1h-0.4l-0.1,0.1
		L395.2,83.1L395.2,83.1z M396.3,82.5L396.3,82.5L396.3,82.5L396.3,82.5z M385.1,83v-0.2V83L385.1,83z M386.4,82.5H386l0.4,0.7V82.5
		z M383.2,82.6v-0.7l-0.7,0.1L383.2,82.6z M381.3,81.5l0.7,0.6v-0.2L381.3,81.5L381.3,81.5z M400.9,82.2l-2.3,1.1l0.9,0.1
		L400.9,82.2z M382.2,81h-0.9v0.2L382.2,81z M403.1,74.5l0.1-0.6l0.1-1.7L403.1,74.5L403.1,74.5z M403.3,67.3l-0.5-1.4l-0.2,0.5
		L403.3,67.3z M372.7,70.5l-0.2,0.4l0.7,0.1L372.7,70.5L372.7,70.5z M370.2,69.3l-1.2,0.4l1,0.1L370.2,69.3L370.2,69.3z M367.4,69.6
		v-0.4l-0.1,0.1L367.4,69.6L367.4,69.6z M364.7,69.4l-0.9,0.5l1.1,0.5L364.7,69.4L364.7,69.4z M368.4,69.6l-0.1-0.4l-0.7-0.1
		L368.4,69.6L368.4,69.6z M351.1,57l-0.9,0.4l1.6,0.5L351.1,57L351.1,57z M347.9,52.8l-1.1-1.6l0.4,1.2L347.9,52.8L347.9,52.8z
		 M352,55.5l-2-4.2l-1.4-0.4L352,55.5z M346.6,50.4l-0.4-1.1l-0.2-0.6L346.6,50.4L346.6,50.4z M335.6,36l-2.3-1.7l1,1L335.6,36z
		 M395.3,27.4l-9.7-15.7h-0.5L395.3,27.4L395.3,27.4z M328.3,2.1L327.9,2L328.3,2.1L328.3,2.1L328.3,2.1z M327.6,1.3L327.6,1.3v0.2
		V1.3L327.6,1.3z M326.6-0.1L326.6-0.1L326.6-0.1L326.6-0.1z M327.1-0.6l0.4,0.2v-0.2H327.1z M327.9-0.9l-0.5,0.1h0.1L327.9-0.9
		L327.9-0.9z M327-1.2l-0.4-0.4l0.1,0.1L327-1.2L327-1.2z M326-2.5h-0.2H326L326-2.5L326-2.5z M327-4.1h-0.5L326.3-4L327-4.1
		L327-4.1z M327.6-3.9l-0.7-0.6l0.2,0.1L327.6-3.9L327.6-3.9z M322.5-9.5l-0.2-0.1v0.1H322.5z M316.7-9.5l-0.4-0.5l0.1,0.6
		L316.7-9.5L316.7-9.5z M268.4-13.7l3.9-3l-4.4,2.8L268.4-13.7L268.4-13.7z M276.4-19.9l0.4-0.4l-1.6,0.6L276.4-19.9L276.4-19.9z
		 M226-28.5l-14.5,4.6l7.9-2.2L226-28.5z M262-50.4l-3.8,0.6l-57.3,9l6,13.3l0.4,0.1l-1.5,5.3l4.2-1.8l4.7-3.9l7.9-0.2l9.1-3.2
		l6.3,1l-1.5,2.2l11.3,3.7l9.8,4.7l2.3,5.2l7.3-1.6l17.2-13.7l6.4,0.2l26,19.2l5.3-1.1l5.7,7.1l1.1,11.4l-1.7,7.1l0.9,3.6l4.7,9
		l-2.2-7l6-0.1l0.5,5.2l-3.2,8l11.1,14.8l4.1,0.1l-3.4-4.6l4.2,0.5L352,42l-1.1,8.2l5.8,4.4l3.8,10.1l5.2,3.1l6.6,1.7l9.1,11.3
		l4.8,2.3l-6.4,0.4l2.8,3.2l10.6-3.3l5.2-2.8l4.8-16.2l-2.3-25.2l-0.5-2.6l-12.7-20.7l-10.9-15l-6.2-12.2l5.2,4.3l1.1-0.7l2.3,10.8
		l5.9,8.1l-5.8-10.9l0.2-5.2L362.5-25l-4.1-6.4L353-42.3l-3.7-9l-2.8-3.2l-0.7-4.2l-0.1-0.1l-9.1-0.5l-3.6,2.7l-2.1,10l-2-4.7
		l-62.6,7.6L262-50.4L262-50.4L262-50.4z"/>
	<text transform="matrix(1.0285 0 0 1 344.24 20.7319)" font-family="'ArialMT'" font-size="15.953">FL</text>
	<g id="port_2_">
		<path fill="#4D2F67" d="M306.5,32.3l-4.9,5.2h-40.5c3.4,5.3,5.5,6.2,5.5,6.2h54.7c9.3-5.5,9.6-11.3,9.6-11.3H306.5z M325.1,40.5
			h-61l-1.2-1.6H327L325.1,40.5z M326.1,37.3c-0.6,0-1.2-0.5-1.2-1c0-0.5,0.5-1,1.2-1c0.6,0,1.2,0.5,1.2,1
			C327.3,36.8,326.7,37.3,326.1,37.3z"/>
		<rect x="262.3" y="34.9" fill="#4D2F67" width="15.1" height="1.7"/>
		<rect x="294.8" y="32.4" fill="#4D2F67" width="4.4" height="4.3"/>
		<rect x="289.8" y="32.4" fill="#4D2F67" width="4.4" height="4.3"/>
		<rect x="285.1" y="22" fill="#4D2F67" width="4.4" height="4.3"/>
		<rect x="284.6" y="32.4" fill="#4D2F67" width="4.4" height="4.3"/>
		<rect x="279.5" y="32.4" fill="#4D2F67" width="4.4" height="4.3"/>
		<rect x="310.6" y="22" fill="#4D2F67" width="4.4" height="4.3"/>
		<rect x="305.5" y="22" fill="#4D2F67" width="4.4" height="4.3"/>
		<rect x="300.4" y="22" fill="#4D2F67" width="4.4" height="4.3"/>
		<rect x="295.3" y="22" fill="#4D2F67" width="4.4" height="4.3"/>
		<rect x="290.2" y="22" fill="#4D2F67" width="4.4" height="4.3"/>
		<rect x="282.2" y="27.1" fill="#4D2F67" width="4.4" height="4.3"/>
		<rect x="302.6" y="27.1" fill="#4D2F67" width="4.4" height="4.3"/>
		<rect x="297.4" y="27.1" fill="#4D2F67" width="4.4" height="4.3"/>
		<rect x="292.4" y="27.1" fill="#4D2F67" width="4.4" height="4.3"/>
		<rect x="287.2" y="27.1" fill="#4D2F67" width="4.4" height="4.3"/>
		<rect x="307.8" y="27.1" fill="#4D2F67" width="4.4" height="4.3"/>
		<rect x="312.7" y="27.1" fill="#4D2F67" width="4.4" height="4.3"/>
		<polygon fill="#4D2F67" points="304.4,33.8 304.4,32.4 300,32.4 300,36.7 301.9,36.7 		"/>
		<polygon fill="#4D2F67" points="304.8,33.4 305.1,33.3 305.8,32.4 304.8,32.4 304.8,33.3 		"/>
		<polygon fill="#4D2F67" points="275.7,24.5 269.3,24.5 263.8,34.1 275.7,34.1 		"/>
		<rect x="272.8" y="20.4" fill="#4D2F67" width="1" height="3.9"/>
		<rect x="270.6" y="22.2" fill="#4D2F67" width="1.2" height="2"/>
		<polygon fill="#4D2F67" points="323.5,27.1 323.5,31.8 324.1,31.8 324.1,23.6 323.5,23.6 323.5,25.9 319.8,31.8 320.4,31.8 		"/>
	</g>
</g>
<g id="GA">
	<path inkscape:connector-curvature="0" d="M347.7-77.7l-0.1-3.8l-1,3.3L347.7-77.7L347.7-77.7z M349.1-83.7l-0.5-3l-0.4,1.8
		L349.1-83.7z M287.1-164.9l-1.7,0.4l-5,1.1l-18.6,3.7l-1.7,0.4l-2,0.2l-10.3,2l-2.7,0.5l-11.3,2.1l-2.3,0.2l0.1,0.2l17.8,52.6
		l10,16.7l-2.3,2.6L255.5-72l2.8,5.2l0.2,9.5l3.6,6.6v0.1l-0.1,0.1l4.6,6.8l62.6-7.6l2,4.7l2.1-10l3.6-2.7l9.1,0.5l0,0L345-72.8
		l1.7-3l-1-5.5l2-5.3l2.7-3l-2.1-1.8l4.7-5.5h-0.1L345-104l-10.9-15.1l-6-2.7l-25.6-20.9l-6.3-7.7l-12.1-4.9l-0.7-2.6L287.1-164.9
		L287.1-164.9L287.1-164.9z"/>
	<text transform="matrix(1.0285 0 0 1 276.783 -91.8237)" font-family="'ArialMT'" font-size="15.953">GA</text>
	<g id="port_1_">
		<path fill="#4D2F67" d="M395-78.9l-4.9,5.2h-40.5c3.4,5.3,5.5,6.2,5.5,6.2h54.6c9.3-5.5,9.6-11.3,9.6-11.3H395z M413.5-70.8h-61
			l-1.2-1.6h64.1L413.5-70.8z M414.5-74c-0.6,0-1.2-0.5-1.2-1c0-0.5,0.5-1,1.2-1c0.6,0,1.2,0.5,1.2,1C415.7-74.5,415.2-74,414.5-74z
			"/>
		<rect x="350.8" y="-76.3" fill="#4D2F67" width="15.1" height="1.7"/>
		<rect x="383.3" y="-78.9" fill="#4D2F67" width="4.4" height="4.3"/>
		<rect x="378.2" y="-78.9" fill="#4D2F67" width="4.4" height="4.3"/>
		<rect x="373.6" y="-89.2" fill="#4D2F67" width="4.4" height="4.3"/>
		<rect x="373.1" y="-78.9" fill="#4D2F67" width="4.4" height="4.3"/>
		<rect x="368" y="-78.9" fill="#4D2F67" width="4.4" height="4.3"/>
		<rect x="399" y="-89.2" fill="#4D2F67" width="4.4" height="4.3"/>
		<rect x="393.9" y="-89.2" fill="#4D2F67" width="4.4" height="4.3"/>
		<rect x="388.9" y="-89.2" fill="#4D2F67" width="4.4" height="4.3"/>
		<rect x="383.8" y="-89.2" fill="#4D2F67" width="4.4" height="4.3"/>
		<rect x="378.6" y="-89.2" fill="#4D2F67" width="4.4" height="4.3"/>
		<rect x="370.7" y="-84.1" fill="#4D2F67" width="4.4" height="4.3"/>
		<rect x="391" y="-84.1" fill="#4D2F67" width="4.4" height="4.3"/>
		<rect x="385.9" y="-84.1" fill="#4D2F67" width="4.4" height="4.3"/>
		<rect x="380.8" y="-84.1" fill="#4D2F67" width="4.4" height="4.3"/>
		<rect x="375.6" y="-84.1" fill="#4D2F67" width="4.4" height="4.3"/>
		<rect x="396.1" y="-84.1" fill="#4D2F67" width="4.4" height="4.3"/>
		<rect x="401.2" y="-84.1" fill="#4D2F67" width="4.4" height="4.3"/>
		<polygon fill="#4D2F67" points="392.9,-77.4 392.9,-78.9 388.4,-78.9 388.4,-74.5 390.4,-74.5 		"/>
		<polygon fill="#4D2F67" points="393.2,-77.8 393.4,-78.1 394.3,-78.9 393.2,-78.9 393.2,-78.1 		"/>
		<polygon fill="#4D2F67" points="364.2,-86.7 357.6,-86.7 352.4,-77.1 364.2,-77.1 		"/>
		<rect x="361.2" y="-90.8" fill="#4D2F67" width="1" height="3.9"/>
		<rect x="359.1" y="-89" fill="#4D2F67" width="1.2" height="2"/>
		<polygon fill="#4D2F67" points="412,-84.2 412,-79.4 412.6,-79.4 412.6,-87.8 412,-87.8 412,-85.3 408.2,-79.4 408.9,-79.4 		"/>
	</g>
</g>
<g id="MS">
	<path inkscape:connector-curvature="0" d="M171.2-15.6l-0.7,0.1v0.1L171.2-15.6L171.2-15.6z M183.5-17.2h-2H183.5L183.5-17.2
		L183.5-17.2z M168.2-15.8l-0.5,0.5l0.1,0.1L168.2-15.8L168.2-15.8z M180.7-16.9h-5l4.8,0.1L180.7-16.9z M125.3-139.9L125.3-139.9
		l-5.7,9.2l0.5,6.9l-7.5,8.1l2.1,2.2l-5,20.7l2.3,4.4l-1.4,1l0.1,2.8v1l3,6.9l-0.2,4.3l4.9,5.9l-10.1,16.7l-1.6,10.1l-2.7,3.9l2,4.7
		l-1.7,1.7l45.8-4.9l-1.6,6.3l5.9,11.1l3,3.7v-0.1l4.9-5.4l10.3-2.2l9.6,1.1l1.5-1.8v0.1l-6.9-39.7l-0.2-29l-0.9-52.9l-2-1.2
		l-0.5-1.1h-0.2l-6.6,1l-11.7,1.2l-26.6,3.2L125.3-139.9L125.3-139.9z"/>
	<text transform="matrix(1.0285 0 0 1 128.4236 -75.2065)" font-family="'ArialMT'" font-size="15.953">MS</text>
</g>
<g id="SC">
	<path inkscape:connector-curvature="0" d="M287.1-164.9L287.1-164.9l-3.7,7l0.7,2.6l12.1,4.9l6.3,7.7l25.6,20.9l6,2.7l10.9,15.1
		l7.9,7.1l0,0l1.4-6l-2.2-5.7l5.8,4.2l3.2-2.3l-5.4-4.4l6.6-0.4l10.3-8.5l-1.2-2.2l6.4-4.8l-0.7-2.2l4.7-2.8l0.2-6.6l7.3-13.2
		l4.9-6.2l0.5-0.2l-29.5-18.2l-11.1,2.1l-15-0.5l-7.4-3.7l-44,13.5L287.1-164.9L287.1-164.9z"/>
	<text transform="matrix(1.0285 0 0 1 327.3767 -135.0298)" font-family="'ArialMT'" font-size="15.953">SC</text>
</g>
<g id="IL">
	<path inkscape:connector-curvature="0" d="M95.5-340.8l-0.2,0.6l5,3.1l1.6,3.1l5.3,4.9l-0.1,4.2l-2.8,8.1l-6.6,4.7l-6,1.2l-1.2,6.6
		l2.1,1l-2.1,13.2l-4.9,3l1,5l-1.2,0.5l0,0L84-276l4.2,11.4l15.1,12.4l1.4,6l2.8,3l9.6-0.5l-1.7,8.6l-0.7,9.3l5.8,4.6l9,3.8l4.8,3.6
		l2.6,7.3l-1.5,2.7l9.5,7.5l0.4,0.1l-0.9-0.7l2.6-6.2l10.2,2.7l2.5-2.8l-2.1-5.7l8.4-4.8l-2.3-3.1l2.1-4.4l0,0l-0.5-0.1l0.1-11.4
		l2.8-2.1l5-11.4l-1.1-5l-3.3-6.2l2-6.8l-9.3-63.7l-1.4-1.5l-3.4-7.6l-2.7-2.8l-1.2-7.5v-0.2l-18,2.3l-10.8,1.4L95.5-340.8
		L95.5-340.8L95.5-340.8z"/>
	<text transform="matrix(1.0285 0 0 1 114.7557 -270.6274)" font-family="'ArialMT'" font-size="15.953">IL</text>
</g>
<g id="IN">
	<path inkscape:connector-curvature="0" d="M217.1-338.1l-20.4,3.4l-4.7,1l-16.4,2.6l-3.4,2.7l-5.2,2.2l-2.1-0.1l-2.3-1.2l-0.9-0.7
		l9.3,63.7l-2,6.8l3.3,6.2l1.1,5l-5,11.4l-2.8,2.1l-0.1,11.4l0.5,0.1l0.5-0.1l2.1-3.6h4.9l6-2l7.4,2.7l0.9-3l4.2-3.1l6.4,1l3.4-6.6
		l9.5,0.7l-0.1-3.7l8.4-10.8l-1.4-4.9l5.9-0.1l7.1-5.5l-1.7-6.4l0.2-0.2l-0.2-2.2l-7.9-45.8l-3.6-19.6l-0.4-2.1L217.1-338.1
		L217.1-338.1z"/>
	<text transform="matrix(1.0285 0 0 1 181.0682 -274.6205)" font-family="'ArialMT'" font-size="15.953">IN</text>
</g>
<g id="KY">
	<path inkscape:connector-curvature="0" d="M139-182.6l-0.4-1.1l-0.9-0.2l-0.5,1.7l0.1,0.1l1.5-0.1L139-182.6L139-182.6z M229.8-267
		l-0.2,0.2l1.7,6.4l-7.1,5.5l-5.9,0.1l1.4,4.9l-8.4,10.8l0.1,3.7l-9.5-0.7l-3.4,6.6l-6.4-1l-4.2,3.1l-0.9,3l-7.4-2.7l-6,2h-4.9
		l-2.1,3.6l-0.5,0.1v0.4l-2.1,4.4l2.3,3.1l-8.4,4.8l2.1,5.7l-2.5,2.8l-10.2-2.7l-2.6,6.2l0.9,0.7l0.2,0.5l-1.2,10.6l-0.5,0.2
		l-3.4,2.1l-0.1,0.4l3.8-0.5l26.8-3.4l-1.4-5.2l4.6-0.1l54-6.9l38-6.3l0.5-0.4l1-1.1l10-5.2l7.6-9.8l1.1-3.3l5-3.8l6.4-7.9l1-1.4
		l-0.4-0.1h-3.3l-4.2-2.2l-7.5-8.9l-2.6-9v-0.2l-0.2-0.2l-5.7-3.1l-2.5-4.2l-5,4.8l-3.2,0.7l-3.9-1.6l-3.4,2.6l-7.1-3.1l-2,0.7
		l-6.9-5.7l-3.4-1.7l-6.5,0.7L229.8-267L229.8-267z"/>
	<text transform="matrix(1.0285 0 0 1 217.3064 -212.1323)" font-family="'ArialMT'" font-size="15.953">KY</text>
</g>
<g id="NC">
	<path inkscape:connector-curvature="0" d="M408.4-162.7l-1.5,1.5l0.2,0.2L408.4-162.7L408.4-162.7z M409.5-170.1l-0.7,1.1l0.2,1.1
		L409.5-170.1L409.5-170.1z M417.4-182l-2.1,1.4l-1.1,1.6L417.4-182L417.4-182z M434.5-190.1l-0.9-0.5l-1.7-0.1L434.5-190.1
		L434.5-190.1z M430.9-191h-1.2l-2.1,1.1L430.9-191z M435-189.6l3.8-9.3l-2.6,3.9L435-189.6L435-189.6z M440.7-201.8l1.7-2.3h-1
		L440.7-201.8z M451.8-211.9l-2.8-14.4l2.5,7.5L451.8-211.9L451.8-211.9z M435.7-244.5l-0.2,0.1l-0.5,0.1l0,0h0.1l7.3,11.9l5.8,5.5
		L435.7-244.5L435.7-244.5L435.7-244.5z M433.4-243.7l-1.1,0.2l0,0l0.2,0.1h2.3l-0.2-0.7l0,0l-0.5,0.1h-0.4l0,0v0.2H433.4
		L433.4-243.7L433.4-243.7L433.4-243.7z M310.6-214.3l-0.7,2l0.1,5.5l-1.5-0.1l-3.4,6.8l-3.8,0.4l-7.1,6.8l-3.2-1.2l-4.1,6
		l-10.9,9.6l-5.3,1.4l-5.7,5l-0.2,3.3l-4.9,2.6l0.1,5.7v1.4l1.7-0.4l18.6-3.7l5-1.1l1.7-0.4h0.4l44-13.5l7.4,3.7l15,0.5l11.1-2.1
		l29.5,18.2l0.5-0.4l13.7-5.4l0.1-7l4.9-8.6l5.3-4.9l11.1-7l1.5-2.6l2.8,1.4l1.4-8.5l-1.6,3l-5.7,1.8l-5.3,0.1l6.5-4.7l-2.1-2.1
		l2.3-4.7l-12.4-2l-0.5-0.6l10.7-2l3.4,1.7l4.4-0.4l3.6-2.6l2.6-5l2.3-0.6l-0.4-7l-3-2.8l-3,2.7l0.7,6.8l-2.3-8.4l-1.7-0.4
		l-13.2,5.3l5.9-5.5l0.2-2.2l6.2-1.5l1.7-4.4l4.1,2.2l-4.4-6.4l-3-2.6l0,0l-53,14.8l-33.9,8.4l-34.2,6.3L310.6-214.3L310.6-214.3z"
		/>
	<text transform="matrix(1.0285 0 0 1 360.1892 -192.8627)" font-family="'ArialMT'" font-size="15.953">NC</text>
</g>
<g id="OH">
	<path inkscape:connector-curvature="0" d="M309.9-329.6l-3.3-13.9l-0.7-2.8l-3.7-15.9l-4.8,3l-10.2,7.6l-6.6,7.9l-5.2,0.7l-9.6,5.3
		l-5.3-3.1l-16-1.8l0,0l-8.5,2.1l-8.4,2l-8.7,1.8l-1.4,0.4l0.4,2.1l3.6,19.6l7.9,45.8l0.2,2.2l1.2-0.9l6.5-0.7l3.4,1.7l6.9,5.7
		l2-0.7l7.1,3.1l3.4-2.6l3.9,1.6l3.2-0.7l5-4.8l2.5,4.2l5.7,3.1l0.2,0.2l0,0l5.8-2.7l2.1-4.3l-1.6-4.4l4.6-6.6l3.3-0.5l-0.4-5.7
		l5.4-7.1l1,1.1l4.9-3.6l4.2-6.3l0.7-28.3l0.2-0.1L309.9-329.6L309.9-329.6z"/>
	<text transform="matrix(1.0285 0 0 1 244.6463 -295.2221)" font-family="'ArialMT'" font-size="15.953">OH</text>
</g>
<g id="TN">
	<path inkscape:connector-curvature="0" d="M266.3-204.7l-38,6.3l-54,6.9l-4.6,0.1l1.4,5.2l-26.8,3.4l-3.8,0.5v0.1l-1.1,1.4
		l-0.5-0.1v-1.1v-0.1l-1.5,0.1l0.1,0.1l0.9,3.6l-2.6,3.2l-0.2,6v1.1v0.1l-3.9,7.5l0.9,5.3l-3.7,5.7l1.4,5.2l-4.8,4.3l0.2,0.2
		l2.8-0.2l26.6-3.2l11.6-1.6l6.6-1h0.2l-0.1-0.2l22.3-3l10.7-1.4l21.2-3.3l3.9-0.6l2.3-0.2l11.3-2.1l2.7-0.5l10.3-2l2-0.2v-1.4
		l-0.1-5.7l4.9-2.6l0.2-3.3l5.7-5l5.3-1.4l10.9-9.6l4.1-6l3.2,1.2l7.1-6.8l3.8-0.4l3.4-6.8l1.5,0.1l-0.1-5.5l0.7-2l-2.2,0.4
		l-7.5,2.1l-9,1.8l-22.8,4.6l-2.3,0.4L266.3-204.7L266.3-204.7z"/>
	<text transform="matrix(1.0285 0 0 1 194.0564 -165.6088)" font-family="'ArialMT'" font-size="15.953">TN</text>
</g>
<g id="VA">
	<path inkscape:connector-curvature="0" d="M433.7-244h0.4l0.4-0.1l0,0l-0.2-0.6L433.7-244L433.7-244L433.7-244z M429.3-258.5v0.6
		l0.7-0.4L429.3-258.5z M431.6-263.1l-0.1-1.1l0,0L431.6-263.1z M430.8-261.5l-0.2,1.7L430-259L430.8-261.5L430.8-261.5z M432-264.8
		l0.1-0.7L432-264.8L432-264.8L432-264.8z M432.9-268.3l0.4-1l-0.7,2.2L432.9-268.3z M433-270.2l0.5-2.8l-0.7,0.6L433-270.2
		L433-270.2z M435.3-283l0.2-1.2l-0.1,0.2L435.3-283L435.3-283z M434.7-286.1l-1.7,0.6l-2.6,1.2l-1,1.2l0.4,0.1l-3.2,19.3l1.2,3.1
		l2-8l3.4-10.5L434.7-286.1L434.7-286.1L434.7-286.1z M437.4-286.9l-0.4,0.1l-0.1,0.5l-0.7,3.9l0.5-1.5L437.4-286.9L437.4-286.9z
		 M298.7-237.6l-1,1.4l-6.4,7.9l-5,3.8l-1.1,3.3l-7.6,9.8l-10,5.2l-1,1.1l2.3-0.4l22.8-4.6l9-1.8l7.5-2.1l2.2-0.4l0.1,0.2l34.2-6.3
		l33.9-8.4l53-14.8l0,0l-0.4-0.6l-0.1-0.4l1,1l0,0l0,0l1.1-0.2l-0.1-0.1l-1-4.4l0.7,0.1l2.2,3.8l0,0l0,0l0.4-0.1l0.2-0.1l-0.5-1.1
		l-5.4-8.1l-6.9,1.2l-3,2.3l-2.8-2.6l-10-3.2l-6.9-0.2l13.4-1.2l7.4,4.9l2.2-3.2l-6-7.3l4.2,0.2l-2.3-6l-5.3,0.2l-12.5-10h-2
		l17.8,8.5l-1.2-6l1.2-2l-9-3.3l-7.7-0.5l-3.8-3.3l-3.2,2l-1.2-8.9l1.4,0.2l-0.2-7.1l-0.2-0.2l-0.2,0.1l-0.2-0.1l-0.7-0.5l-0.4-0.4
		l-4.4-2l-4.4-3.1l-6.2-1.6l-0.4-0.1v0.1l-0.9,5.4l-12.3-5.2l0.2,7.5l-6.9,12.5l-4.1,4.4l-2.6,7.6l-8.1-2.7l-3.9,17.6l-3.2,6
		l-0.5,7.7l-2.3,3.7l-8.9,2.6l-7.3,5.5l-3.4,0.5l-3.3,2.8l-8.4-3l-1.5-3.9L298.7-237.6L298.7-237.6z"/>
	<text transform="matrix(1.0285 0 0 1 356.7752 -246.6987)" font-family="'ArialMT'" font-size="15.953">VA</text>
</g>
<g id="WI">
	<path inkscape:connector-curvature="0" d="M156.2-425.1l-3.3,3.9l-2.1,5.9l1,3.2L156.2-425.1z M80.1-455.4l2.1-2.7l-1.5,1.4
		L80.1-455.4z M83-459.6l-0.7-0.7l-1.5,1L83-459.6L83-459.6z M54.2-452.5l-3,3.3l1.5,15.4l-8.5,7.5l-1.6,7.1l4.7,4.2L46-397.1
		l4.9,3.6l3.2,0.2l10.1,6l6.4,6.5l8.1,3.9l2,10v0.6l0,0l3.8,4.6l-1.1,3.4l1.4,7.6l3.9,5.3l7.3,3.7l-0.1,0.6l0,0l29-3.2l10.8-1.4
		l18-2.3l-0.5-2v-6.2l-3.6-6.5l-1-8.1l1.7-9l-1-6.9l3.2-8.6l-1.2-1.5l0.2-8l1.7-6.2l-2.1-2.1l-4.1,1.4l-2.2,5.4l-5,2.8l1.6-6.8
		l4.6-5.9l0.2-2.6l0.1-0.1l-6.4-6.3v-8.7l-7.1-5.7l-9.8-0.6l-10.1-2.6L91.1-449l-4.2-2.2l-0.4,0.4l-6.9-1l-2.3,1.4l1-9.5l-10.9,5.4
		L54.2-452.5L54.2-452.5L54.2-452.5z M80.2-459.2l-0.2-1l-1,0.4L80.2-459.2z M75.4-460.1l0.4-0.7l-0.2-0.2L75.4-460.1L75.4-460.1z
		 M85.1-462.3l-0.4-1.8l-0.4,2.2L85.1-462.3z"/>
	<text transform="matrix(1.0285 0 0 1 83.3025 -386.2876)" font-family="'ArialMT'" font-size="15.953">WI</text>
</g>
<g id="WV">
	<path inkscape:connector-curvature="0" d="M335.2-306.8l-18.8,4.6l-5.9-24.5l0,0l-0.2,0.1l-0.5,28.2l-4.2,6.3l-4.9,3.6l-1-1.1
		l-5.4,7.1l0.4,5.7l-3.3,0.5l-4.6,6.6l1.6,4.4l-2.1,4.3l-5.8,2.7l0,0v0.2l2.6,9l7.5,8.9l4.2,2.2h3.3l0.4,0.1l0.2,0.1l1.5,3.9l8.4,3
		l3.3-2.8l3.4-0.5l7.3-5.5l8.9-2.6l2.3-3.7l0.5-7.7l3.2-6l3.9-17.6l8.1,2.7l2.6-7.6l4.1-4.4l6.9-12.5l-0.2-7.5l12.3,5.2l0.9-5.4
		v-0.1l0,0l-3.8-6.5l-7.9-1l-4.7,3.4v2.6l-3.9,1l-5.9,3.9l-3,0.6l-6.2,8.4l-3-13.5L335.2-306.8L335.2-306.8z"/>
	<text transform="matrix(1.0285 0 0 1 290.4549 -252.0229)" font-family="'ArialMT'" font-size="15.953">WV</text>
</g>
<g id="DE">
	<path inkscape:connector-curvature="0" d="M413.3-328.1l0.5,2l11.1,30.6l12.5-3.6l-0.1-0.2h0.2l0.4,0.1l0,0l0.2-0.1l-0.2-0.5
		l-3.2-8.2l-15.6-14.4l0.7-10l0,0h-3.2l-2.3,1.8L413.3-328.1L413.3-328.1L413.3-328.1z"/>
	<text transform="matrix(1.0285 0 0 1 447.7049 -297.6587)" font-family="'ArialMT'" font-size="15.953">DE</text>
	<polygon points="434.6,-307 450.1,-308.6 450.1,-308.1 434.7,-306.5 	"/>
</g>
<g id="DC">
	<path inkscape:connector-curvature="0" d="M391.9-299.7l0.7,0.5l0.2,0.1l0.2-0.1l0.2,0.1l1,0.5l0.2,0.4v1l0.2,0.5l1.7-3.1l-2-1.1
		l-2.3,0.1L391.9-299.7L391.9-299.7z"/>
	<text transform="matrix(1.0285 0 0 1 487.1306 -228.6352)" font-family="'ArialMT'" font-size="15.953">DC</text>
	<polygon points="396.1,-299.1 486.4,-238.5 486,-237.7 395.5,-298.2 	"/>
</g>
<g id="MD">
	<path inkscape:connector-curvature="0" d="M437.7-287.5l1-6.9l-0.9,5.2l-0.5,2.2l-0.1,0.2l0.4-0.1L437.7-287.5L437.7-287.5z
		 M438.3-299.6l-0.2,0.1l0.2,0.7v1.6V-299.6L438.3-299.6L438.3-299.6z M337.9-307.6l3,13.5l6.2-8.4l3-0.6l5.9-3.9l3.9-1v-2.6
		l4.7-3.4l7.9,1l3.8,6.5l0,0l0.4,0.1l6.2,1.6l4.4,3.1l4.2,1.8l0.4,0.4l0.5-1.1l2.3-0.1l2,1.1l-1.7,3.1v0.1l-2.5,7.5l8.2,5.2l8.2,0.4
		l5.4,2.3l-2.3-6.3l-7-2.2l-1.7-5.3l4.4,5.7l3.6,0.5l-3.2-3.1l-2.5-9.2l0.7-5.3l-2.7-5.9l2.8-2.2l2.2-7.5l-0.9,11.1l2.3,3.7l2.2-4.4
		l1.2,7.1l-2.3,5.3l6.5,2.2l-5.7,1.8l2.8,5.3l4.8,1.6l2.6-4.6l-0.2,6.4l4.6-0.1l2.8,3.2h0.1l1-1.2l2.6-1.2l1.7-0.6l-0.1-0.2l3.4-10
		v-0.4l-0.7-2.6v-0.1l-12.5,3.6l-11.1-30.6l-0.5-2l-2.3,0.6l-9.5,2.8l-51.7,14.5l-9.5,2.5L337.9-307.6L337.9-307.6z"/>
	<text transform="matrix(1.0285 0 0 1 445.4236 -270.187)" font-family="'ArialMT'" font-size="15.953">MD</text>
	<polygon points="435.3,-289.5 448.2,-282 448,-281.5 435,-288.9 	"/>
</g>
<g id="NY">
	<path inkscape:connector-curvature="0" d="M440.2-362.6l-2.1,2.7l-0.5,0.7L440.2-362.6z M458.6-369l6.6-5.7v-0.2L458.6-369
		L458.6-369z M441.1-365v-4.4l-0.4,2.2L441.1-365z M472-385.6l-1.6-0.4l-0.2,1.2L472-385.6z M475.4-387.8l-0.1,1.4l0.2-0.7
		L475.4-387.8L475.4-387.8z M471.7-387.7l-8.9,8l-13.7,5.7l-3.6,3l-0.2,2.8l-3.7,3l0.5,3.8l5.8-2.2l8.4-6.6l9.3-4.8l14-12.9l-10,7.3
		l-3.2,1.4L471.7-387.7L471.7-387.7z M475.9-393.2l0.5-0.7l-1.6,1.8L475.9-393.2z M326.7-398l-2.1-0.2l1.6,2.1L326.7-398L326.7-398z
		 M370.7-437.5l0.2-1.5l-1.1,1.4L370.7-437.5L370.7-437.5z M371.5-446.7l-0.5,0.2l-0.7,1.5L371.5-446.7L371.5-446.7z M315.4-373.5
		l1,3.8l7,1.7l40.3-10.8l40.6-11.8l7.4,5.5l1.5,3.2l8.6,3.6l0.2,0.5l2.3,0.5l2.3,0.6l13.9,3.3l-0.2-0.6l1.2,5.3l2.6-0.6l1.5-5.9
		v-0.1l-2.3-2.2l3.4-4.2l-1.6-2l-5-19.1l-0.2-1.4l-0.7-0.4l-0.4-5.7l-0.4-6.3l-0.4-6.6v-0.4l-0.2,0.1l-6.6-21.2l-7-10.8l-2.1-12.8
		l-6-13.5l-0.9,0.4l-27.4,9.5l-5.7,5.9l-6.3,11.6l0.2,2.6l-8.2,12.1l5,1.7l1.5,9.2l-5.9,7.5l-17.5,10.3l-3.3-1.4l-13,1.8l-12.1,7
		l0.7,3.7l4.2,3.6l-2.3,11.3L315.4-373.5L315.4-373.5L315.4-373.5z"/>
	<text transform="matrix(1.0285 0 0 1 380.7049 -408.2251)" font-family="'ArialMT'" font-size="15.953">NY</text>
</g>
<g id="PA">
	<path inkscape:connector-curvature="0" d="M421.8-378.2l-8.6-3.6l-1.5-3.2l-7.4-5.5l-40.6,11.8l-40.3,10.8l-7-1.7l-1-3.8l-2.3,1.7
		l-3.6,2.3l-6.5,6.5l-0.9,0.6l3.7,15.9l0.7,2.8l3.3,13.9l0.7,2.7l0,0l5.9,24.5l18.8-4.6l2.6-0.6l2.3-0.6l9.5-2.3l51.9-14.1l9.5-2.8
		l2.3-0.6l0,0l1.1-2.6l2.3-1.8h3.2l0.4-1.2l5.2-5.7l0.5-1l0.4-0.2l-5.2-13.2l-2.5-0.4l0.1-8.6l-2.3-2.8l5.7-11.9l0,0L421.8-378.2
		L421.8-378.2z"/>
	<text transform="matrix(1.0285 0 0 1 341.7322 -333.7729)" font-family="'ArialMT'" font-size="15.953">PA</text>
</g>
<g id="ME">
	<path inkscape:connector-curvature="0" d="M485.8-446.8L485.8-446.8L485.8-446.8L485.8-446.8L485.8-446.8z M495.6-474.4l-1.1-1.6
		v0.7L495.6-474.4z M493.6-475.7v-1.4l-0.1-0.7L493.6-475.7z M498.4-481.1l-0.2-0.1l0.1,0.4L498.4-481.1L498.4-481.1z M511.7-487.7
		l-0.2-2l-0.5,1L511.7-487.7z M508.4-486.9l0.1-1.5l-1.6,0.2L508.4-486.9L508.4-486.9z M513.3-491.1h-0.5v0.2L513.3-491.1z
		 M506.7-489.1l-1.2-0.2l-0.1,1.2L506.7-489.1L506.7-489.1z M513.6-493.1l1.2,1l-0.4-1.1L513.6-493.1z M510-493l-1.2,2.2l1.6-0.7
		L510-493L510-493z M504.2-493l-0.5,0.7l0.4,1.2L504.2-493L504.2-493z M512-497.3l-0.1-1.1l-0.4,0.6L512-497.3L512-497.3z
		 M511.3-496.8l-1.2-1.1v1L511.3-496.8z M504-493.7l-0.2-1.5l-0.5,1.2L504-493.7z M516.5-498.2l-2.1,2.8l-0.1-2.1L516.5-498.2z
		 M526.2-506.9l-1-1.4l-0.5,0.2L526.2-506.9z M529.8-512.6l-0.9-0.4l-0.1,0.4H529.8L529.8-512.6z M531.5-522.7h-1.2l1.4,0.4
		L531.5-522.7L531.5-522.7z M533.5-521.5l-0.4-2.2l-1.1-0.1C532.1-523.8,533.5-521.5,533.5-521.5z M531.4-523.6l-0.2-2.3l-1,1.7
		L531.4-523.6L531.4-523.6z M454.4-503.3l19.3,43.9l0.2,1l8.4,10v-0.2l1.4-0.4l0.2-7.3l2.2-2.6l1.4-6.8l-1.2-1.2l2.3-6.6l7.6-3.4
		l5-6l2-10.3l8.1-0.5l-1.1-5.3l10.1-3.7l0.7-5.9l2.3,0.5l6.6-5.3l2.8-6.8l-6.9-6.6l-7.1-1.5l-2.6-5.3v-3.2l-4.4,1.4l-4.9-1.7v-5.3
		l-13.3-27.9l-9.7-4.9l-10.8,8.7l-2.8-0.5l-2.5-4.6l-3.4,1.4l-4.9,23.7l1.7,7.7l1.5,15.7l-3.8,12.1l2.6,2l-3.2,6l-3.4-0.5
		L454.4-503.3L454.4-503.3z"/>
	<text transform="matrix(1.0285 0 0 1 470.951 -508.5923)" font-family="'ArialMT'" font-size="15.953">ME</text>
</g>
<g id="MI">
	<path inkscape:connector-curvature="0" d="M175.7-420.5l-0.7-1.1l-0.1,1.4L175.7-420.5z M177.6-422.8l-1.6-2.1l-0.2,1L177.6-422.8z
		 M179-432.1l-1.4-1.2v0.2L179-432.1z M175.8-331.1l16.4-2.6l4.7-1l20.4-3.4l0.4,1.7l1.4-0.4l8.7-1.8l8.4-2l8.5-2.1l-0.1-0.4
		l4.4-8.4l-0.4-6.9l4.9-11.9l3.8,2.2l1.5-2.7l-0.4-10.3l-3.6-6.5l-5.3-13.7l-4.7-5l-2.3-0.6l-8.6,5.9l1,1.2l-4.6,8.2l-4.4-0.7
		l-1.4-8.6l2-0.6l3.8-8.6l0.4-15.3l-6-13.3l-13.4-2.1l-1.4-2.1l-12.3-3.4l-5.7,6.6l0.5,5.9l-4.2,5.2l1,8l-4.1,2.8v-10.1l-3.7,7.6
		l-4.4,6.6l-2.8,2.2l1.5,7l-2,7.3l1.1,9.2l-1.4,4.6l9.6,17.8l1.2,6.8L183-346l-6.4,14.3L175.8-331.1L175.8-331.1z M204.1-447.4
		l-3.4,0.2l2.2,1.6L204.1-447.4L204.1-447.4z M184-444.1h-1.1l1.2,0.5L184-444.1z M207.1-460.5l-1.4-2.1l-0.5,0.1L207.1-460.5
		L207.1-460.5z M86.8-451l4.2,2.2l21.8,6.5l10.1,2.6l9.8,0.6l7.1,5.7v8.7l6.4,6.3v-0.1l5.2-14.6l6.4-4.2l4.8-5.2l0.9,4.7l4.9-7.3
		l11.8-4.4l1-1.8l11.9,1.5l4.7,2.2l2.2-5.7l2.2,1.4l9.3-1.5l-2.3-3.6l-4.1-2.2l0.9-8.4l-8.1,4.4l-7.4-1l-2.3-5.5l0.9-1.8l-10.1,4.7
		l-6.5,0.4l-11.6,6.9l-1.4,2.6l-7.1-1.7l-4.6,2l-9-7.6l-20.4-6.2l-0.4-2.2l-12.8,11.9L98-459l-10.3,7.6L86.8-451L86.8-451z
		 M134-480.3l-15.6,7.5l5.2,4.9l2.1-4.9l5.3-6.4L134-480.3L134-480.3z M116.5-497.9l-10.7,7l-0.5,3.4l8.4-6L116.5-497.9z"/>
	<text transform="matrix(1.0285 0 0 1 196.1111 -365.683)" font-family="'ArialMT'" font-size="15.953">MI</text>
</g>
<g id="AK">
	<path inkscape:connector-curvature="0" d="M-670.4,117.7l-0.7,0.2l0.5,0.1L-670.4,117.7L-670.4,117.7z M-665.5,118.3L-665.5,118.3
		L-665.5,118.3L-665.5,118.3z M-667.9,116.2v0.4l0.2-0.1L-667.9,116.2L-667.9,116.2z M-669,115.4L-669,115.4L-669,115.4L-669,115.4z
		 M-666.6,116.8v-0.2V116.8L-666.6,116.8L-666.6,116.8z M-666.8,116.5L-666.8,116.5l-0.2-0.1L-666.8,116.5z M-666.8,114.9l0.1-0.7
		l-0.5,0.2L-666.8,114.9L-666.8,114.9z M-651.7,121.3L-651.7,121.3l0.1,0.4L-651.7,121.3L-651.7,121.3z M-661.5,116.8l-1.5-1.4v3.1
		L-661.5,116.8z M-658.2,119.6l-0.1-1l-2.3-0.1L-658.2,119.6L-658.2,119.6z M-650.2,121.5l-0.1,0.2h0.2L-650.2,121.5L-650.2,121.5z
		 M-649.7,121.6h-0.2l0.5,0.1L-649.7,121.6z M-648.1,122.1L-648.1,122.1h-0.2H-648.1L-648.1,122.1z M-650.9,120.2l-1.1-0.1l0.4,0.4
		L-650.9,120.2L-650.9,120.2z M-647.6,120.5l-0.2-0.1v0.1H-647.6z M-639.6,122.1l-5.2,0.4l-1.2,0.5L-639.6,122.1z M-623.6,128v-0.5
		h-0.2L-623.6,128z M-616.6,128.1l0.2-0.2l-0.2-0.2V128.1z M-611.5,129.6l0.2-0.1L-611.5,129.6L-611.5,129.6L-611.5,129.6z
		 M-615.6,127.1l-0.1-0.5h-0.2L-615.6,127.1L-615.6,127.1z M-606.8,129.2L-606.8,129.2L-606.8,129.2L-606.8,129.2z M-613.9,127.1
		l0.2-0.7h-0.1L-613.9,127.1L-613.9,127.1z M-591.4,125.3l0.1-0.2l-0.2-0.1L-591.4,125.3L-591.4,125.3z M-594.7,124.2l-4.7,3.9
		l3.3-0.2l3.8-3L-594.7,124.2L-594.7,124.2z M-586.4,125.5l-1-0.2l0.7,0.5L-586.4,125.5L-586.4,125.5z M-584.5,125.8l-1.5-0.4
		l-0.2,0.1L-584.5,125.8z M-589.6,123.8h-1.5l2.5,0.6L-589.6,123.8z M-583.4,125.2l-0.1-0.2l-0.5,0.1L-583.4,125.2L-583.4,125.2z
		 M-587.5,123.6l-0.5-0.2v1.5L-587.5,123.6z M-570.4,126.8L-570.4,126.8l-0.4-0.1L-570.4,126.8L-570.4,126.8z M-570.1,126.6
		L-570.1,126.6l-0.2-0.2L-570.1,126.6L-570.1,126.6z M-572.5,126l0.2,0.5v-0.1L-572.5,126L-572.5,126z M-571.2,126l-1.2-0.4l1.5,1.1
		L-571.2,126z M-569.4,124.7L-569.4,124.7L-569.4,124.7L-569.4,124.7z M-553.8,126.5l-0.2-0.5h-0.1L-553.8,126.5L-553.8,126.5z
		 M-411,117.9l-0.2-0.2L-411,117.9L-411,117.9L-411,117.9z M-571.7,122L-571.7,122L-571.7,122L-571.7,122z M-407,115.6l0.4,0.5h0.2
		L-407,115.6z M-552.1,125.3L-552.1,125.3l-0.1,0.5L-552.1,125.3L-552.1,125.3z M-568.7,122.9l0.2-1.1h-0.1L-568.7,122.9
		L-568.7,122.9z M-399.4,112.7l-1.2,0.6l1.1,0.5L-399.4,112.7L-399.4,112.7z M-566.2,122.2l-0.1-0.2L-566.2,122.2L-566.2,122.2z
		 M-576.2,119.5l-3.3,0.6l-2.8,3.7L-576.2,119.5L-576.2,119.5z M-552.4,124.4l-0.9,0.6l0.9-0.1V124.4L-552.4,124.4z M-399.4,112
		l-0.2-0.5l-0.1,0.2L-399.4,112L-399.4,112z M-565.1,121.1l-1-0.1l1,1V121.1L-565.1,121.1z M-408.1,113.6l-0.2,0.2l0.2,1V113.6z
		 M-563,121l-0.4,0.1l0.5,0.4L-563,121L-563,121z M-553.2,123.6h-0.4l-0.2-0.2L-553.2,123.6z M-564.1,121l-0.7-0.4l0.2,0.4H-564.1z
		 M-555.2,122.2l-1.2,0.4l-0.9,2.1L-555.2,122.2L-555.2,122.2z M-411.1,113.3v1l0.5-0.6L-411.1,113.3L-411.1,113.3z M-570.9,118.1
		l1.1-0.2h-0.1L-570.9,118.1L-570.9,118.1z M-572.2,117.5l-0.2-0.2v0.1L-572.2,117.5L-572.2,117.5z M-411.1,112.4l-0.2-0.1l-0.1,0.4
		L-411.1,112.4L-411.1,112.4z M-556.6,120.1l-0.2-0.1l-0.2,0.4L-556.6,120.1L-556.6,120.1z M-412.3,112.7l0.1-0.6l-0.2-0.1
		L-412.3,112.7L-412.3,112.7z M-413.4,112l-0.4,0.5l0.7,0.1L-413.4,112L-413.4,112z M-551.2,118.3l-0.2-0.2h-0.1L-551.2,118.3
		L-551.2,118.3z M-413.8,109.7l1.1,0.4l0.4-0.5L-413.8,109.7L-413.8,109.7z M-412.2,108.8l-0.4,0.2l0.7,0.4L-412.2,108.8z
		 M-415.4,109.5l-0.2-0.5l-0.2,0.2L-415.4,109.5L-415.4,109.5z M-402.1,104.7l-1.7,4.8l1.7-1.1V104.7z M-559.3,114.7L-559.3,114.7
		L-559.3,114.7L-559.3,114.7z M-413.7,106.6l-1.2,1.2l0.2,1.4L-413.7,106.6L-413.7,106.6z M-537.3,116.9v-0.5l-0.1,0.2L-537.3,116.9
		z M-415.3,105.2l3.8,5.7l8.6,5.3l-2.1-4.6l-8.2-6.8L-415.3,105.2L-415.3,105.2z M-542.5,114.8l-0.1-0.4l-0.2,0.1L-542.5,114.8
		L-542.5,114.8z M-410.7,103.1l-0.5,2l1-0.6L-410.7,103.1L-410.7,103.1z M-407.9,103.1l-0.1,1.4l1.2,0.4L-407.9,103.1L-407.9,103.1z
		 M-538.3,113.2l-0.7-0.1l-0.7,0.2L-538.3,113.2L-538.3,113.2z M-524.6,114.2l-0.5,1l0.2-0.7L-524.6,114.2L-524.6,114.2z
		 M-522.7,114.3l-1.2,0.1l0.7,0.7L-522.7,114.3L-522.7,114.3z M-603.1,97.8l1.4,0.6l-0.2-0.2L-603.1,97.8L-603.1,97.8z
		 M-550.5,110.5L-550.5,110.5L-550.5,110.5L-550.5,110.5z M-550.1,110.4L-550.1,110.4L-550.1,110.4L-550.1,110.4z M-412.8,100.4
		l0.7,2.3l1.4-0.7L-412.8,100.4L-412.8,100.4z M-546.5,108.9L-546.5,108.9L-546.5,108.9L-546.5,108.9z M-418.5,101.5l0.7,6l1.4-1.4
		L-418.5,101.5z M-417.9,99.7l3,4.2l-0.4-2.7L-417.9,99.7z M-427.2,100.6l-0.9,2.3l1.1-1.7L-427.2,100.6L-427.2,100.6z M-533.4,107
		L-533.4,107L-533.4,107L-533.4,107z M-520.8,107.2l-0.2-0.4L-520.8,107.2L-520.8,107.2L-520.8,107.2z M-427,98.7l5.3,8.5l-0.9-5.9
		L-427,98.7L-427,98.7z M-513.4,103.3l-0.4,0.4l0.7,0.2L-513.4,103.3L-513.4,103.3z M-515.1,103.5l0.1-0.4h-0.5L-515.1,103.5
		L-515.1,103.5z M-516.4,103.5l-3.4,2.2l-4.2,5.4l2.2,2.2l9.8-7L-516.4,103.5z M-432.7,95.1l-1-0.5v0.7L-432.7,95.1L-432.7,95.1z
		 M-517.2,101.9l0.1,0.5l1,0.5L-517.2,101.9L-517.2,101.9z M-430.2,92.6l-2.6,1.4l2.5,0.7L-430.2,92.6L-430.2,92.6z M-431.9,92.6
		l-0.2-0.2l-0.1,0.2H-431.9L-431.9,92.6z M-423.9,90.6l-1.1-0.4l-0.2,0.7L-423.9,90.6z M-429.4,91.5l-1-0.1v0.2L-429.4,91.5
		L-429.4,91.5z M-426.6,90.5l5.4,7.7l-1.5-7L-426.6,90.5L-426.6,90.5z M-514.2,98.8l-3.2,2.2l1.5,1.6l4.2-3.1L-514.2,98.8
		L-514.2,98.8z M-550.3,93.9L-550.3,93.9L-550.3,93.9L-550.3,93.9z M-551.7,93.3l-0.1-0.6v0.2L-551.7,93.3z M-511,95l-0.2,0.1v0.1
		L-511,95L-511,95z M-512.3,94.8L-512.3,94.8l-0.4,0.4L-512.3,94.8L-512.3,94.8z M-509.1,93.7l-0.4-0.2v0.1L-509.1,93.7L-509.1,93.7
		z M-508,93.5l-0.4-0.2v0.1L-508,93.5L-508,93.5z M-509.9,93.2h-0.5v0.1L-509.9,93.2z M-483.4,90.6l0.1-0.4L-483.4,90.6L-483.4,90.6
		L-483.4,90.6z M-475.3,86.5l1.6-2l-0.5,0.4L-475.3,86.5z M-491.5,86.3l0.5-0.4l0.1-0.5L-491.5,86.3L-491.5,86.3z M-491.5,84.8
		l-0.5,0.4l1-0.2L-491.5,84.8z M-513.3,84.8l-0.1-0.5h-0.1L-513.3,84.8L-513.3,84.8z M-492,84.7l-0.5,0.5l-0.2,0.5L-492,84.7z
		 M-477.4,83.1L-477.4,83.1h0.2H-477.4L-477.4,83.1z M-476.8,83.1L-477,83v0.1H-476.8z M-478.4,83L-478.4,83L-478.4,83L-478.4,83z
		 M-489.2,83.7l0.5-0.5L-489.2,83.7L-489.2,83.7L-489.2,83.7z M-481.1,82.2L-481.1,82.2L-481.1,82.2L-481.1,82.2z M-487.7,82.5
		l-3.2,5l4.1-4.7L-487.7,82.5z M-491.8,83.2l-0.4-0.5l-0.1,0.2L-491.8,83.2L-491.8,83.2z M-481.7,82.1l-0.2-0.1L-481.7,82.1
		L-481.7,82.1L-481.7,82.1z M-478.2,82.3v-1l-0.2,0.4L-478.2,82.3z M-575.5,72.4l-6.4-0.2l4.4,4.6L-575.5,72.4z M-484.9,81.6l0.2,1
		l0.7-1.1L-484.9,81.6L-484.9,81.6z M-490.3,81.5l-0.4,2.8l0.7-1.8L-490.3,81.5z M-605.6,60.1l0.1-0.5l0,0L-605.6,60.1z
		 M-491.7,79.6l0.1,0.4l0.2-0.1L-491.7,79.6L-491.7,79.6z M-492.4,80.1l-0.2-0.7l-0.4,0.2L-492.4,80.1z M-486,78.5V78l-0.4,0.2
		L-486,78.5L-486,78.5z M-492,77.8v1.4l0.4-1L-492,77.8z M-502,76.2v-0.4l0,0V76.2z M-571.4,60.3l0.2-0.7l-0.1,0.1L-571.4,60.3
		L-571.4,60.3z M-571,59L-571,59h-0.2H-571L-571,59z M-565.1,55.9L-565.1,55.9L-565.1,55.9L-565.1,55.9z M-565.1,55.4l-0.1-0.2l0,0
		L-565.1,55.4z M-562.8,52L-562.8,52L-562.8,52L-562.8,52z M-561.9,52.2l-0.5-0.2v0.1L-561.9,52.2L-561.9,52.2z M-562.8,51.8v-0.2
		l-0.2,0.2H-562.8z M-583.9,45.7l-0.2-0.6l-0.1-0.4L-583.9,45.7L-583.9,45.7z M-582.1,43.2L-582.1,43.2l0.2,0.1L-582.1,43.2
		L-582.1,43.2z M-585.6,42.7l-1.1-1.4l0.9,1.1L-585.6,42.7L-585.6,42.7z M-587.6,40.7h-0.2H-587.6L-587.6,40.7L-587.6,40.7z
		 M-587.5,39.2L-587.5,39.2L-587.5,39.2L-587.5,39.2z M-587.6,39.1L-587.6,39.1l0.2,0.1L-587.6,39.1z M-552.5,49.3l-1.5,0.1l0.9,0.4
		L-552.5,49.3L-552.5,49.3z M-589.2,36.7l-1.1,3.8l3.3,0.5l4.4,4.4l2.6-1.2L-589.2,36.7z M-565.9,38.3v-0.2V38.3L-565.9,38.3
		L-565.9,38.3z M-572.6,24.7l-0.2-0.1L-572.6,24.7L-572.6,24.7L-572.6,24.7z M-568.8,25.9l0.4-0.1h-0.1L-568.8,25.9L-568.8,25.9z
		 M-566.1,25.2h0.4l1.2-0.5L-566.1,25.2L-566.1,25.2z M-561.3,23.8l0.2-0.2L-561.3,23.8L-561.3,23.8L-561.3,23.8z M-560.5,23.6
		l0.9-0.4l-0.7,0.1L-560.5,23.6L-560.5,23.6z M-558.7,22.8l-0.7,0.1v0.1L-558.7,22.8L-558.7,22.8z M-557.8,22.7L-557.8,22.7
		L-557.8,22.7L-557.8,22.7z M-473.4-0.6l-0.5-0.4l-1-0.4L-473.4-0.6L-473.4-0.6z M-542.9-3.4l1.2-1.6l-0.7,0.5L-542.9-3.4
		L-542.9-3.4z M-541.5-5.2L-541-6l-0.2,0.2L-541.5-5.2L-541.5-5.2z M-540.6-6.2l1-0.7l-0.5,0.2L-540.6-6.2L-540.6-6.2z M-498.8-5.8
		l0.7,0.6h0.4L-498.8-5.8z M-520.1-14.5l-5.4,4.4l-3.3-1l-7.6,4.3l-1.5-1l-8.7,9.6l-8.9,2l0.9,4.7l3.9,5.3l7.4,6.9l-1.2,2.7l5.7,2.2
		l-2.8,0.5l-3.6-2.7l2,3.9l-2.3,1.5l-7.5-6.6l-6,1.1l-10.2,3.7l4.7,5l-0.7,3.1l3,3.6l10.1,3.8l7.3-3.6l1.2,2.7l-2.1,8.1h-6.2
		l-7.1,3.1l-0.4-2.2l-3.7,1.5l-1.7,3.7l-6.2,4.6V67l2.3,1.1l-1.7,5.5l7.9,6.6l5-2.1l-1.1,8.2l1.5,1.8l6.2,1.4l2.3,2.3l5.3,0.4
		l2.5,2.6l5.4-1.6l-2.5,3.3l-2.1,6.8l-16.2,10.3l-2.2,2.1l-3-1.2l-4.9,1.2l-7,4.6l11.1-3.1l1.6,2.2l14.3-4.6l0.4,1.8l5.7-5.4
		l11.6-7.9l1,0.5l10.2-7.9l-2.6-3.1l3.4-5.5l9-10.5l6.9-1.4l2.2,1.5l-8.4,2.2l-2.3,8.6l0.2,4.7l2.8-0.2l14-8.2l1.1-3.1l-1.2-4.8
		l4.2,1.1l3-2l8.7,5.2l-0.7,1.5l19.9,2.3l4.7-1.5l1.4,2l17.2,8l2.8-1.7l0.2-9.7l2.3,4.4l11.2,7.9l1,3.2l9.7,5.3l2.5,6.8l2.3-5.3
		l4.9,9.3l3.3-5.3l-2.6-6.6l-10.2-1.1l-15.7-14.6l-8.5-6.2l-6.5,6.3h-3.8l-8.9-5.7l-8.7-0.4l-12.4-76.6l-2.2-3.6l-5-3l-7.5,1.5
		l-5.9-1.2l-7.4-2.8l-7.7,0.5l-2.1-3.6l-6.3-1l-1.1-2.2l-2.7,3.1L-520.1-14.5L-520.1-14.5z"/>
	<text transform="matrix(1.0285 0 0 1 -524.8068 48.4263)" font-family="'ArialMT'" font-size="15.953">AK</text>
</g>
<g id="SD">
	<path d="M-32.6-423.9l-22.4,0.6l-54,0.4l-58.6-1.6l-5.2-0.2l-0.1,3l-0.5,11.7l-0.4,8.9l-0.1,1.8h-0.4l-0.1,3.3l-1.4,27.1l-1.1,20.1
		l-0.1,3.4l3.9,0.1l45,1.5l38.1,0.4l26.1-0.2l8.4,5.2l7-2l4.7,0.1l14.5,4.2l4.1,3.9l2.5,0.2v-1l-2.7-4.2l2-6.8l-2.3-14.4l2.7-0.1
		l-0.2-6l-6.6-45.5l-3.4-5.7l5.3-8.5l0.1-0.4L-32.6-423.9L-32.6-423.9z"/>
	<text transform="matrix(1.0285 0 0 1 -127.9318 -376.0932)" font-family="'ArialMT'" font-size="15.953">SD</text>
</g>
<g id="NJ">
	<path inkscape:connector-curvature="0" d="M444.7-328.7l-0.7-1.6v1.6H444.7z M446-333.4l0.4-3.8l-0.9,3.3L446-333.4L446-333.4z
		 M440.6-373.1l-13.9-3.3l-2.3-0.6l-2.3-0.5l0,0l-5.7,11.9l2.3,2.8l-0.1,8.6l2.5,0.4l5.2,13.2l-0.2,0.4l-6.5,9.3l0.7,7l15.7,5.2
		l0.1,6l3.6-4.9l0.5-7l3.7-2.3l-1.5-5.3l2.7-6.4v-13.8l-1-4.6l-6.3,0.1l1.6-6.3L440.6-373.1L440.6-373.1L440.6-373.1z"/>
	<text transform="matrix(1.0285 0 0 1 455.7664 -331.0736)" font-family="'ArialMT'" font-size="15.953">NJ</text>
	<polygon points="436.1,-339.7 454.7,-338.2 454.8,-337.5 436.1,-339 	"/>
	<g id="port_3_">
		<path fill="#4D2F67" d="M498.4-359.9l-4.9,5.2H453c3.4,5.3,5.5,6.2,5.5,6.2h54.6c9.3-5.5,9.6-11.3,9.6-11.3H498.4z M516.8-351.8
			h-61l-1.2-1.6h64.1L516.8-351.8z M517.8-355c-0.6,0-1.2-0.5-1.2-1s0.5-1,1.2-1c0.6,0,1.2,0.5,1.2,1S518.6-355,517.8-355z"/>
		<rect x="454.1" y="-357.3" fill="#4D2F67" width="15.1" height="1.7"/>
		<rect x="486.7" y="-359.9" fill="#4D2F67" width="4.4" height="4.3"/>
		<rect x="481.5" y="-359.9" fill="#4D2F67" width="4.4" height="4.3"/>
		<rect x="477" y="-370.4" fill="#4D2F67" width="4.4" height="4.3"/>
		<rect x="476.5" y="-359.9" fill="#4D2F67" width="4.4" height="4.3"/>
		<rect x="471.3" y="-359.9" fill="#4D2F67" width="4.4" height="4.3"/>
		<rect x="502.3" y="-370.4" fill="#4D2F67" width="4.4" height="4.3"/>
		<rect x="497.3" y="-370.4" fill="#4D2F67" width="4.4" height="4.3"/>
		<rect x="492.2" y="-370.4" fill="#4D2F67" width="4.4" height="4.3"/>
		<rect x="487.1" y="-370.4" fill="#4D2F67" width="4.4" height="4.3"/>
		<rect x="481.9" y="-370.4" fill="#4D2F67" width="4.4" height="4.3"/>
		<rect x="473.9" y="-365.2" fill="#4D2F67" width="4.4" height="4.3"/>
		<rect x="494.3" y="-365.2" fill="#4D2F67" width="4.4" height="4.3"/>
		<rect x="489.3" y="-365.2" fill="#4D2F67" width="4.4" height="4.3"/>
		<rect x="484.1" y="-365.2" fill="#4D2F67" width="4.4" height="4.3"/>
		<rect x="478.9" y="-365.2" fill="#4D2F67" width="4.4" height="4.3"/>
		<rect x="499.5" y="-365.2" fill="#4D2F67" width="4.4" height="4.3"/>
		<rect x="504.5" y="-365.2" fill="#4D2F67" width="4.4" height="4.3"/>
		<polygon fill="#4D2F67" points="496.2,-358.5 496.2,-359.9 491.7,-359.9 491.7,-355.6 493.7,-355.6 		"/>
		<polygon fill="#4D2F67" points="496.5,-358.8 496.8,-359.1 497.6,-359.9 496.5,-359.9 496.5,-359.1 		"/>
		<polygon fill="#4D2F67" points="467.5,-367.8 461,-367.8 455.7,-358.1 467.5,-358.1 		"/>
		<rect x="464.6" y="-371.9" fill="#4D2F67" width="1" height="3.9"/>
		<rect x="462.3" y="-370.1" fill="#4D2F67" width="1.2" height="2"/>
		<polygon fill="#4D2F67" points="515.4,-365.2 515.4,-360.4 516,-360.4 516,-368.8 515.4,-368.8 515.4,-366.3 511.5,-360.4 
			512.3,-360.4 		"/>
	</g>
</g>
</svg>
